mtllib ak47_model.mtl
usemtl gun
v -3.2000 3.9000 0.9500
v 9.0000 3.9000 0.9500
v 9.8000 3.4000 0.9500
v 11.2000 3.4000 0.9500
v 11.2000 -1.0000 0.9500
v -3.2000 -1.0000 0.9500
v -3.2000 3.9000 -0.9500
v 9.0000 3.9000 -0.9500
v 9.8000 3.4000 -0.9500
v 11.2000 3.4000 -0.9500
v 11.2000 -1.0000 -0.9500
v -3.2000 -1.0000 -0.9500
v -3.2000 3.9000 0.9500
v 9.0000 3.9000 0.9500
v 9.0000 3.9000 -0.9500
v -3.2000 3.9000 -0.9500
v 9.0000 3.9000 0.9500
v 9.8000 3.4000 0.9500
v 9.8000 3.4000 -0.9500
v 9.0000 3.9000 -0.9500
v 9.8000 3.4000 0.9500
v 11.2000 3.4000 0.9500
v 11.2000 3.4000 -0.9500
v 9.8000 3.4000 -0.9500
v 11.2000 3.4000 0.9500
v 11.2000 -1.0000 0.9500
v 11.2000 -1.0000 -0.9500
v 11.2000 3.4000 -0.9500
v 11.2000 -1.0000 0.9500
v -3.2000 -1.0000 0.9500
v -3.2000 -1.0000 -0.9500
v 11.2000 -1.0000 -0.9500
v -3.2000 -1.0000 0.9500
v -3.2000 3.9000 0.9500
v -3.2000 3.9000 -0.9500
v -3.2000 -1.0000 -0.9500
v -0.6000 -0.6000 0.5000
v 3.8000 -0.6000 0.5000
v 3.8000 -1.4000 0.5000
v 2.6000 -3.0000 0.5000
v -0.2000 -3.1000 0.5000
v -0.6000 -2.2000 0.5000
v -0.6000 -0.6000 -0.5000
v 3.8000 -0.6000 -0.5000
v 3.8000 -1.4000 -0.5000
v 2.6000 -3.0000 -0.5000
v -0.2000 -3.1000 -0.5000
v -0.6000 -2.2000 -0.5000
v -0.6000 -0.6000 0.5000
v 3.8000 -0.6000 0.5000
v 3.8000 -0.6000 -0.5000
v -0.6000 -0.6000 -0.5000
v 3.8000 -0.6000 0.5000
v 3.8000 -1.4000 0.5000
v 3.8000 -1.4000 -0.5000
v 3.8000 -0.6000 -0.5000
v 3.8000 -1.4000 0.5000
v 2.6000 -3.0000 0.5000
v 2.6000 -3.0000 -0.5000
v 3.8000 -1.4000 -0.5000
v 2.6000 -3.0000 0.5000
v -0.2000 -3.1000 0.5000
v -0.2000 -3.1000 -0.5000
v 2.6000 -3.0000 -0.5000
v -0.2000 -3.1000 0.5000
v -0.6000 -2.2000 0.5000
v -0.6000 -2.2000 -0.5000
v -0.2000 -3.1000 -0.5000
v -0.6000 -2.2000 0.5000
v -0.6000 -0.6000 0.5000
v -0.6000 -0.6000 -0.5000
v -0.6000 -2.2000 -0.5000
v -3.0000 3.5000 0.8000
v -8.0000 3.7000 0.8000
v -12.0000 3.2000 0.8000
v -15.0000 2.4000 0.8000
v -15.2000 -4.4000 0.8000
v -11.0000 -3.6000 0.8000
v -6.4000 -1.6000 0.8000
v -3.0000 -1.2000 0.8000
v -3.0000 3.5000 -0.8000
v -8.0000 3.7000 -0.8000
v -12.0000 3.2000 -0.8000
v -15.0000 2.4000 -0.8000
v -15.2000 -4.4000 -0.8000
v -11.0000 -3.6000 -0.8000
v -6.4000 -1.6000 -0.8000
v -3.0000 -1.2000 -0.8000
v -3.0000 -1.2000 0.8000
v -6.4000 -1.6000 0.8000
v -6.4000 -1.6000 -0.8000
v -3.0000 -1.2000 -0.8000
v -6.4000 -1.6000 0.8000
v -11.0000 -3.6000 0.8000
v -11.0000 -3.6000 -0.8000
v -6.4000 -1.6000 -0.8000
v -11.0000 -3.6000 0.8000
v -15.2000 -4.4000 0.8000
v -15.2000 -4.4000 -0.8000
v -11.0000 -3.6000 -0.8000
v -15.2000 -4.4000 0.8000
v -15.0000 2.4000 0.8000
v -15.0000 2.4000 -0.8000
v -15.2000 -4.4000 -0.8000
v -15.0000 2.4000 0.8000
v -12.0000 3.2000 0.8000
v -12.0000 3.2000 -0.8000
v -15.0000 2.4000 -0.8000
v -12.0000 3.2000 0.8000
v -8.0000 3.7000 0.8000
v -8.0000 3.7000 -0.8000
v -12.0000 3.2000 -0.8000
v -8.0000 3.7000 0.8000
v -3.0000 3.5000 0.8000
v -3.0000 3.5000 -0.8000
v -8.0000 3.7000 -0.8000
v -3.0000 3.5000 0.8000
v -3.0000 -1.2000 0.8000
v -3.0000 -1.2000 -0.8000
v -3.0000 3.5000 -0.8000
v -1.4000 -0.8000 0.7000
v 1.6000 -0.8000 0.7000
v 2.0000 -3.0000 0.7000
v 1.6000 -6.4000 0.7000
v -1.0000 -6.6000 0.7000
v -2.4000 -3.4000 0.7000
v -1.4000 -0.8000 -0.7000
v 1.6000 -0.8000 -0.7000
v 2.0000 -3.0000 -0.7000
v 1.6000 -6.4000 -0.7000
v -1.0000 -6.6000 -0.7000
v -2.4000 -3.4000 -0.7000
v -1.4000 -0.8000 0.7000
v 1.6000 -0.8000 0.7000
v 1.6000 -0.8000 -0.7000
v -1.4000 -0.8000 -0.7000
v 1.6000 -0.8000 0.7000
v 2.0000 -3.0000 0.7000
v 2.0000 -3.0000 -0.7000
v 1.6000 -0.8000 -0.7000
v 2.0000 -3.0000 0.7000
v 1.6000 -6.4000 0.7000
v 1.6000 -6.4000 -0.7000
v 2.0000 -3.0000 -0.7000
v 1.6000 -6.4000 0.7000
v -1.0000 -6.6000 0.7000
v -1.0000 -6.6000 -0.7000
v 1.6000 -6.4000 -0.7000
v -1.0000 -6.6000 0.7000
v -2.4000 -3.4000 0.7000
v -2.4000 -3.4000 -0.7000
v -1.0000 -6.6000 -0.7000
v -2.4000 -3.4000 0.7000
v -1.4000 -0.8000 0.7000
v -1.4000 -0.8000 -0.7000
v -2.4000 -3.4000 -0.7000
v 3.6000 -1.0000 0.7800
v 7.4000 -1.0000 0.7800
v 9.6000 -4.6000 0.7800
v 11.0000 -8.6000 0.7800
v 8.6000 -9.4000 0.7800
v 5.8000 -6.0000 0.7800
v 3.4000 -2.8000 0.7800
v 3.6000 -1.0000 -0.7800
v 7.4000 -1.0000 -0.7800
v 9.6000 -4.6000 -0.7800
v 11.0000 -8.6000 -0.7800
v 8.6000 -9.4000 -0.7800
v 5.8000 -6.0000 -0.7800
v 3.4000 -2.8000 -0.7800
v 3.6000 -1.0000 0.7800
v 7.4000 -1.0000 0.7800
v 7.4000 -1.0000 -0.7800
v 3.6000 -1.0000 -0.7800
v 7.4000 -1.0000 0.7800
v 9.6000 -4.6000 0.7800
v 9.6000 -4.6000 -0.7800
v 7.4000 -1.0000 -0.7800
v 9.6000 -4.6000 0.7800
v 11.0000 -8.6000 0.7800
v 11.0000 -8.6000 -0.7800
v 9.6000 -4.6000 -0.7800
v 11.0000 -8.6000 0.7800
v 8.6000 -9.4000 0.7800
v 8.6000 -9.4000 -0.7800
v 11.0000 -8.6000 -0.7800
v 8.6000 -9.4000 0.7800
v 5.8000 -6.0000 0.7800
v 5.8000 -6.0000 -0.7800
v 8.6000 -9.4000 -0.7800
v 5.8000 -6.0000 0.7800
v 3.4000 -2.8000 0.7800
v 3.4000 -2.8000 -0.7800
v 5.8000 -6.0000 -0.7800
v 3.4000 -2.8000 0.7800
v 3.6000 -1.0000 0.7800
v 3.6000 -1.0000 -0.7800
v 3.4000 -2.8000 -0.7800
v 11.0000 1.8000 0.8200
v 21.0000 1.8000 0.8200
v 21.4000 1.2000 0.8200
v 21.4000 -1.2000 0.8200
v 20.4000 -2.0000 0.8200
v 11.0000 -2.0000 0.8200
v 11.0000 1.8000 -0.8200
v 21.0000 1.8000 -0.8200
v 21.4000 1.2000 -0.8200
v 21.4000 -1.2000 -0.8200
v 20.4000 -2.0000 -0.8200
v 11.0000 -2.0000 -0.8200
v 11.0000 1.8000 0.8200
v 21.0000 1.8000 0.8200
v 21.0000 1.8000 -0.8200
v 11.0000 1.8000 -0.8200
v 21.0000 1.8000 0.8200
v 21.4000 1.2000 0.8200
v 21.4000 1.2000 -0.8200
v 21.0000 1.8000 -0.8200
v 21.4000 1.2000 0.8200
v 21.4000 -1.2000 0.8200
v 21.4000 -1.2000 -0.8200
v 21.4000 1.2000 -0.8200
v 21.4000 -1.2000 0.8200
v 20.4000 -2.0000 0.8200
v 20.4000 -2.0000 -0.8200
v 21.4000 -1.2000 -0.8200
v 20.4000 -2.0000 0.8200
v 11.0000 -2.0000 0.8200
v 11.0000 -2.0000 -0.8200
v 20.4000 -2.0000 -0.8200
v 11.0000 -2.0000 0.8200
v 11.0000 1.8000 0.8200
v 11.0000 1.8000 -0.8200
v 11.0000 -2.0000 -0.8200
v 11.0000 3.2000 0.7000
v 22.0000 3.2000 0.7000
v 22.2000 2.6000 0.7000
v 22.2000 1.8000 0.7000
v 11.0000 1.8000 0.7000
v 11.0000 3.2000 -0.7000
v 22.0000 3.2000 -0.7000
v 22.2000 2.6000 -0.7000
v 22.2000 1.8000 -0.7000
v 11.0000 1.8000 -0.7000
v 11.0000 3.2000 0.7000
v 22.0000 3.2000 0.7000
v 22.0000 3.2000 -0.7000
v 11.0000 3.2000 -0.7000
v 22.0000 3.2000 0.7000
v 22.2000 2.6000 0.7000
v 22.2000 2.6000 -0.7000
v 22.0000 3.2000 -0.7000
v 22.2000 2.6000 0.7000
v 22.2000 1.8000 0.7000
v 22.2000 1.8000 -0.7000
v 22.2000 2.6000 -0.7000
v 22.2000 1.8000 0.7000
v 11.0000 1.8000 0.7000
v 11.0000 1.8000 -0.7000
v 22.2000 1.8000 -0.7000
v 11.0000 1.8000 0.7000
v 11.0000 3.2000 0.7000
v 11.0000 3.2000 -0.7000
v 11.0000 1.8000 -0.7000
v 11.0000 3.7000 0.5000
v 11.0000 3.4061 0.4045
v 11.0000 3.2245 0.1545
v 11.0000 3.2245 -0.1545
v 11.0000 3.4061 -0.4045
v 11.0000 3.7000 -0.5000
v 11.0000 3.9939 -0.4045
v 11.0000 4.1755 -0.1545
v 11.0000 4.1755 0.1545
v 11.0000 3.9939 0.4045
v 26.4000 3.7000 0.5000
v 26.4000 3.4061 0.4045
v 26.4000 3.2245 0.1545
v 26.4000 3.2245 -0.1545
v 26.4000 3.4061 -0.4045
v 26.4000 3.7000 -0.5000
v 26.4000 3.9939 -0.4045
v 26.4000 4.1755 -0.1545
v 26.4000 4.1755 0.1545
v 26.4000 3.9939 0.4045
v 25.8000 4.2000 0.5500
v 28.4000 4.2000 0.5500
v 28.4000 2.0000 0.5500
v 27.8000 0.6000 0.5500
v 25.8000 0.6000 0.5500
v 25.8000 4.2000 -0.5500
v 28.4000 4.2000 -0.5500
v 28.4000 2.0000 -0.5500
v 27.8000 0.6000 -0.5500
v 25.8000 0.6000 -0.5500
v 25.8000 4.2000 0.5500
v 28.4000 4.2000 0.5500
v 28.4000 4.2000 -0.5500
v 25.8000 4.2000 -0.5500
v 28.4000 4.2000 0.5500
v 28.4000 2.0000 0.5500
v 28.4000 2.0000 -0.5500
v 28.4000 4.2000 -0.5500
v 28.4000 2.0000 0.5500
v 27.8000 0.6000 0.5500
v 27.8000 0.6000 -0.5500
v 28.4000 2.0000 -0.5500
v 27.8000 0.6000 0.5500
v 25.8000 0.6000 0.5500
v 25.8000 0.6000 -0.5500
v 27.8000 0.6000 -0.5500
v 25.8000 0.6000 0.5500
v 25.8000 4.2000 0.5500
v 25.8000 4.2000 -0.5500
v 25.8000 0.6000 -0.5500
v 20.6000 1.4000 0.4400
v 20.6000 1.1414 0.3560
v 20.6000 0.9815 0.1360
v 20.6000 0.9815 -0.1360
v 20.6000 1.1414 -0.3560
v 20.6000 1.4000 -0.4400
v 20.6000 1.6586 -0.3560
v 20.6000 1.8185 -0.1360
v 20.6000 1.8185 0.1360
v 20.6000 1.6586 0.3560
v 32.4000 1.4000 0.4400
v 32.4000 1.1414 0.3560
v 32.4000 0.9815 0.1360
v 32.4000 0.9815 -0.1360
v 32.4000 1.1414 -0.3560
v 32.4000 1.4000 -0.4400
v 32.4000 1.6586 -0.3560
v 32.4000 1.8185 -0.1360
v 32.4000 1.8185 0.1360
v 32.4000 1.6586 0.3560
v 31.4000 1.4000 0.6200
v 31.4000 0.9616 0.4384
v 31.4000 0.7800 0.0000
v 31.4000 0.9616 -0.4384
v 31.4000 1.4000 -0.6200
v 31.4000 1.8384 -0.4384
v 31.4000 2.0200 -0.0000
v 31.4000 1.8384 0.4384
v 34.4000 1.4000 0.6200
v 34.4000 0.9616 0.4384
v 34.4000 0.7800 0.0000
v 34.4000 0.9616 -0.4384
v 34.4000 1.4000 -0.6200
v 34.4000 1.8384 -0.4384
v 34.4000 2.0200 -0.0000
v 34.4000 1.8384 0.4384
vt 0.003393 0.925333
vt 0.076447 0.925333
vt 0.081238 0.905333
vt 0.089621 0.905333
vt 0.089621 0.729333
vt 0.003393 0.729333
vt 0.097206 0.925333
vt 0.170259 0.925333
vt 0.175050 0.905333
vt 0.183433 0.905333
vt 0.183433 0.729333
vt 0.097206 0.729333
vt 0.188623 0.993333
vt 0.188623 0.913333
vt 0.262475 0.913333
vt 0.262475 0.993333
vt 0.264471 0.993333
vt 0.264471 0.913333
vt 0.270459 0.913333
vt 0.270459 0.993333
vt 0.272455 0.993333
vt 0.272455 0.913333
vt 0.282435 0.913333
vt 0.282435 0.993333
vt 0.284431 0.993333
vt 0.284431 0.913333
vt 0.312375 0.913333
vt 0.312375 0.993333
vt 0.314371 0.993333
vt 0.314371 0.913333
vt 0.402196 0.913333
vt 0.402196 0.993333
vt 0.404192 0.993333
vt 0.404192 0.913333
vt 0.434132 0.913333
vt 0.434132 0.993333
vt 0.438523 0.985333
vt 0.464870 0.985333
vt 0.464870 0.953333
vt 0.457685 0.889333
vt 0.440918 0.885333
vt 0.438523 0.921333
vt 0.472455 0.985333
vt 0.498802 0.985333
vt 0.498802 0.953333
vt 0.491617 0.889333
vt 0.474850 0.885333
vt 0.472455 0.921333
vt 0.503992 0.993333
vt 0.503992 0.953333
vt 0.531936 0.953333
vt 0.531936 0.993333
vt 0.533932 0.993333
vt 0.533932 0.953333
vt 0.539920 0.953333
vt 0.539920 0.993333
vt 0.541916 0.993333
vt 0.541916 0.953333
vt 0.553892 0.953333
vt 0.553892 0.993333
vt 0.555888 0.993333
vt 0.555888 0.953333
vt 0.573852 0.953333
vt 0.573852 0.993333
vt 0.575848 0.993333
vt 0.575848 0.953333
vt 0.581836 0.953333
vt 0.581836 0.993333
vt 0.583832 0.993333
vt 0.583832 0.953333
vt 0.593812 0.953333
vt 0.593812 0.993333
vt 0.671257 0.965333
vt 0.641317 0.973333
vt 0.617365 0.953333
vt 0.599401 0.921333
vt 0.598204 0.649333
vt 0.623353 0.681333
vt 0.650898 0.761333
vt 0.671257 0.777333
vt 0.751098 0.965333
vt 0.721158 0.973333
vt 0.697206 0.953333
vt 0.679242 0.921333
vt 0.678044 0.649333
vt 0.703194 0.681333
vt 0.730739 0.761333
vt 0.751098 0.777333
vt 0.755489 0.993333
vt 0.755489 0.926667
vt 0.777445 0.926667
vt 0.777445 0.993333
vt 0.779441 0.993333
vt 0.779441 0.926667
vt 0.811377 0.926667
vt 0.811377 0.993333
vt 0.813373 0.993333
vt 0.813373 0.926667
vt 0.839321 0.926667
vt 0.839321 0.993333
vt 0.841317 0.993333
vt 0.841317 0.926667
vt 0.883234 0.926667
vt 0.883234 0.993333
vt 0.885230 0.993333
vt 0.885230 0.926667
vt 0.905190 0.926667
vt 0.905190 0.993333
vt 0.907186 0.993333
vt 0.907186 0.926667
vt 0.933134 0.926667
vt 0.933134 0.993333
vt 0.935130 0.993333
vt 0.935130 0.926667
vt 0.967066 0.926667
vt 0.967066 0.993333
vt 0.969062 0.993333
vt 0.969062 0.926667
vt 0.999002 0.926667
vt 0.999002 0.993333
vt 0.011776 0.590667
vt 0.029741 0.590667
vt 0.032136 0.502667
vt 0.029741 0.366667
vt 0.014172 0.358667
vt 0.005788 0.486667
vt 0.049701 0.590667
vt 0.067665 0.590667
vt 0.070060 0.502667
vt 0.067665 0.366667
vt 0.052096 0.358667
vt 0.043713 0.486667
vt 0.076846 0.606667
vt 0.076846 0.540000
vt 0.094810 0.540000
vt 0.094810 0.606667
vt 0.096806 0.606667
vt 0.096806 0.540000
vt 0.110778 0.540000
vt 0.110778 0.606667
vt 0.112774 0.606667
vt 0.112774 0.540000
vt 0.134731 0.540000
vt 0.134731 0.606667
vt 0.136727 0.606667
vt 0.136727 0.540000
vt 0.152695 0.540000
vt 0.152695 0.606667
vt 0.154691 0.606667
vt 0.154691 0.540000
vt 0.176647 0.540000
vt 0.176647 0.606667
vt 0.178643 0.606667
vt 0.178643 0.540000
vt 0.196607 0.540000
vt 0.196607 0.606667
vt 0.205788 0.582667
vt 0.228543 0.582667
vt 0.241717 0.438667
vt 0.250100 0.278667
vt 0.235729 0.246667
vt 0.218962 0.382667
vt 0.204591 0.510667
vt 0.265669 0.582667
vt 0.288423 0.582667
vt 0.301597 0.438667
vt 0.309980 0.278667
vt 0.295609 0.246667
vt 0.278842 0.382667
vt 0.264471 0.510667
vt 0.318363 0.606667
vt 0.318363 0.540000
vt 0.342315 0.540000
vt 0.342315 0.606667
vt 0.344311 0.606667
vt 0.344311 0.540000
vt 0.370259 0.540000
vt 0.370259 0.606667
vt 0.372255 0.606667
vt 0.372255 0.540000
vt 0.398204 0.540000
vt 0.398204 0.606667
vt 0.400200 0.606667
vt 0.400200 0.540000
vt 0.416168 0.540000
vt 0.416168 0.606667
vt 0.418164 0.606667
vt 0.418164 0.540000
vt 0.446108 0.540000
vt 0.446108 0.606667
vt 0.448104 0.606667
vt 0.448104 0.540000
vt 0.472056 0.540000
vt 0.472056 0.606667
vt 0.474052 0.606667
vt 0.474052 0.540000
vt 0.486028 0.540000
vt 0.486028 0.606667
vt 0.490419 0.542667
vt 0.550299 0.542667
vt 0.552695 0.518667
vt 0.552695 0.422667
vt 0.546707 0.390667
vt 0.490419 0.390667
vt 0.564271 0.542667
vt 0.624152 0.542667
vt 0.626547 0.518667
vt 0.626547 0.422667
vt 0.620559 0.390667
vt 0.564271 0.390667
vt 0.635729 0.606667
vt 0.635729 0.540000
vt 0.695609 0.540000
vt 0.695609 0.606667
vt 0.697605 0.606667
vt 0.697605 0.540000
vt 0.703593 0.540000
vt 0.703593 0.606667
vt 0.705589 0.606667
vt 0.705589 0.540000
vt 0.721557 0.540000
vt 0.721557 0.606667
vt 0.723553 0.606667
vt 0.723553 0.540000
vt 0.731537 0.540000
vt 0.731537 0.606667
vt 0.733533 0.606667
vt 0.733533 0.540000
vt 0.791417 0.540000
vt 0.791417 0.606667
vt 0.793413 0.606667
vt 0.793413 0.540000
vt 0.817365 0.540000
vt 0.817365 0.606667
vt 0.821756 0.566667
vt 0.887625 0.566667
vt 0.888822 0.542667
vt 0.888822 0.510667
vt 0.821756 0.510667
vt 0.895609 0.566667
vt 0.961477 0.566667
vt 0.962675 0.542667
vt 0.962675 0.510667
vt 0.895609 0.510667
vt 0.000998 0.206667
vt 0.000998 0.140000
vt 0.066866 0.140000
vt 0.066866 0.206667
vt 0.068862 0.206667
vt 0.068862 0.140000
vt 0.072854 0.140000
vt 0.072854 0.206667
vt 0.074850 0.206667
vt 0.074850 0.140000
vt 0.080838 0.140000
vt 0.080838 0.206667
vt 0.082834 0.206667
vt 0.082834 0.140000
vt 0.150699 0.140000
vt 0.150699 0.206667
vt 0.152695 0.206667
vt 0.152695 0.140000
vt 0.162675 0.140000
vt 0.162675 0.206667
vt 0.164671 0.206667
vt 0.258483 0.206667
vt 0.258483 0.193333
vt 0.164671 0.193333
vt 0.164671 0.193333
vt 0.258483 0.193333
vt 0.258483 0.180000
vt 0.164671 0.180000
vt 0.164671 0.180000
vt 0.258483 0.180000
vt 0.258483 0.166667
vt 0.164671 0.166667
vt 0.164671 0.166667
vt 0.258483 0.166667
vt 0.258483 0.153333
vt 0.164671 0.153333
vt 0.164671 0.153333
vt 0.258483 0.153333
vt 0.258483 0.140000
vt 0.164671 0.140000
vt 0.164671 0.140000
vt 0.258483 0.140000
vt 0.258483 0.126667
vt 0.164671 0.126667
vt 0.164671 0.126667
vt 0.258483 0.126667
vt 0.258483 0.113333
vt 0.164671 0.113333
vt 0.164671 0.113333
vt 0.258483 0.113333
vt 0.258483 0.100000
vt 0.164671 0.100000
vt 0.164671 0.100000
vt 0.258483 0.100000
vt 0.258483 0.086667
vt 0.164671 0.086667
vt 0.164671 0.086667
vt 0.258483 0.086667
vt 0.258483 0.073333
vt 0.164671 0.073333
vt 0.266467 0.186667
vt 0.265895 0.174911
vt 0.264398 0.167646
vt 0.262548 0.167646
vt 0.261051 0.174911
vt 0.260479 0.186667
vt 0.261051 0.198422
vt 0.262548 0.205688
vt 0.264398 0.205688
vt 0.265895 0.198422
vt 0.274451 0.186667
vt 0.273879 0.174911
vt 0.272382 0.167646
vt 0.270532 0.167646
vt 0.269035 0.174911
vt 0.268463 0.186667
vt 0.269035 0.198422
vt 0.270532 0.205688
vt 0.272382 0.205688
vt 0.273879 0.198422
vt 0.277645 0.150667
vt 0.293214 0.150667
vt 0.293214 0.062667
vt 0.289621 0.006667
vt 0.277645 0.006667
vt 0.315569 0.150667
vt 0.331138 0.150667
vt 0.331138 0.062667
vt 0.327545 0.006667
vt 0.315569 0.006667
vt 0.352295 0.206667
vt 0.352295 0.153333
vt 0.368263 0.153333
vt 0.368263 0.206667
vt 0.370259 0.206667
vt 0.370259 0.153333
vt 0.384232 0.153333
vt 0.384232 0.206667
vt 0.386228 0.206667
vt 0.386228 0.153333
vt 0.396208 0.153333
vt 0.396208 0.206667
vt 0.398204 0.206667
vt 0.398204 0.153333
vt 0.410180 0.153333
vt 0.410180 0.206667
vt 0.412176 0.206667
vt 0.412176 0.153333
vt 0.434132 0.153333
vt 0.434132 0.206667
vt 0.436128 0.206667
vt 0.507984 0.206667
vt 0.507984 0.194667
vt 0.436128 0.194667
vt 0.436128 0.194667
vt 0.507984 0.194667
vt 0.507984 0.182667
vt 0.436128 0.182667
vt 0.436128 0.182667
vt 0.507984 0.182667
vt 0.507984 0.170667
vt 0.436128 0.170667
vt 0.436128 0.170667
vt 0.507984 0.170667
vt 0.507984 0.158667
vt 0.436128 0.158667
vt 0.436128 0.158667
vt 0.507984 0.158667
vt 0.507984 0.146667
vt 0.436128 0.146667
vt 0.436128 0.146667
vt 0.507984 0.146667
vt 0.507984 0.134667
vt 0.436128 0.134667
vt 0.436128 0.134667
vt 0.507984 0.134667
vt 0.507984 0.122667
vt 0.436128 0.122667
vt 0.436128 0.122667
vt 0.507984 0.122667
vt 0.507984 0.110667
vt 0.436128 0.110667
vt 0.436128 0.110667
vt 0.507984 0.110667
vt 0.507984 0.098667
vt 0.436128 0.098667
vt 0.436128 0.098667
vt 0.507984 0.098667
vt 0.507984 0.086667
vt 0.436128 0.086667
vt 0.515968 0.186667
vt 0.515396 0.174911
vt 0.513899 0.167646
vt 0.512049 0.167646
vt 0.510552 0.174911
vt 0.509980 0.186667
vt 0.510552 0.198422
vt 0.512049 0.205688
vt 0.513899 0.205688
vt 0.515396 0.198422
vt 0.523952 0.186667
vt 0.523380 0.174911
vt 0.521883 0.167646
vt 0.520033 0.167646
vt 0.518536 0.174911
vt 0.517964 0.186667
vt 0.518536 0.198422
vt 0.520033 0.205688
vt 0.521883 0.205688
vt 0.523380 0.198422
vt 0.525948 0.206667
vt 0.543912 0.206667
vt 0.543912 0.186667
vt 0.525948 0.186667
vt 0.525948 0.186667
vt 0.543912 0.186667
vt 0.543912 0.166667
vt 0.525948 0.166667
vt 0.525948 0.166667
vt 0.543912 0.166667
vt 0.543912 0.146667
vt 0.525948 0.146667
vt 0.525948 0.146667
vt 0.543912 0.146667
vt 0.543912 0.126667
vt 0.525948 0.126667
vt 0.525948 0.126667
vt 0.543912 0.126667
vt 0.543912 0.106667
vt 0.525948 0.106667
vt 0.525948 0.106667
vt 0.543912 0.106667
vt 0.543912 0.086667
vt 0.525948 0.086667
vt 0.525948 0.086667
vt 0.543912 0.086667
vt 0.543912 0.066667
vt 0.525948 0.066667
vt 0.525948 0.066667
vt 0.543912 0.066667
vt 0.543912 0.046667
vt 0.525948 0.046667
vt 0.553892 0.180000
vt 0.552723 0.161144
vt 0.549900 0.153333
vt 0.547077 0.161144
vt 0.545908 0.180000
vt 0.547077 0.198856
vt 0.549900 0.206667
vt 0.552723 0.198856
vt 0.563872 0.180000
vt 0.562703 0.161144
vt 0.559880 0.153333
vt 0.557057 0.161144
vt 0.555888 0.180000
vt 0.557057 0.198856
vt 0.559880 0.206667
vt 0.562703 0.198856
f 6/6 1/1 2/2
f 6/6 2/2 3/3
f 6/6 3/3 4/4
f 4/4 5/5 6/6
f 8/8 7/7 12/12
f 9/9 8/8 12/12
f 10/10 9/9 12/12
f 12/12 11/11 10/10
f 13/13 16/14 15/15 14/16
f 17/17 20/18 19/19 18/20
f 21/21 24/22 23/23 22/24
f 25/25 28/26 27/27 26/28
f 29/29 32/30 31/31 30/32
f 33/33 36/34 35/35 34/36
f 42/42 37/37 38/38
f 42/42 38/38 39/39
f 42/42 39/39 40/40
f 40/40 41/41 42/42
f 44/44 43/43 48/48
f 45/45 44/44 48/48
f 46/46 45/45 48/48
f 48/48 47/47 46/46
f 49/49 52/50 51/51 50/52
f 53/53 56/54 55/55 54/56
f 57/57 60/58 59/59 58/60
f 61/61 64/62 63/63 62/64
f 65/65 68/66 67/67 66/68
f 69/69 72/70 71/71 70/72
f 73/73 80/80 79/79
f 73/73 79/79 78/78
f 73/73 78/78 77/77
f 73/73 77/77 76/76
f 73/73 76/76 75/75
f 75/75 74/74 73/73
f 87/87 88/88 81/81
f 86/86 87/87 81/81
f 85/85 86/86 81/81
f 84/84 85/85 81/81
f 83/83 84/84 81/81
f 81/81 82/82 83/83
f 89/89 92/90 91/91 90/92
f 93/93 96/94 95/95 94/96
f 97/97 100/98 99/99 98/100
f 101/101 104/102 103/103 102/104
f 105/105 108/106 107/107 106/108
f 109/109 112/110 111/111 110/112
f 113/113 116/114 115/115 114/116
f 117/117 120/118 119/119 118/120
f 126/126 121/121 122/122
f 126/126 122/122 123/123
f 126/126 123/123 124/124
f 124/124 125/125 126/126
f 128/128 127/127 132/132
f 129/129 128/128 132/132
f 130/130 129/129 132/132
f 132/132 131/131 130/130
f 133/133 136/134 135/135 134/136
f 137/137 140/138 139/139 138/140
f 141/141 144/142 143/143 142/144
f 145/145 148/146 147/147 146/148
f 149/149 152/150 151/151 150/152
f 153/153 156/154 155/155 154/156
f 163/163 157/157 158/158
f 163/163 158/158 159/159
f 163/163 159/159 160/160
f 163/163 160/160 161/161
f 161/161 162/162 163/163
f 165/165 164/164 170/170
f 166/166 165/165 170/170
f 167/167 166/166 170/170
f 168/168 167/167 170/170
f 170/170 169/169 168/168
f 171/171 174/172 173/173 172/174
f 175/175 178/176 177/177 176/178
f 179/179 182/180 181/181 180/182
f 183/183 186/184 185/185 184/186
f 187/187 190/188 189/189 188/190
f 191/191 194/192 193/193 192/194
f 195/195 198/196 197/197 196/198
f 204/204 199/199 200/200
f 204/204 200/200 201/201
f 204/204 201/201 202/202
f 202/202 203/203 204/204
f 206/206 205/205 210/210
f 207/207 206/206 210/210
f 208/208 207/207 210/210
f 210/210 209/209 208/208
f 211/211 214/212 213/213 212/214
f 215/215 218/216 217/217 216/218
f 219/219 222/220 221/221 220/222
f 223/223 226/224 225/225 224/226
f 227/227 230/228 229/229 228/230
f 231/231 234/232 233/233 232/234
f 239/239 235/235 236/236
f 239/239 236/236 237/237
f 237/237 238/238 239/239
f 241/241 240/240 244/244
f 242/242 241/241 244/244
f 244/244 243/243 242/242
f 245/245 248/246 247/247 246/248
f 249/249 252/250 251/251 250/252
f 253/253 256/254 255/255 254/256
f 257/257 260/258 259/259 258/260
f 261/261 264/262 263/263 262/264
f 265/265 275/266 276/267 266/268
f 266/269 276/270 277/271 267/272
f 267/273 277/274 278/275 268/276
f 268/277 278/278 279/279 269/280
f 269/281 279/282 280/283 270/284
f 270/285 280/286 281/287 271/288
f 271/289 281/290 282/291 272/292
f 272/293 282/294 283/295 273/296
f 273/297 283/298 284/299 274/300
f 274/301 284/302 275/303 265/304
f 267/307 266/306 265/305
f 268/308 267/307 265/305
f 269/309 268/308 265/305
f 270/310 269/309 265/305
f 271/311 270/310 265/305
f 272/312 271/311 265/305
f 273/313 272/312 265/305
f 274/314 273/313 265/305
f 275/315 276/316 277/317
f 275/315 277/317 278/318
f 275/315 278/318 279/319
f 275/315 279/319 280/320
f 275/315 280/320 281/321
f 275/315 281/321 282/322
f 275/315 282/322 283/323
f 275/315 283/323 284/324
f 289/329 285/325 286/326
f 289/329 286/326 287/327
f 287/327 288/328 289/329
f 291/331 290/330 294/334
f 292/332 291/331 294/334
f 294/334 293/333 292/332
f 295/335 298/336 297/337 296/338
f 299/339 302/340 301/341 300/342
f 303/343 306/344 305/345 304/346
f 307/347 310/348 309/349 308/350
f 311/351 314/352 313/353 312/354
f 315/355 325/356 326/357 316/358
f 316/359 326/360 327/361 317/362
f 317/363 327/364 328/365 318/366
f 318/367 328/368 329/369 319/370
f 319/371 329/372 330/373 320/374
f 320/375 330/376 331/377 321/378
f 321/379 331/380 332/381 322/382
f 322/383 332/384 333/385 323/386
f 323/387 333/388 334/389 324/390
f 324/391 334/392 325/393 315/394
f 317/397 316/396 315/395
f 318/398 317/397 315/395
f 319/399 318/398 315/395
f 320/400 319/399 315/395
f 321/401 320/400 315/395
f 322/402 321/401 315/395
f 323/403 322/402 315/395
f 324/404 323/403 315/395
f 325/405 326/406 327/407
f 325/405 327/407 328/408
f 325/405 328/408 329/409
f 325/405 329/409 330/410
f 325/405 330/410 331/411
f 325/405 331/411 332/412
f 325/405 332/412 333/413
f 325/405 333/413 334/414
f 335/415 343/416 344/417 336/418
f 336/419 344/420 345/421 337/422
f 337/423 345/424 346/425 338/426
f 338/427 346/428 347/429 339/430
f 339/431 347/432 348/433 340/434
f 340/435 348/436 349/437 341/438
f 341/439 349/440 350/441 342/442
f 342/443 350/444 343/445 335/446
f 337/449 336/448 335/447
f 338/450 337/449 335/447
f 339/451 338/450 335/447
f 340/452 339/451 335/447
f 341/453 340/452 335/447
f 342/454 341/453 335/447
f 343/455 344/456 345/457
f 343/455 345/457 346/458
f 343/455 346/458 347/459
f 343/455 347/459 348/460
f 343/455 348/460 349/461
f 343/455 349/461 350/462
