mtllib ak47_fp_model.mtl
usemtl gun
v -3.2000 3.9000 0.9500
v 9.0000 3.9000 0.9500
v 9.8000 3.4000 0.9500
v 11.2000 3.4000 0.9500
v 11.2000 -1.0000 0.9500
v -3.2000 -1.0000 0.9500
v -3.2000 3.9000 -0.9500
v 9.0000 3.9000 -0.9500
v 9.8000 3.4000 -0.9500
v 11.2000 3.4000 -0.9500
v 11.2000 -1.0000 -0.9500
v -3.2000 -1.0000 -0.9500
v -3.2000 3.9000 0.9500
v 9.0000 3.9000 0.9500
v 9.0000 3.9000 -0.9500
v -3.2000 3.9000 -0.9500
v 9.0000 3.9000 0.9500
v 9.8000 3.4000 0.9500
v 9.8000 3.4000 -0.9500
v 9.0000 3.9000 -0.9500
v 9.8000 3.4000 0.9500
v 11.2000 3.4000 0.9500
v 11.2000 3.4000 -0.9500
v 9.8000 3.4000 -0.9500
v 11.2000 3.4000 0.9500
v 11.2000 -1.0000 0.9500
v 11.2000 -1.0000 -0.9500
v 11.2000 3.4000 -0.9500
v 11.2000 -1.0000 0.9500
v -3.2000 -1.0000 0.9500
v -3.2000 -1.0000 -0.9500
v 11.2000 -1.0000 -0.9500
v -3.2000 -1.0000 0.9500
v -3.2000 3.9000 0.9500
v -3.2000 3.9000 -0.9500
v -3.2000 -1.0000 -0.9500
v -0.6000 -0.6000 0.5000
v 3.8000 -0.6000 0.5000
v 3.8000 -1.4000 0.5000
v 2.6000 -3.0000 0.5000
v -0.2000 -3.1000 0.5000
v -0.6000 -2.2000 0.5000
v -0.6000 -0.6000 -0.5000
v 3.8000 -0.6000 -0.5000
v 3.8000 -1.4000 -0.5000
v 2.6000 -3.0000 -0.5000
v -0.2000 -3.1000 -0.5000
v -0.6000 -2.2000 -0.5000
v -0.6000 -0.6000 0.5000
v 3.8000 -0.6000 0.5000
v 3.8000 -0.6000 -0.5000
v -0.6000 -0.6000 -0.5000
v 3.8000 -0.6000 0.5000
v 3.8000 -1.4000 0.5000
v 3.8000 -1.4000 -0.5000
v 3.8000 -0.6000 -0.5000
v 3.8000 -1.4000 0.5000
v 2.6000 -3.0000 0.5000
v 2.6000 -3.0000 -0.5000
v 3.8000 -1.4000 -0.5000
v 2.6000 -3.0000 0.5000
v -0.2000 -3.1000 0.5000
v -0.2000 -3.1000 -0.5000
v 2.6000 -3.0000 -0.5000
v -0.2000 -3.1000 0.5000
v -0.6000 -2.2000 0.5000
v -0.6000 -2.2000 -0.5000
v -0.2000 -3.1000 -0.5000
v -0.6000 -2.2000 0.5000
v -0.6000 -0.6000 0.5000
v -0.6000 -0.6000 -0.5000
v -0.6000 -2.2000 -0.5000
v -3.0000 3.5000 0.8000
v -8.0000 3.7000 0.8000
v -12.0000 3.2000 0.8000
v -15.0000 2.4000 0.8000
v -15.2000 -4.4000 0.8000
v -11.0000 -3.6000 0.8000
v -6.4000 -1.6000 0.8000
v -3.0000 -1.2000 0.8000
v -3.0000 3.5000 -0.8000
v -8.0000 3.7000 -0.8000
v -12.0000 3.2000 -0.8000
v -15.0000 2.4000 -0.8000
v -15.2000 -4.4000 -0.8000
v -11.0000 -3.6000 -0.8000
v -6.4000 -1.6000 -0.8000
v -3.0000 -1.2000 -0.8000
v -3.0000 -1.2000 0.8000
v -6.4000 -1.6000 0.8000
v -6.4000 -1.6000 -0.8000
v -3.0000 -1.2000 -0.8000
v -6.4000 -1.6000 0.8000
v -11.0000 -3.6000 0.8000
v -11.0000 -3.6000 -0.8000
v -6.4000 -1.6000 -0.8000
v -11.0000 -3.6000 0.8000
v -15.2000 -4.4000 0.8000
v -15.2000 -4.4000 -0.8000
v -11.0000 -3.6000 -0.8000
v -15.2000 -4.4000 0.8000
v -15.0000 2.4000 0.8000
v -15.0000 2.4000 -0.8000
v -15.2000 -4.4000 -0.8000
v -15.0000 2.4000 0.8000
v -12.0000 3.2000 0.8000
v -12.0000 3.2000 -0.8000
v -15.0000 2.4000 -0.8000
v -12.0000 3.2000 0.8000
v -8.0000 3.7000 0.8000
v -8.0000 3.7000 -0.8000
v -12.0000 3.2000 -0.8000
v -8.0000 3.7000 0.8000
v -3.0000 3.5000 0.8000
v -3.0000 3.5000 -0.8000
v -8.0000 3.7000 -0.8000
v -3.0000 3.5000 0.8000
v -3.0000 -1.2000 0.8000
v -3.0000 -1.2000 -0.8000
v -3.0000 3.5000 -0.8000
v -1.4000 -0.8000 0.7000
v 1.6000 -0.8000 0.7000
v 2.0000 -3.0000 0.7000
v 1.6000 -6.4000 0.7000
v -1.0000 -6.6000 0.7000
v -2.4000 -3.4000 0.7000
v -1.4000 -0.8000 -0.7000
v 1.6000 -0.8000 -0.7000
v 2.0000 -3.0000 -0.7000
v 1.6000 -6.4000 -0.7000
v -1.0000 -6.6000 -0.7000
v -2.4000 -3.4000 -0.7000
v -1.4000 -0.8000 0.7000
v 1.6000 -0.8000 0.7000
v 1.6000 -0.8000 -0.7000
v -1.4000 -0.8000 -0.7000
v 1.6000 -0.8000 0.7000
v 2.0000 -3.0000 0.7000
v 2.0000 -3.0000 -0.7000
v 1.6000 -0.8000 -0.7000
v 2.0000 -3.0000 0.7000
v 1.6000 -6.4000 0.7000
v 1.6000 -6.4000 -0.7000
v 2.0000 -3.0000 -0.7000
v 1.6000 -6.4000 0.7000
v -1.0000 -6.6000 0.7000
v -1.0000 -6.6000 -0.7000
v 1.6000 -6.4000 -0.7000
v -1.0000 -6.6000 0.7000
v -2.4000 -3.4000 0.7000
v -2.4000 -3.4000 -0.7000
v -1.0000 -6.6000 -0.7000
v -2.4000 -3.4000 0.7000
v -1.4000 -0.8000 0.7000
v -1.4000 -0.8000 -0.7000
v -2.4000 -3.4000 -0.7000
v 3.6000 -1.0000 0.7800
v 7.4000 -1.0000 0.7800
v 9.6000 -4.6000 0.7800
v 11.0000 -8.6000 0.7800
v 8.6000 -9.4000 0.7800
v 5.8000 -6.0000 0.7800
v 3.4000 -2.8000 0.7800
v 3.6000 -1.0000 -0.7800
v 7.4000 -1.0000 -0.7800
v 9.6000 -4.6000 -0.7800
v 11.0000 -8.6000 -0.7800
v 8.6000 -9.4000 -0.7800
v 5.8000 -6.0000 -0.7800
v 3.4000 -2.8000 -0.7800
v 3.6000 -1.0000 0.7800
v 7.4000 -1.0000 0.7800
v 7.4000 -1.0000 -0.7800
v 3.6000 -1.0000 -0.7800
v 7.4000 -1.0000 0.7800
v 9.6000 -4.6000 0.7800
v 9.6000 -4.6000 -0.7800
v 7.4000 -1.0000 -0.7800
v 9.6000 -4.6000 0.7800
v 11.0000 -8.6000 0.7800
v 11.0000 -8.6000 -0.7800
v 9.6000 -4.6000 -0.7800
v 11.0000 -8.6000 0.7800
v 8.6000 -9.4000 0.7800
v 8.6000 -9.4000 -0.7800
v 11.0000 -8.6000 -0.7800
v 8.6000 -9.4000 0.7800
v 5.8000 -6.0000 0.7800
v 5.8000 -6.0000 -0.7800
v 8.6000 -9.4000 -0.7800
v 5.8000 -6.0000 0.7800
v 3.4000 -2.8000 0.7800
v 3.4000 -2.8000 -0.7800
v 5.8000 -6.0000 -0.7800
v 3.4000 -2.8000 0.7800
v 3.6000 -1.0000 0.7800
v 3.6000 -1.0000 -0.7800
v 3.4000 -2.8000 -0.7800
v 11.0000 1.8000 0.8200
v 21.0000 1.8000 0.8200
v 21.4000 1.2000 0.8200
v 21.4000 -1.2000 0.8200
v 20.4000 -2.0000 0.8200
v 11.0000 -2.0000 0.8200
v 11.0000 1.8000 -0.8200
v 21.0000 1.8000 -0.8200
v 21.4000 1.2000 -0.8200
v 21.4000 -1.2000 -0.8200
v 20.4000 -2.0000 -0.8200
v 11.0000 -2.0000 -0.8200
v 11.0000 1.8000 0.8200
v 21.0000 1.8000 0.8200
v 21.0000 1.8000 -0.8200
v 11.0000 1.8000 -0.8200
v 21.0000 1.8000 0.8200
v 21.4000 1.2000 0.8200
v 21.4000 1.2000 -0.8200
v 21.0000 1.8000 -0.8200
v 21.4000 1.2000 0.8200
v 21.4000 -1.2000 0.8200
v 21.4000 -1.2000 -0.8200
v 21.4000 1.2000 -0.8200
v 21.4000 -1.2000 0.8200
v 20.4000 -2.0000 0.8200
v 20.4000 -2.0000 -0.8200
v 21.4000 -1.2000 -0.8200
v 20.4000 -2.0000 0.8200
v 11.0000 -2.0000 0.8200
v 11.0000 -2.0000 -0.8200
v 20.4000 -2.0000 -0.8200
v 11.0000 -2.0000 0.8200
v 11.0000 1.8000 0.8200
v 11.0000 1.8000 -0.8200
v 11.0000 -2.0000 -0.8200
v 11.0000 3.2000 0.7000
v 22.0000 3.2000 0.7000
v 22.2000 2.6000 0.7000
v 22.2000 1.8000 0.7000
v 11.0000 1.8000 0.7000
v 11.0000 3.2000 -0.7000
v 22.0000 3.2000 -0.7000
v 22.2000 2.6000 -0.7000
v 22.2000 1.8000 -0.7000
v 11.0000 1.8000 -0.7000
v 11.0000 3.2000 0.7000
v 22.0000 3.2000 0.7000
v 22.0000 3.2000 -0.7000
v 11.0000 3.2000 -0.7000
v 22.0000 3.2000 0.7000
v 22.2000 2.6000 0.7000
v 22.2000 2.6000 -0.7000
v 22.0000 3.2000 -0.7000
v 22.2000 2.6000 0.7000
v 22.2000 1.8000 0.7000
v 22.2000 1.8000 -0.7000
v 22.2000 2.6000 -0.7000
v 22.2000 1.8000 0.7000
v 11.0000 1.8000 0.7000
v 11.0000 1.8000 -0.7000
v 22.2000 1.8000 -0.7000
v 11.0000 1.8000 0.7000
v 11.0000 3.2000 0.7000
v 11.0000 3.2000 -0.7000
v 11.0000 1.8000 -0.7000
v 11.0000 3.7000 0.5000
v 11.0000 3.4061 0.4045
v 11.0000 3.2245 0.1545
v 11.0000 3.2245 -0.1545
v 11.0000 3.4061 -0.4045
v 11.0000 3.7000 -0.5000
v 11.0000 3.9939 -0.4045
v 11.0000 4.1755 -0.1545
v 11.0000 4.1755 0.1545
v 11.0000 3.9939 0.4045
v 26.4000 3.7000 0.5000
v 26.4000 3.4061 0.4045
v 26.4000 3.2245 0.1545
v 26.4000 3.2245 -0.1545
v 26.4000 3.4061 -0.4045
v 26.4000 3.7000 -0.5000
v 26.4000 3.9939 -0.4045
v 26.4000 4.1755 -0.1545
v 26.4000 4.1755 0.1545
v 26.4000 3.9939 0.4045
v 25.8000 4.2000 0.5500
v 28.4000 4.2000 0.5500
v 28.4000 2.0000 0.5500
v 27.8000 0.6000 0.5500
v 25.8000 0.6000 0.5500
v 25.8000 4.2000 -0.5500
v 28.4000 4.2000 -0.5500
v 28.4000 2.0000 -0.5500
v 27.8000 0.6000 -0.5500
v 25.8000 0.6000 -0.5500
v 25.8000 4.2000 0.5500
v 28.4000 4.2000 0.5500
v 28.4000 4.2000 -0.5500
v 25.8000 4.2000 -0.5500
v 28.4000 4.2000 0.5500
v 28.4000 2.0000 0.5500
v 28.4000 2.0000 -0.5500
v 28.4000 4.2000 -0.5500
v 28.4000 2.0000 0.5500
v 27.8000 0.6000 0.5500
v 27.8000 0.6000 -0.5500
v 28.4000 2.0000 -0.5500
v 27.8000 0.6000 0.5500
v 25.8000 0.6000 0.5500
v 25.8000 0.6000 -0.5500
v 27.8000 0.6000 -0.5500
v 25.8000 0.6000 0.5500
v 25.8000 4.2000 0.5500
v 25.8000 4.2000 -0.5500
v 25.8000 0.6000 -0.5500
v 20.6000 1.4000 0.4400
v 20.6000 1.1414 0.3560
v 20.6000 0.9815 0.1360
v 20.6000 0.9815 -0.1360
v 20.6000 1.1414 -0.3560
v 20.6000 1.4000 -0.4400
v 20.6000 1.6586 -0.3560
v 20.6000 1.8185 -0.1360
v 20.6000 1.8185 0.1360
v 20.6000 1.6586 0.3560
v 32.4000 1.4000 0.4400
v 32.4000 1.1414 0.3560
v 32.4000 0.9815 0.1360
v 32.4000 0.9815 -0.1360
v 32.4000 1.1414 -0.3560
v 32.4000 1.4000 -0.4400
v 32.4000 1.6586 -0.3560
v 32.4000 1.8185 -0.1360
v 32.4000 1.8185 0.1360
v 32.4000 1.6586 0.3560
v 31.4000 1.4000 0.6200
v 31.4000 0.9616 0.4384
v 31.4000 0.7800 0.0000
v 31.4000 0.9616 -0.4384
v 31.4000 1.4000 -0.6200
v 31.4000 1.8384 -0.4384
v 31.4000 2.0200 -0.0000
v 31.4000 1.8384 0.4384
v 34.4000 1.4000 0.6200
v 34.4000 0.9616 0.4384
v 34.4000 0.7800 0.0000
v 34.4000 0.9616 -0.4384
v 34.4000 1.4000 -0.6200
v 34.4000 1.8384 -0.4384
v 34.4000 2.0200 -0.0000
v 34.4000 1.8384 0.4384
v -1.9000 -1.2000 0.9500
v 1.7000 -1.2000 0.9500
v 2.2000 -1.8000 0.9500
v 2.2000 -5.1000 0.9500
v 1.4000 -6.0000 0.9500
v -1.6000 -6.0000 0.9500
v -2.4000 -5.1000 0.9500
v -2.4000 -1.8000 0.9500
v -1.9000 -1.2000 -0.9500
v 1.7000 -1.2000 -0.9500
v 2.2000 -1.8000 -0.9500
v 2.2000 -5.1000 -0.9500
v 1.4000 -6.0000 -0.9500
v -1.6000 -6.0000 -0.9500
v -2.4000 -5.1000 -0.9500
v -2.4000 -1.8000 -0.9500
v -1.9000 -1.2000 0.9500
v 1.7000 -1.2000 0.9500
v 1.7000 -1.2000 -0.9500
v -1.9000 -1.2000 -0.9500
v 1.7000 -1.2000 0.9500
v 2.2000 -1.8000 0.9500
v 2.2000 -1.8000 -0.9500
v 1.7000 -1.2000 -0.9500
v 2.2000 -1.8000 0.9500
v 2.2000 -5.1000 0.9500
v 2.2000 -5.1000 -0.9500
v 2.2000 -1.8000 -0.9500
v 2.2000 -5.1000 0.9500
v 1.4000 -6.0000 0.9500
v 1.4000 -6.0000 -0.9500
v 2.2000 -5.1000 -0.9500
v 1.4000 -6.0000 0.9500
v -1.6000 -6.0000 0.9500
v -1.6000 -6.0000 -0.9500
v 1.4000 -6.0000 -0.9500
v -1.6000 -6.0000 0.9500
v -2.4000 -5.1000 0.9500
v -2.4000 -5.1000 -0.9500
v -1.6000 -6.0000 -0.9500
v -2.4000 -5.1000 0.9500
v -2.4000 -1.8000 0.9500
v -2.4000 -1.8000 -0.9500
v -2.4000 -5.1000 -0.9500
v -2.4000 -1.8000 0.9500
v -1.9000 -1.2000 0.9500
v -1.9000 -1.2000 -0.9500
v -2.4000 -1.8000 -0.9500
v -2.0996 -5.6056 1.0500
v 0.0996 -6.7944 1.0500
v -7.3286 -21.9035 1.0500
v -10.6714 -20.0965 1.0500
v -2.0996 -5.6056 -1.0500
v 0.0996 -6.7944 -1.0500
v -7.3286 -21.9035 -1.0500
v -10.6714 -20.0965 -1.0500
v -2.0996 -5.6056 1.0500
v 0.0996 -6.7944 1.0500
v 0.0996 -6.7944 -1.0500
v -2.0996 -5.6056 -1.0500
v 0.0996 -6.7944 1.0500
v -7.3286 -21.9035 1.0500
v -7.3286 -21.9035 -1.0500
v 0.0996 -6.7944 -1.0500
v -7.3286 -21.9035 1.0500
v -10.6714 -20.0965 1.0500
v -10.6714 -20.0965 -1.0500
v -7.3286 -21.9035 -1.0500
v -10.6714 -20.0965 1.0500
v -2.0996 -5.6056 1.0500
v -2.0996 -5.6056 -1.0500
v -10.6714 -20.0965 -1.0500
v 10.5000 -1.3000 0.9500
v 14.7000 -1.3000 0.9500
v 15.2000 -1.9000 0.9500
v 15.2000 -3.8000 0.9500
v 14.4000 -4.7000 0.9500
v 10.8000 -4.7000 0.9500
v 10.0000 -3.8000 0.9500
v 10.0000 -1.9000 0.9500
v 10.5000 -1.3000 -0.9500
v 14.7000 -1.3000 -0.9500
v 15.2000 -1.9000 -0.9500
v 15.2000 -3.8000 -0.9500
v 14.4000 -4.7000 -0.9500
v 10.8000 -4.7000 -0.9500
v 10.0000 -3.8000 -0.9500
v 10.0000 -1.9000 -0.9500
v 10.5000 -1.3000 0.9500
v 14.7000 -1.3000 0.9500
v 14.7000 -1.3000 -0.9500
v 10.5000 -1.3000 -0.9500
v 14.7000 -1.3000 0.9500
v 15.2000 -1.9000 0.9500
v 15.2000 -1.9000 -0.9500
v 14.7000 -1.3000 -0.9500
v 15.2000 -1.9000 0.9500
v 15.2000 -3.8000 0.9500
v 15.2000 -3.8000 -0.9500
v 15.2000 -1.9000 -0.9500
v 15.2000 -3.8000 0.9500
v 14.4000 -4.7000 0.9500
v 14.4000 -4.7000 -0.9500
v 15.2000 -3.8000 -0.9500
v 14.4000 -4.7000 0.9500
v 10.8000 -4.7000 0.9500
v 10.8000 -4.7000 -0.9500
v 14.4000 -4.7000 -0.9500
v 10.8000 -4.7000 0.9500
v 10.0000 -3.8000 0.9500
v 10.0000 -3.8000 -0.9500
v 10.8000 -4.7000 -0.9500
v 10.0000 -3.8000 0.9500
v 10.0000 -1.9000 0.9500
v 10.0000 -1.9000 -0.9500
v 10.0000 -3.8000 -0.9500
v 10.0000 -1.9000 0.9500
v 10.5000 -1.3000 0.9500
v 10.5000 -1.3000 -0.9500
v 10.0000 -1.9000 -0.9500
v 10.5361 -3.7728 1.0500
v 12.4639 -5.0272 1.0500
v 3.5087 -19.9817 1.0500
v 0.4913 -18.0183 1.0500
v 10.5361 -3.7728 -1.0500
v 12.4639 -5.0272 -1.0500
v 3.5087 -19.9817 -1.0500
v 0.4913 -18.0183 -1.0500
v 10.5361 -3.7728 1.0500
v 12.4639 -5.0272 1.0500
v 12.4639 -5.0272 -1.0500
v 10.5361 -3.7728 -1.0500
v 12.4639 -5.0272 1.0500
v 3.5087 -19.9817 1.0500
v 3.5087 -19.9817 -1.0500
v 12.4639 -5.0272 -1.0500
v 3.5087 -19.9817 1.0500
v 0.4913 -18.0183 1.0500
v 0.4913 -18.0183 -1.0500
v 3.5087 -19.9817 -1.0500
v 0.4913 -18.0183 1.0500
v 10.5361 -3.7728 1.0500
v 10.5361 -3.7728 -1.0500
v 0.4913 -18.0183 -1.0500
vt 0.003346 0.965000
vt 0.075394 0.965000
vt 0.080118 0.955625
vt 0.088386 0.955625
vt 0.088386 0.873125
vt 0.003346 0.873125
vt 0.095866 0.965000
vt 0.167913 0.965000
vt 0.172638 0.955625
vt 0.180906 0.955625
vt 0.180906 0.873125
vt 0.095866 0.873125
vt 0.186024 0.996875
vt 0.186024 0.959375
vt 0.258858 0.959375
vt 0.258858 0.996875
vt 0.260827 0.996875
vt 0.260827 0.959375
vt 0.266732 0.959375
vt 0.266732 0.996875
vt 0.268701 0.996875
vt 0.268701 0.959375
vt 0.278543 0.959375
vt 0.278543 0.996875
vt 0.280512 0.996875
vt 0.280512 0.959375
vt 0.308071 0.959375
vt 0.308071 0.996875
vt 0.310039 0.996875
vt 0.310039 0.959375
vt 0.396654 0.959375
vt 0.396654 0.996875
vt 0.398622 0.996875
vt 0.398622 0.959375
vt 0.428150 0.959375
vt 0.428150 0.996875
vt 0.432480 0.993125
vt 0.458465 0.993125
vt 0.458465 0.978125
vt 0.451378 0.948125
vt 0.434843 0.946250
vt 0.432480 0.963125
vt 0.465945 0.993125
vt 0.491929 0.993125
vt 0.491929 0.978125
vt 0.484843 0.948125
vt 0.468307 0.946250
vt 0.465945 0.963125
vt 0.497047 0.996875
vt 0.497047 0.978125
vt 0.524606 0.978125
vt 0.524606 0.996875
vt 0.526575 0.996875
vt 0.526575 0.978125
vt 0.532480 0.978125
vt 0.532480 0.996875
vt 0.534449 0.996875
vt 0.534449 0.978125
vt 0.546260 0.978125
vt 0.546260 0.996875
vt 0.548228 0.996875
vt 0.548228 0.978125
vt 0.565945 0.978125
vt 0.565945 0.996875
vt 0.567913 0.996875
vt 0.567913 0.978125
vt 0.573819 0.978125
vt 0.573819 0.996875
vt 0.575787 0.996875
vt 0.575787 0.978125
vt 0.585630 0.978125
vt 0.585630 0.996875
vt 0.662008 0.983750
vt 0.632480 0.987500
vt 0.608858 0.978125
vt 0.591142 0.963125
vt 0.589961 0.835625
vt 0.614764 0.850625
vt 0.641929 0.888125
vt 0.662008 0.895625
vt 0.740748 0.983750
vt 0.711220 0.987500
vt 0.687598 0.978125
vt 0.669882 0.963125
vt 0.668701 0.835625
vt 0.693504 0.850625
vt 0.720669 0.888125
vt 0.740748 0.895625
vt 0.745079 0.996875
vt 0.745079 0.965625
vt 0.766732 0.965625
vt 0.766732 0.996875
vt 0.768701 0.996875
vt 0.768701 0.965625
vt 0.800197 0.965625
vt 0.800197 0.996875
vt 0.802165 0.996875
vt 0.802165 0.965625
vt 0.827756 0.965625
vt 0.827756 0.996875
vt 0.829724 0.996875
vt 0.829724 0.965625
vt 0.871063 0.965625
vt 0.871063 0.996875
vt 0.873031 0.996875
vt 0.873031 0.965625
vt 0.892717 0.965625
vt 0.892717 0.996875
vt 0.894685 0.996875
vt 0.894685 0.965625
vt 0.920276 0.965625
vt 0.920276 0.996875
vt 0.922244 0.996875
vt 0.922244 0.965625
vt 0.953740 0.965625
vt 0.953740 0.996875
vt 0.955709 0.996875
vt 0.955709 0.965625
vt 0.985236 0.965625
vt 0.985236 0.996875
vt 0.011614 0.808125
vt 0.029331 0.808125
vt 0.031693 0.766875
vt 0.029331 0.703125
vt 0.013976 0.699375
vt 0.005709 0.759375
vt 0.049016 0.808125
vt 0.066732 0.808125
vt 0.069094 0.766875
vt 0.066732 0.703125
vt 0.051378 0.699375
vt 0.043110 0.759375
vt 0.075787 0.815625
vt 0.075787 0.784375
vt 0.093504 0.784375
vt 0.093504 0.815625
vt 0.095472 0.815625
vt 0.095472 0.784375
vt 0.109252 0.784375
vt 0.109252 0.815625
vt 0.111220 0.815625
vt 0.111220 0.784375
vt 0.132874 0.784375
vt 0.132874 0.815625
vt 0.134843 0.815625
vt 0.134843 0.784375
vt 0.150591 0.784375
vt 0.150591 0.815625
vt 0.152559 0.815625
vt 0.152559 0.784375
vt 0.174213 0.784375
vt 0.174213 0.815625
vt 0.176181 0.815625
vt 0.176181 0.784375
vt 0.193898 0.784375
vt 0.193898 0.815625
vt 0.202953 0.804375
vt 0.225394 0.804375
vt 0.238386 0.736875
vt 0.246654 0.661875
vt 0.232480 0.646875
vt 0.215945 0.710625
vt 0.201772 0.770625
vt 0.262008 0.804375
vt 0.284449 0.804375
vt 0.297441 0.736875
vt 0.305709 0.661875
vt 0.291535 0.646875
vt 0.275000 0.710625
vt 0.260827 0.770625
vt 0.313976 0.815625
vt 0.313976 0.784375
vt 0.337598 0.784375
vt 0.337598 0.815625
vt 0.339567 0.815625
vt 0.339567 0.784375
vt 0.365157 0.784375
vt 0.365157 0.815625
vt 0.367126 0.815625
vt 0.367126 0.784375
vt 0.392717 0.784375
vt 0.392717 0.815625
vt 0.394685 0.815625
vt 0.394685 0.784375
vt 0.410433 0.784375
vt 0.410433 0.815625
vt 0.412402 0.815625
vt 0.412402 0.784375
vt 0.439961 0.784375
vt 0.439961 0.815625
vt 0.441929 0.815625
vt 0.441929 0.784375
vt 0.465551 0.784375
vt 0.465551 0.815625
vt 0.467520 0.815625
vt 0.467520 0.784375
vt 0.479331 0.784375
vt 0.479331 0.815625
vt 0.483661 0.785625
vt 0.542717 0.785625
vt 0.545079 0.774375
vt 0.545079 0.729375
vt 0.539173 0.714375
vt 0.483661 0.714375
vt 0.556496 0.785625
vt 0.615551 0.785625
vt 0.617913 0.774375
vt 0.617913 0.729375
vt 0.612008 0.714375
vt 0.556496 0.714375
vt 0.626969 0.815625
vt 0.626969 0.784375
vt 0.686024 0.784375
vt 0.686024 0.815625
vt 0.687992 0.815625
vt 0.687992 0.784375
vt 0.693898 0.784375
vt 0.693898 0.815625
vt 0.695866 0.815625
vt 0.695866 0.784375
vt 0.711614 0.784375
vt 0.711614 0.815625
vt 0.713583 0.815625
vt 0.713583 0.784375
vt 0.721457 0.784375
vt 0.721457 0.815625
vt 0.723425 0.815625
vt 0.723425 0.784375
vt 0.780512 0.784375
vt 0.780512 0.815625
vt 0.782480 0.815625
vt 0.782480 0.784375
vt 0.806102 0.784375
vt 0.806102 0.815625
vt 0.810433 0.796875
vt 0.875394 0.796875
vt 0.876575 0.785625
vt 0.876575 0.770625
vt 0.810433 0.770625
vt 0.883268 0.796875
vt 0.948228 0.796875
vt 0.949409 0.785625
vt 0.949409 0.770625
vt 0.883268 0.770625
vt 0.000984 0.628125
vt 0.000984 0.596875
vt 0.065945 0.596875
vt 0.065945 0.628125
vt 0.067913 0.628125
vt 0.067913 0.596875
vt 0.071850 0.596875
vt 0.071850 0.628125
vt 0.073819 0.628125
vt 0.073819 0.596875
vt 0.079724 0.596875
vt 0.079724 0.628125
vt 0.081693 0.628125
vt 0.081693 0.596875
vt 0.148622 0.596875
vt 0.148622 0.628125
vt 0.150591 0.628125
vt 0.150591 0.596875
vt 0.160433 0.596875
vt 0.160433 0.628125
vt 0.162402 0.628125
vt 0.254921 0.628125
vt 0.254921 0.621875
vt 0.162402 0.621875
vt 0.162402 0.621875
vt 0.254921 0.621875
vt 0.254921 0.615625
vt 0.162402 0.615625
vt 0.162402 0.615625
vt 0.254921 0.615625
vt 0.254921 0.609375
vt 0.162402 0.609375
vt 0.162402 0.609375
vt 0.254921 0.609375
vt 0.254921 0.603125
vt 0.162402 0.603125
vt 0.162402 0.603125
vt 0.254921 0.603125
vt 0.254921 0.596875
vt 0.162402 0.596875
vt 0.162402 0.596875
vt 0.254921 0.596875
vt 0.254921 0.590625
vt 0.162402 0.590625
vt 0.162402 0.590625
vt 0.254921 0.590625
vt 0.254921 0.584375
vt 0.162402 0.584375
vt 0.162402 0.584375
vt 0.254921 0.584375
vt 0.254921 0.578125
vt 0.162402 0.578125
vt 0.162402 0.578125
vt 0.254921 0.578125
vt 0.254921 0.571875
vt 0.162402 0.571875
vt 0.162402 0.571875
vt 0.254921 0.571875
vt 0.254921 0.565625
vt 0.162402 0.565625
vt 0.262795 0.618750
vt 0.262231 0.613240
vt 0.260755 0.609834
vt 0.258930 0.609834
vt 0.257454 0.613240
vt 0.256890 0.618750
vt 0.257454 0.624260
vt 0.258930 0.627666
vt 0.260755 0.627666
vt 0.262231 0.624260
vt 0.270669 0.618750
vt 0.270105 0.613240
vt 0.268629 0.609834
vt 0.266804 0.609834
vt 0.265328 0.613240
vt 0.264764 0.618750
vt 0.265328 0.624260
vt 0.266804 0.627666
vt 0.268629 0.627666
vt 0.270105 0.624260
vt 0.273819 0.601875
vt 0.289173 0.601875
vt 0.289173 0.560625
vt 0.285630 0.534375
vt 0.273819 0.534375
vt 0.311220 0.601875
vt 0.326575 0.601875
vt 0.326575 0.560625
vt 0.323031 0.534375
vt 0.311220 0.534375
vt 0.347441 0.628125
vt 0.347441 0.603125
vt 0.363189 0.603125
vt 0.363189 0.628125
vt 0.365157 0.628125
vt 0.365157 0.603125
vt 0.378937 0.603125
vt 0.378937 0.628125
vt 0.380906 0.628125
vt 0.380906 0.603125
vt 0.390748 0.603125
vt 0.390748 0.628125
vt 0.392717 0.628125
vt 0.392717 0.603125
vt 0.404528 0.603125
vt 0.404528 0.628125
vt 0.406496 0.628125
vt 0.406496 0.603125
vt 0.428150 0.603125
vt 0.428150 0.628125
vt 0.430118 0.628125
vt 0.500984 0.628125
vt 0.500984 0.622500
vt 0.430118 0.622500
vt 0.430118 0.622500
vt 0.500984 0.622500
vt 0.500984 0.616875
vt 0.430118 0.616875
vt 0.430118 0.616875
vt 0.500984 0.616875
vt 0.500984 0.611250
vt 0.430118 0.611250
vt 0.430118 0.611250
vt 0.500984 0.611250
vt 0.500984 0.605625
vt 0.430118 0.605625
vt 0.430118 0.605625
vt 0.500984 0.605625
vt 0.500984 0.600000
vt 0.430118 0.600000
vt 0.430118 0.600000
vt 0.500984 0.600000
vt 0.500984 0.594375
vt 0.430118 0.594375
vt 0.430118 0.594375
vt 0.500984 0.594375
vt 0.500984 0.588750
vt 0.430118 0.588750
vt 0.430118 0.588750
vt 0.500984 0.588750
vt 0.500984 0.583125
vt 0.430118 0.583125
vt 0.430118 0.583125
vt 0.500984 0.583125
vt 0.500984 0.577500
vt 0.430118 0.577500
vt 0.430118 0.577500
vt 0.500984 0.577500
vt 0.500984 0.571875
vt 0.430118 0.571875
vt 0.508858 0.618750
vt 0.508294 0.613240
vt 0.506818 0.609834
vt 0.504993 0.609834
vt 0.503517 0.613240
vt 0.502953 0.618750
vt 0.503517 0.624260
vt 0.504993 0.627666
vt 0.506818 0.627666
vt 0.508294 0.624260
vt 0.516732 0.618750
vt 0.516168 0.613240
vt 0.514692 0.609834
vt 0.512867 0.609834
vt 0.511391 0.613240
vt 0.510827 0.618750
vt 0.511391 0.624260
vt 0.512867 0.627666
vt 0.514692 0.627666
vt 0.516168 0.624260
vt 0.518701 0.628125
vt 0.536417 0.628125
vt 0.536417 0.618750
vt 0.518701 0.618750
vt 0.518701 0.618750
vt 0.536417 0.618750
vt 0.536417 0.609375
vt 0.518701 0.609375
vt 0.518701 0.609375
vt 0.536417 0.609375
vt 0.536417 0.600000
vt 0.518701 0.600000
vt 0.518701 0.600000
vt 0.536417 0.600000
vt 0.536417 0.590625
vt 0.518701 0.590625
vt 0.518701 0.590625
vt 0.536417 0.590625
vt 0.536417 0.581250
vt 0.518701 0.581250
vt 0.518701 0.581250
vt 0.536417 0.581250
vt 0.536417 0.571875
vt 0.518701 0.571875
vt 0.518701 0.571875
vt 0.536417 0.571875
vt 0.536417 0.562500
vt 0.518701 0.562500
vt 0.518701 0.562500
vt 0.536417 0.562500
vt 0.536417 0.553125
vt 0.518701 0.553125
vt 0.546260 0.615625
vt 0.545107 0.606786
vt 0.542323 0.603125
vt 0.539539 0.606786
vt 0.538386 0.615625
vt 0.539539 0.624464
vt 0.542323 0.628125
vt 0.545107 0.624464
vt 0.556102 0.615625
vt 0.554949 0.606786
vt 0.552165 0.603125
vt 0.549381 0.606786
vt 0.548228 0.615625
vt 0.549381 0.624464
vt 0.552165 0.628125
vt 0.554949 0.624464
vt 0.562205 0.624375
vt 0.583465 0.624375
vt 0.586417 0.613125
vt 0.586417 0.551250
vt 0.581693 0.534375
vt 0.563976 0.534375
vt 0.559252 0.551250
vt 0.559252 0.613125
vt 0.593701 0.624375
vt 0.614961 0.624375
vt 0.617913 0.613125
vt 0.617913 0.551250
vt 0.613189 0.534375
vt 0.595472 0.534375
vt 0.590748 0.551250
vt 0.590748 0.613125
vt 0.621063 0.628125
vt 0.621063 0.590625
vt 0.642717 0.590625
vt 0.642717 0.628125
vt 0.644685 0.628125
vt 0.644685 0.590625
vt 0.650591 0.590625
vt 0.650591 0.628125
vt 0.652559 0.628125
vt 0.652559 0.590625
vt 0.672244 0.590625
vt 0.672244 0.628125
vt 0.674213 0.628125
vt 0.674213 0.590625
vt 0.682087 0.590625
vt 0.682087 0.628125
vt 0.684055 0.628125
vt 0.684055 0.590625
vt 0.701772 0.590625
vt 0.701772 0.628125
vt 0.703740 0.628125
vt 0.703740 0.590625
vt 0.711614 0.590625
vt 0.711614 0.628125
vt 0.713583 0.628125
vt 0.713583 0.590625
vt 0.733268 0.590625
vt 0.733268 0.628125
vt 0.735236 0.628125
vt 0.735236 0.590625
vt 0.741142 0.590625
vt 0.741142 0.628125
vt 0.794912 0.624375
vt 0.807900 0.602085
vt 0.764033 0.318790
vt 0.744291 0.352670
vt 0.863810 0.624375
vt 0.876798 0.602085
vt 0.832930 0.318790
vt 0.813189 0.352670
vt 0.880906 0.628125
vt 0.880906 0.584375
vt 0.896654 0.584375
vt 0.896654 0.628125
vt 0.898622 0.628125
vt 0.898622 0.584375
vt 0.999016 0.584375
vt 0.999016 0.628125
vt 0.000984 0.309375
vt 0.000984 0.265625
vt 0.024606 0.265625
vt 0.024606 0.309375
vt 0.026575 0.309375
vt 0.026575 0.265625
vt 0.126969 0.265625
vt 0.126969 0.309375
vt 0.133071 0.305625
vt 0.157874 0.305625
vt 0.160827 0.294375
vt 0.160827 0.258750
vt 0.156102 0.241875
vt 0.134843 0.241875
vt 0.130118 0.258750
vt 0.130118 0.294375
vt 0.168504 0.305625
vt 0.193307 0.305625
vt 0.196260 0.294375
vt 0.196260 0.258750
vt 0.191535 0.241875
vt 0.170276 0.241875
vt 0.165551 0.258750
vt 0.165551 0.294375
vt 0.199803 0.309375
vt 0.199803 0.271875
vt 0.225394 0.271875
vt 0.225394 0.309375
vt 0.227362 0.309375
vt 0.227362 0.271875
vt 0.233268 0.271875
vt 0.233268 0.309375
vt 0.235236 0.309375
vt 0.235236 0.271875
vt 0.247047 0.271875
vt 0.247047 0.309375
vt 0.249016 0.309375
vt 0.249016 0.271875
vt 0.256890 0.271875
vt 0.256890 0.309375
vt 0.258858 0.309375
vt 0.258858 0.271875
vt 0.280512 0.271875
vt 0.280512 0.309375
vt 0.282480 0.309375
vt 0.282480 0.271875
vt 0.290354 0.271875
vt 0.290354 0.309375
vt 0.292323 0.309375
vt 0.292323 0.271875
vt 0.304134 0.271875
vt 0.304134 0.309375
vt 0.306102 0.309375
vt 0.306102 0.271875
vt 0.312008 0.271875
vt 0.312008 0.309375
vt 0.374477 0.305625
vt 0.385862 0.282105
vt 0.332977 0.001708
vt 0.315157 0.038522
vt 0.449280 0.305625
vt 0.460665 0.282105
vt 0.407780 0.001708
vt 0.389961 0.038522
vt 0.463583 0.309375
vt 0.463583 0.265625
vt 0.477362 0.265625
vt 0.477362 0.309375
vt 0.479331 0.309375
vt 0.479331 0.265625
vt 0.583661 0.265625
vt 0.583661 0.309375
vt 0.585630 0.309375
vt 0.585630 0.265625
vt 0.607283 0.265625
vt 0.607283 0.309375
vt 0.609252 0.309375
vt 0.609252 0.265625
vt 0.713583 0.265625
vt 0.713583 0.309375
f 6/6 1/1 2/2
f 6/6 2/2 3/3
f 6/6 3/3 4/4
f 4/4 5/5 6/6
f 8/8 7/7 12/12
f 9/9 8/8 12/12
f 10/10 9/9 12/12
f 12/12 11/11 10/10
f 13/13 16/14 15/15 14/16
f 17/17 20/18 19/19 18/20
f 21/21 24/22 23/23 22/24
f 25/25 28/26 27/27 26/28
f 29/29 32/30 31/31 30/32
f 33/33 36/34 35/35 34/36
f 42/42 37/37 38/38
f 42/42 38/38 39/39
f 42/42 39/39 40/40
f 40/40 41/41 42/42
f 44/44 43/43 48/48
f 45/45 44/44 48/48
f 46/46 45/45 48/48
f 48/48 47/47 46/46
f 49/49 52/50 51/51 50/52
f 53/53 56/54 55/55 54/56
f 57/57 60/58 59/59 58/60
f 61/61 64/62 63/63 62/64
f 65/65 68/66 67/67 66/68
f 69/69 72/70 71/71 70/72
f 73/73 80/80 79/79
f 73/73 79/79 78/78
f 73/73 78/78 77/77
f 73/73 77/77 76/76
f 73/73 76/76 75/75
f 75/75 74/74 73/73
f 87/87 88/88 81/81
f 86/86 87/87 81/81
f 85/85 86/86 81/81
f 84/84 85/85 81/81
f 83/83 84/84 81/81
f 81/81 82/82 83/83
f 89/89 92/90 91/91 90/92
f 93/93 96/94 95/95 94/96
f 97/97 100/98 99/99 98/100
f 101/101 104/102 103/103 102/104
f 105/105 108/106 107/107 106/108
f 109/109 112/110 111/111 110/112
f 113/113 116/114 115/115 114/116
f 117/117 120/118 119/119 118/120
f 126/126 121/121 122/122
f 126/126 122/122 123/123
f 126/126 123/123 124/124
f 124/124 125/125 126/126
f 128/128 127/127 132/132
f 129/129 128/128 132/132
f 130/130 129/129 132/132
f 132/132 131/131 130/130
f 133/133 136/134 135/135 134/136
f 137/137 140/138 139/139 138/140
f 141/141 144/142 143/143 142/144
f 145/145 148/146 147/147 146/148
f 149/149 152/150 151/151 150/152
f 153/153 156/154 155/155 154/156
f 163/163 157/157 158/158
f 163/163 158/158 159/159
f 163/163 159/159 160/160
f 163/163 160/160 161/161
f 161/161 162/162 163/163
f 165/165 164/164 170/170
f 166/166 165/165 170/170
f 167/167 166/166 170/170
f 168/168 167/167 170/170
f 170/170 169/169 168/168
f 171/171 174/172 173/173 172/174
f 175/175 178/176 177/177 176/178
f 179/179 182/180 181/181 180/182
f 183/183 186/184 185/185 184/186
f 187/187 190/188 189/189 188/190
f 191/191 194/192 193/193 192/194
f 195/195 198/196 197/197 196/198
f 204/204 199/199 200/200
f 204/204 200/200 201/201
f 204/204 201/201 202/202
f 202/202 203/203 204/204
f 206/206 205/205 210/210
f 207/207 206/206 210/210
f 208/208 207/207 210/210
f 210/210 209/209 208/208
f 211/211 214/212 213/213 212/214
f 215/215 218/216 217/217 216/218
f 219/219 222/220 221/221 220/222
f 223/223 226/224 225/225 224/226
f 227/227 230/228 229/229 228/230
f 231/231 234/232 233/233 232/234
f 239/239 235/235 236/236
f 239/239 236/236 237/237
f 237/237 238/238 239/239
f 241/241 240/240 244/244
f 242/242 241/241 244/244
f 244/244 243/243 242/242
f 245/245 248/246 247/247 246/248
f 249/249 252/250 251/251 250/252
f 253/253 256/254 255/255 254/256
f 257/257 260/258 259/259 258/260
f 261/261 264/262 263/263 262/264
f 265/265 275/266 276/267 266/268
f 266/269 276/270 277/271 267/272
f 267/273 277/274 278/275 268/276
f 268/277 278/278 279/279 269/280
f 269/281 279/282 280/283 270/284
f 270/285 280/286 281/287 271/288
f 271/289 281/290 282/291 272/292
f 272/293 282/294 283/295 273/296
f 273/297 283/298 284/299 274/300
f 274/301 284/302 275/303 265/304
f 267/307 266/306 265/305
f 268/308 267/307 265/305
f 269/309 268/308 265/305
f 270/310 269/309 265/305
f 271/311 270/310 265/305
f 272/312 271/311 265/305
f 273/313 272/312 265/305
f 274/314 273/313 265/305
f 275/315 276/316 277/317
f 275/315 277/317 278/318
f 275/315 278/318 279/319
f 275/315 279/319 280/320
f 275/315 280/320 281/321
f 275/315 281/321 282/322
f 275/315 282/322 283/323
f 275/315 283/323 284/324
f 289/329 285/325 286/326
f 289/329 286/326 287/327
f 287/327 288/328 289/329
f 291/331 290/330 294/334
f 292/332 291/331 294/334
f 294/334 293/333 292/332
f 295/335 298/336 297/337 296/338
f 299/339 302/340 301/341 300/342
f 303/343 306/344 305/345 304/346
f 307/347 310/348 309/349 308/350
f 311/351 314/352 313/353 312/354
f 315/355 325/356 326/357 316/358
f 316/359 326/360 327/361 317/362
f 317/363 327/364 328/365 318/366
f 318/367 328/368 329/369 319/370
f 319/371 329/372 330/373 320/374
f 320/375 330/376 331/377 321/378
f 321/379 331/380 332/381 322/382
f 322/383 332/384 333/385 323/386
f 323/387 333/388 334/389 324/390
f 324/391 334/392 325/393 315/394
f 317/397 316/396 315/395
f 318/398 317/397 315/395
f 319/399 318/398 315/395
f 320/400 319/399 315/395
f 321/401 320/400 315/395
f 322/402 321/401 315/395
f 323/403 322/402 315/395
f 324/404 323/403 315/395
f 325/405 326/406 327/407
f 325/405 327/407 328/408
f 325/405 328/408 329/409
f 325/405 329/409 330/410
f 325/405 330/410 331/411
f 325/405 331/411 332/412
f 325/405 332/412 333/413
f 325/405 333/413 334/414
f 335/415 343/416 344/417 336/418
f 336/419 344/420 345/421 337/422
f 337/423 345/424 346/425 338/426
f 338/427 346/428 347/429 339/430
f 339/431 347/432 348/433 340/434
f 340/435 348/436 349/437 341/438
f 341/439 349/440 350/441 342/442
f 342/443 350/444 343/445 335/446
f 337/449 336/448 335/447
f 338/450 337/449 335/447
f 339/451 338/450 335/447
f 340/452 339/451 335/447
f 341/453 340/452 335/447
f 342/454 341/453 335/447
f 343/455 344/456 345/457
f 343/455 345/457 346/458
f 343/455 346/458 347/459
f 343/455 347/459 348/460
f 343/455 348/460 349/461
f 343/455 349/461 350/462
f 358/470 351/463 352/464
f 358/470 352/464 353/465
f 358/470 353/465 354/466
f 358/470 354/466 355/467
f 358/470 355/467 356/468
f 356/468 357/469 358/470
f 360/472 359/471 366/478
f 361/473 360/472 366/478
f 362/474 361/473 366/478
f 363/475 362/474 366/478
f 364/476 363/475 366/478
f 366/478 365/477 364/476
f 367/479 370/480 369/481 368/482
f 371/483 374/484 373/485 372/486
f 375/487 378/488 377/489 376/490
f 379/491 382/492 381/493 380/494
f 383/495 386/496 385/497 384/498
f 387/499 390/500 389/501 388/502
f 391/503 394/504 393/505 392/506
f 395/507 398/508 397/509 396/510
f 402/514 399/511 400/512
f 400/512 401/513 402/514
f 404/516 403/515 406/518
f 406/518 405/517 404/516
f 407/519 410/520 409/521 408/522
f 411/523 414/524 413/525 412/526
f 415/527 418/528 417/529 416/530
f 419/531 422/532 421/533 420/534
f 430/542 423/535 424/536
f 430/542 424/536 425/537
f 430/542 425/537 426/538
f 430/542 426/538 427/539
f 430/542 427/539 428/540
f 428/540 429/541 430/542
f 432/544 431/543 438/550
f 433/545 432/544 438/550
f 434/546 433/545 438/550
f 435/547 434/546 438/550
f 436/548 435/547 438/550
f 438/550 437/549 436/548
f 439/551 442/552 441/553 440/554
f 443/555 446/556 445/557 444/558
f 447/559 450/560 449/561 448/562
f 451/563 454/564 453/565 452/566
f 455/567 458/568 457/569 456/570
f 459/571 462/572 461/573 460/574
f 463/575 466/576 465/577 464/578
f 467/579 470/580 469/581 468/582
f 474/586 471/583 472/584
f 472/584 473/585 474/586
f 476/588 475/587 478/590
f 478/590 477/589 476/588
f 479/591 482/592 481/593 480/594
f 483/595 486/596 485/597 484/598
f 487/599 490/600 489/601 488/602
f 491/603 494/604 493/605 492/606
