mtllib lmg_fp_model.mtl
usemtl gun
v -4.0000 3.4000 0.8500
v 11.6000 3.4000 0.8500
v 14.0000 2.6000 0.8500
v 14.0000 -0.6000 0.8500
v -4.0000 -0.8000 0.8500
v -4.0000 3.4000 -0.8500
v 11.6000 3.4000 -0.8500
v 14.0000 2.6000 -0.8500
v 14.0000 -0.6000 -0.8500
v -4.0000 -0.8000 -0.8500
v -4.0000 3.4000 0.8500
v 11.6000 3.4000 0.8500
v 11.6000 3.4000 -0.8500
v -4.0000 3.4000 -0.8500
v 11.6000 3.4000 0.8500
v 14.0000 2.6000 0.8500
v 14.0000 2.6000 -0.8500
v 11.6000 3.4000 -0.8500
v 14.0000 2.6000 0.8500
v 14.0000 -0.6000 0.8500
v 14.0000 -0.6000 -0.8500
v 14.0000 2.6000 -0.8500
v 14.0000 -0.6000 0.8500
v -4.0000 -0.8000 0.8500
v -4.0000 -0.8000 -0.8500
v 14.0000 -0.6000 -0.8500
v -4.0000 -0.8000 0.8500
v -4.0000 3.4000 0.8500
v -4.0000 3.4000 -0.8500
v -4.0000 -0.8000 -0.8500
v 14.0000 3.0000 0.9500
v 24.0000 3.0000 0.9500
v 24.0000 -0.6000 0.9500
v 14.0000 -1.0000 0.9500
v 14.0000 3.0000 -0.9500
v 24.0000 3.0000 -0.9500
v 24.0000 -0.6000 -0.9500
v 14.0000 -1.0000 -0.9500
v 14.0000 3.0000 0.9500
v 24.0000 3.0000 0.9500
v 24.0000 3.0000 -0.9500
v 14.0000 3.0000 -0.9500
v 24.0000 3.0000 0.9500
v 24.0000 -0.6000 0.9500
v 24.0000 -0.6000 -0.9500
v 24.0000 3.0000 -0.9500
v 24.0000 -0.6000 0.9500
v 14.0000 -1.0000 0.9500
v 14.0000 -1.0000 -0.9500
v 24.0000 -0.6000 -0.9500
v 14.0000 -1.0000 0.9500
v 14.0000 3.0000 0.9500
v 14.0000 3.0000 -0.9500
v 14.0000 -1.0000 -0.9500
v -4.0000 3.0000 0.7500
v -9.0000 3.2000 0.7500
v -13.0000 2.8000 0.7500
v -16.0000 2.2000 0.7500
v -16.4000 -4.2000 0.7500
v -12.0000 -3.4000 0.7500
v -8.0000 -0.9000 0.7500
v -4.0000 -0.9000 0.7500
v -4.0000 3.0000 -0.7500
v -9.0000 3.2000 -0.7500
v -13.0000 2.8000 -0.7500
v -16.0000 2.2000 -0.7500
v -16.4000 -4.2000 -0.7500
v -12.0000 -3.4000 -0.7500
v -8.0000 -0.9000 -0.7500
v -4.0000 -0.9000 -0.7500
v -4.0000 -0.9000 0.7500
v -8.0000 -0.9000 0.7500
v -8.0000 -0.9000 -0.7500
v -4.0000 -0.9000 -0.7500
v -8.0000 -0.9000 0.7500
v -12.0000 -3.4000 0.7500
v -12.0000 -3.4000 -0.7500
v -8.0000 -0.9000 -0.7500
v -12.0000 -3.4000 0.7500
v -16.4000 -4.2000 0.7500
v -16.4000 -4.2000 -0.7500
v -12.0000 -3.4000 -0.7500
v -16.4000 -4.2000 0.7500
v -16.0000 2.2000 0.7500
v -16.0000 2.2000 -0.7500
v -16.4000 -4.2000 -0.7500
v -16.0000 2.2000 0.7500
v -13.0000 2.8000 0.7500
v -13.0000 2.8000 -0.7500
v -16.0000 2.2000 -0.7500
v -13.0000 2.8000 0.7500
v -9.0000 3.2000 0.7500
v -9.0000 3.2000 -0.7500
v -13.0000 2.8000 -0.7500
v -9.0000 3.2000 0.7500
v -4.0000 3.0000 0.7500
v -4.0000 3.0000 -0.7500
v -9.0000 3.2000 -0.7500
v -4.0000 3.0000 0.7500
v -4.0000 -0.9000 0.7500
v -4.0000 -0.9000 -0.7500
v -4.0000 3.0000 -0.7500
v -2.6000 -0.4000 0.7000
v 1.4000 -0.4000 0.7000
v 2.2000 -5.0000 0.7000
v -1.6000 -5.4000 0.7000
v -2.8000 -3.6000 0.7000
v -2.6000 -0.4000 -0.7000
v 1.4000 -0.4000 -0.7000
v 2.2000 -5.0000 -0.7000
v -1.6000 -5.4000 -0.7000
v -2.8000 -3.6000 -0.7000
v -2.6000 -0.4000 0.7000
v 1.4000 -0.4000 0.7000
v 1.4000 -0.4000 -0.7000
v -2.6000 -0.4000 -0.7000
v 1.4000 -0.4000 0.7000
v 2.2000 -5.0000 0.7000
v 2.2000 -5.0000 -0.7000
v 1.4000 -0.4000 -0.7000
v 2.2000 -5.0000 0.7000
v -1.6000 -5.4000 0.7000
v -1.6000 -5.4000 -0.7000
v 2.2000 -5.0000 -0.7000
v -1.6000 -5.4000 0.7000
v -2.8000 -3.6000 0.7000
v -2.8000 -3.6000 -0.7000
v -1.6000 -5.4000 -0.7000
v -2.8000 -3.6000 0.7000
v -2.6000 -0.4000 0.7000
v -2.6000 -0.4000 -0.7000
v -2.8000 -3.6000 -0.7000
v 24.0000 1.9000 0.4600
v 24.0000 1.6296 0.3721
v 24.0000 1.4625 0.1421
v 24.0000 1.4625 -0.1421
v 24.0000 1.6296 -0.3721
v 24.0000 1.9000 -0.4600
v 24.0000 2.1704 -0.3721
v 24.0000 2.3375 -0.1421
v 24.0000 2.3375 0.1421
v 24.0000 2.1704 0.3721
v 34.0000 1.9000 0.4600
v 34.0000 1.6296 0.3721
v 34.0000 1.4625 0.1421
v 34.0000 1.4625 -0.1421
v 34.0000 1.6296 -0.3721
v 34.0000 1.9000 -0.4600
v 34.0000 2.1704 -0.3721
v 34.0000 2.3375 -0.1421
v 34.0000 2.3375 0.1421
v 34.0000 2.1704 0.3721
v 32.6000 1.9000 0.7000
v 32.6000 1.4050 0.4950
v 32.6000 1.2000 0.0000
v 32.6000 1.4050 -0.4950
v 32.6000 1.9000 -0.7000
v 32.6000 2.3950 -0.4950
v 32.6000 2.6000 -0.0000
v 32.6000 2.3950 0.4950
v 35.2000 1.9000 0.7000
v 35.2000 1.4050 0.4950
v 35.2000 1.2000 0.0000
v 35.2000 1.4050 -0.4950
v 35.2000 1.9000 -0.7000
v 35.2000 2.3950 -0.4950
v 35.2000 2.6000 -0.0000
v 35.2000 2.3950 0.4950
v 14.0000 3.8000 0.3000
v 14.0000 3.5879 0.2121
v 14.0000 3.5000 0.0000
v 14.0000 3.5879 -0.2121
v 14.0000 3.8000 -0.3000
v 14.0000 4.0121 -0.2121
v 14.0000 4.1000 -0.0000
v 14.0000 4.0121 0.2121
v 24.0000 3.8000 0.3000
v 24.0000 3.5879 0.2121
v 24.0000 3.5000 0.0000
v 24.0000 3.5879 -0.2121
v 24.0000 3.8000 -0.3000
v 24.0000 4.0121 -0.2121
v 24.0000 4.1000 -0.0000
v 24.0000 4.0121 0.2121
v 25.4000 0.4000 0.3500
v 26.8000 0.4000 0.3500
v 26.8000 -0.4000 0.3500
v 25.4000 -0.4000 0.3500
v 25.4000 0.4000 -0.3500
v 26.8000 0.4000 -0.3500
v 26.8000 -0.4000 -0.3500
v 25.4000 -0.4000 -0.3500
v 25.4000 0.4000 0.3500
v 26.8000 0.4000 0.3500
v 26.8000 0.4000 -0.3500
v 25.4000 0.4000 -0.3500
v 26.8000 0.4000 0.3500
v 26.8000 -0.4000 0.3500
v 26.8000 -0.4000 -0.3500
v 26.8000 0.4000 -0.3500
v 26.8000 -0.4000 0.3500
v 25.4000 -0.4000 0.3500
v 25.4000 -0.4000 -0.3500
v 26.8000 -0.4000 -0.3500
v 25.4000 -0.4000 0.3500
v 25.4000 0.4000 0.3500
v 25.4000 0.4000 -0.3500
v 25.4000 -0.4000 -0.3500
v 8.1000 -2.7000 0.8000
v 7.9191 -3.7261 0.8000
v 7.3981 -4.6284 0.8000
v 6.6000 -5.2981 0.8000
v 5.6209 -5.6544 0.8000
v 4.5791 -5.6544 0.8000
v 3.6000 -5.2981 0.8000
v 2.8019 -4.6284 0.8000
v 2.2809 -3.7261 0.8000
v 2.1000 -2.7000 0.8000
v 2.2809 -1.6739 0.8000
v 2.8019 -0.7716 0.8000
v 3.6000 -0.1019 0.8000
v 4.5791 0.2544 0.8000
v 5.6209 0.2544 0.8000
v 6.6000 -0.1019 0.8000
v 7.3981 -0.7716 0.8000
v 7.9191 -1.6739 0.8000
v 8.1000 -2.7000 -0.8000
v 7.9191 -3.7261 -0.8000
v 7.3981 -4.6284 -0.8000
v 6.6000 -5.2981 -0.8000
v 5.6209 -5.6544 -0.8000
v 4.5791 -5.6544 -0.8000
v 3.6000 -5.2981 -0.8000
v 2.8019 -4.6284 -0.8000
v 2.2809 -3.7261 -0.8000
v 2.1000 -2.7000 -0.8000
v 2.2809 -1.6739 -0.8000
v 2.8019 -0.7716 -0.8000
v 3.6000 -0.1019 -0.8000
v 4.5791 0.2544 -0.8000
v 5.6209 0.2544 -0.8000
v 6.6000 -0.1019 -0.8000
v 7.3981 -0.7716 -0.8000
v 7.9191 -1.6739 -0.8000
v 8.1000 -2.7000 0.8000
v 7.9191 -3.7261 0.8000
v 7.9191 -3.7261 -0.8000
v 8.1000 -2.7000 -0.8000
v 7.9191 -3.7261 0.8000
v 7.3981 -4.6284 0.8000
v 7.3981 -4.6284 -0.8000
v 7.9191 -3.7261 -0.8000
v 7.3981 -4.6284 0.8000
v 6.6000 -5.2981 0.8000
v 6.6000 -5.2981 -0.8000
v 7.3981 -4.6284 -0.8000
v 6.6000 -5.2981 0.8000
v 5.6209 -5.6544 0.8000
v 5.6209 -5.6544 -0.8000
v 6.6000 -5.2981 -0.8000
v 5.6209 -5.6544 0.8000
v 4.5791 -5.6544 0.8000
v 4.5791 -5.6544 -0.8000
v 5.6209 -5.6544 -0.8000
v 4.5791 -5.6544 0.8000
v 3.6000 -5.2981 0.8000
v 3.6000 -5.2981 -0.8000
v 4.5791 -5.6544 -0.8000
v 3.6000 -5.2981 0.8000
v 2.8019 -4.6284 0.8000
v 2.8019 -4.6284 -0.8000
v 3.6000 -5.2981 -0.8000
v 2.8019 -4.6284 0.8000
v 2.2809 -3.7261 0.8000
v 2.2809 -3.7261 -0.8000
v 2.8019 -4.6284 -0.8000
v 2.2809 -3.7261 0.8000
v 2.1000 -2.7000 0.8000
v 2.1000 -2.7000 -0.8000
v 2.2809 -3.7261 -0.8000
v 2.1000 -2.7000 0.8000
v 2.2809 -1.6739 0.8000
v 2.2809 -1.6739 -0.8000
v 2.1000 -2.7000 -0.8000
v 2.2809 -1.6739 0.8000
v 2.8019 -0.7716 0.8000
v 2.8019 -0.7716 -0.8000
v 2.2809 -1.6739 -0.8000
v 2.8019 -0.7716 0.8000
v 3.6000 -0.1019 0.8000
v 3.6000 -0.1019 -0.8000
v 2.8019 -0.7716 -0.8000
v 3.6000 -0.1019 0.8000
v 4.5791 0.2544 0.8000
v 4.5791 0.2544 -0.8000
v 3.6000 -0.1019 -0.8000
v 4.5791 0.2544 0.8000
v 5.6209 0.2544 0.8000
v 5.6209 0.2544 -0.8000
v 4.5791 0.2544 -0.8000
v 5.6209 0.2544 0.8000
v 6.6000 -0.1019 0.8000
v 6.6000 -0.1019 -0.8000
v 5.6209 0.2544 -0.8000
v 6.6000 -0.1019 0.8000
v 7.3981 -0.7716 0.8000
v 7.3981 -0.7716 -0.8000
v 6.6000 -0.1019 -0.8000
v 7.3981 -0.7716 0.8000
v 7.9191 -1.6739 0.8000
v 7.9191 -1.6739 -0.8000
v 7.3981 -0.7716 -0.8000
v 7.9191 -1.6739 0.8000
v 8.1000 -2.7000 0.8000
v 8.1000 -2.7000 -0.8000
v 7.9191 -1.6739 -0.8000
v -1.9000 -0.8000 0.9500
v 1.7000 -0.8000 0.9500
v 2.2000 -1.4000 0.9500
v 2.2000 -4.7000 0.9500
v 1.4000 -5.6000 0.9500
v -1.6000 -5.6000 0.9500
v -2.4000 -4.7000 0.9500
v -2.4000 -1.4000 0.9500
v -1.9000 -0.8000 -0.9500
v 1.7000 -0.8000 -0.9500
v 2.2000 -1.4000 -0.9500
v 2.2000 -4.7000 -0.9500
v 1.4000 -5.6000 -0.9500
v -1.6000 -5.6000 -0.9500
v -2.4000 -4.7000 -0.9500
v -2.4000 -1.4000 -0.9500
v -1.9000 -0.8000 0.9500
v 1.7000 -0.8000 0.9500
v 1.7000 -0.8000 -0.9500
v -1.9000 -0.8000 -0.9500
v 1.7000 -0.8000 0.9500
v 2.2000 -1.4000 0.9500
v 2.2000 -1.4000 -0.9500
v 1.7000 -0.8000 -0.9500
v 2.2000 -1.4000 0.9500
v 2.2000 -4.7000 0.9500
v 2.2000 -4.7000 -0.9500
v 2.2000 -1.4000 -0.9500
v 2.2000 -4.7000 0.9500
v 1.4000 -5.6000 0.9500
v 1.4000 -5.6000 -0.9500
v 2.2000 -4.7000 -0.9500
v 1.4000 -5.6000 0.9500
v -1.6000 -5.6000 0.9500
v -1.6000 -5.6000 -0.9500
v 1.4000 -5.6000 -0.9500
v -1.6000 -5.6000 0.9500
v -2.4000 -4.7000 0.9500
v -2.4000 -4.7000 -0.9500
v -1.6000 -5.6000 -0.9500
v -2.4000 -4.7000 0.9500
v -2.4000 -1.4000 0.9500
v -2.4000 -1.4000 -0.9500
v -2.4000 -4.7000 -0.9500
v -2.4000 -1.4000 0.9500
v -1.9000 -0.8000 0.9500
v -1.9000 -0.8000 -0.9500
v -2.4000 -1.4000 -0.9500
v -2.0996 -5.2056 1.0500
v 0.0996 -6.3944 1.0500
v -7.3286 -21.5035 1.0500
v -10.6714 -19.6965 1.0500
v -2.0996 -5.2056 -1.0500
v 0.0996 -6.3944 -1.0500
v -7.3286 -21.5035 -1.0500
v -10.6714 -19.6965 -1.0500
v -2.0996 -5.2056 1.0500
v 0.0996 -6.3944 1.0500
v 0.0996 -6.3944 -1.0500
v -2.0996 -5.2056 -1.0500
v 0.0996 -6.3944 1.0500
v -7.3286 -21.5035 1.0500
v -7.3286 -21.5035 -1.0500
v 0.0996 -6.3944 -1.0500
v -7.3286 -21.5035 1.0500
v -10.6714 -19.6965 1.0500
v -10.6714 -19.6965 -1.0500
v -7.3286 -21.5035 -1.0500
v -10.6714 -19.6965 1.0500
v -2.0996 -5.2056 1.0500
v -2.0996 -5.2056 -1.0500
v -10.6714 -19.6965 -1.0500
v 16.5000 0.3000 0.9500
v 20.7000 0.3000 0.9500
v 21.2000 -0.3000 0.9500
v 21.2000 -2.2000 0.9500
v 20.4000 -3.1000 0.9500
v 16.8000 -3.1000 0.9500
v 16.0000 -2.2000 0.9500
v 16.0000 -0.3000 0.9500
v 16.5000 0.3000 -0.9500
v 20.7000 0.3000 -0.9500
v 21.2000 -0.3000 -0.9500
v 21.2000 -2.2000 -0.9500
v 20.4000 -3.1000 -0.9500
v 16.8000 -3.1000 -0.9500
v 16.0000 -2.2000 -0.9500
v 16.0000 -0.3000 -0.9500
v 16.5000 0.3000 0.9500
v 20.7000 0.3000 0.9500
v 20.7000 0.3000 -0.9500
v 16.5000 0.3000 -0.9500
v 20.7000 0.3000 0.9500
v 21.2000 -0.3000 0.9500
v 21.2000 -0.3000 -0.9500
v 20.7000 0.3000 -0.9500
v 21.2000 -0.3000 0.9500
v 21.2000 -2.2000 0.9500
v 21.2000 -2.2000 -0.9500
v 21.2000 -0.3000 -0.9500
v 21.2000 -2.2000 0.9500
v 20.4000 -3.1000 0.9500
v 20.4000 -3.1000 -0.9500
v 21.2000 -2.2000 -0.9500
v 20.4000 -3.1000 0.9500
v 16.8000 -3.1000 0.9500
v 16.8000 -3.1000 -0.9500
v 20.4000 -3.1000 -0.9500
v 16.8000 -3.1000 0.9500
v 16.0000 -2.2000 0.9500
v 16.0000 -2.2000 -0.9500
v 16.8000 -3.1000 -0.9500
v 16.0000 -2.2000 0.9500
v 16.0000 -0.3000 0.9500
v 16.0000 -0.3000 -0.9500
v 16.0000 -2.2000 -0.9500
v 16.0000 -0.3000 0.9500
v 16.5000 0.3000 0.9500
v 16.5000 0.3000 -0.9500
v 16.0000 -0.3000 -0.9500
v 16.5361 -2.1728 1.0500
v 18.4639 -3.4272 1.0500
v 9.5087 -18.3817 1.0500
v 6.4913 -16.4183 1.0500
v 16.5361 -2.1728 -1.0500
v 18.4639 -3.4272 -1.0500
v 9.5087 -18.3817 -1.0500
v 6.4913 -16.4183 -1.0500
v 16.5361 -2.1728 1.0500
v 18.4639 -3.4272 1.0500
v 18.4639 -3.4272 -1.0500
v 16.5361 -2.1728 -1.0500
v 18.4639 -3.4272 1.0500
v 9.5087 -18.3817 1.0500
v 9.5087 -18.3817 -1.0500
v 18.4639 -3.4272 -1.0500
v 9.5087 -18.3817 1.0500
v 6.4913 -16.4183 1.0500
v 6.4913 -16.4183 -1.0500
v 9.5087 -18.3817 -1.0500
v 6.4913 -16.4183 1.0500
v 16.5361 -2.1728 1.0500
v 16.5361 -2.1728 -1.0500
v 6.4913 -16.4183 -1.0500
vt 0.003327 0.978505
vt 0.094912 0.978505
vt 0.109002 0.956075
vt 0.109002 0.866355
vt 0.003327 0.860748
vt 0.116830 0.978505
vt 0.208415 0.978505
vt 0.222505 0.956075
vt 0.222505 0.866355
vt 0.116830 0.860748
vt 0.227984 0.995327
vt 0.227984 0.939252
vt 0.319961 0.939252
vt 0.319961 0.995327
vt 0.321918 0.995327
vt 0.321918 0.939252
vt 0.337573 0.939252
vt 0.337573 0.995327
vt 0.339530 0.995327
vt 0.339530 0.939252
vt 0.359100 0.939252
vt 0.359100 0.995327
vt 0.361057 0.995327
vt 0.361057 0.939252
vt 0.468689 0.939252
vt 0.468689 0.995327
vt 0.470646 0.995327
vt 0.470646 0.939252
vt 0.496086 0.939252
vt 0.496086 0.995327
vt 0.500391 0.978505
vt 0.559100 0.978505
vt 0.559100 0.877570
vt 0.500391 0.866355
vt 0.566928 0.978505
vt 0.625636 0.978505
vt 0.625636 0.877570
vt 0.566928 0.866355
vt 0.631115 0.995327
vt 0.631115 0.939252
vt 0.689824 0.939252
vt 0.689824 0.995327
vt 0.691781 0.995327
vt 0.691781 0.939252
vt 0.713307 0.939252
vt 0.713307 0.995327
vt 0.715264 0.995327
vt 0.715264 0.939252
vt 0.775930 0.939252
vt 0.775930 0.995327
vt 0.777886 0.995327
vt 0.777886 0.939252
vt 0.801370 0.939252
vt 0.801370 0.995327
vt 0.876125 0.967290
vt 0.846771 0.972897
vt 0.823288 0.961682
vt 0.805675 0.944860
vt 0.803327 0.765421
vt 0.829159 0.787850
vt 0.852642 0.857944
vt 0.876125 0.857944
vt 0.954403 0.967290
vt 0.925049 0.972897
vt 0.901566 0.961682
vt 0.883953 0.944860
vt 0.881605 0.765421
vt 0.907436 0.787850
vt 0.930920 0.857944
vt 0.954403 0.857944
vt 0.959883 0.995327
vt 0.959883 0.948598
vt 0.983366 0.948598
vt 0.983366 0.995327
vt 0.000978 0.733645
vt 0.000978 0.686916
vt 0.030333 0.686916
vt 0.030333 0.733645
vt 0.032290 0.733645
vt 0.032290 0.686916
vt 0.059687 0.686916
vt 0.059687 0.733645
vt 0.061644 0.733645
vt 0.061644 0.686916
vt 0.100783 0.686916
vt 0.100783 0.733645
vt 0.102740 0.733645
vt 0.102740 0.686916
vt 0.122309 0.686916
vt 0.122309 0.733645
vt 0.124266 0.733645
vt 0.124266 0.686916
vt 0.149706 0.686916
vt 0.149706 0.733645
vt 0.151663 0.733645
vt 0.151663 0.686916
vt 0.182975 0.686916
vt 0.182975 0.733645
vt 0.184932 0.733645
vt 0.184932 0.686916
vt 0.208415 0.686916
vt 0.208415 0.733645
vt 0.213894 0.728037
vt 0.237378 0.728037
vt 0.242074 0.599065
vt 0.219765 0.587850
vt 0.212720 0.638318
vt 0.251076 0.728037
vt 0.274560 0.728037
vt 0.279256 0.599065
vt 0.256947 0.587850
vt 0.249902 0.638318
vt 0.284736 0.733645
vt 0.284736 0.686916
vt 0.308219 0.686916
vt 0.308219 0.733645
vt 0.310176 0.733645
vt 0.310176 0.686916
vt 0.339530 0.686916
vt 0.339530 0.733645
vt 0.341487 0.733645
vt 0.341487 0.686916
vt 0.364971 0.686916
vt 0.364971 0.733645
vt 0.366928 0.733645
vt 0.366928 0.686916
vt 0.380626 0.686916
vt 0.380626 0.733645
vt 0.382583 0.733645
vt 0.382583 0.686916
vt 0.402153 0.686916
vt 0.402153 0.733645
vt 0.404110 0.733645
vt 0.462818 0.733645
vt 0.462818 0.725234
vt 0.404110 0.725234
vt 0.404110 0.725234
vt 0.462818 0.725234
vt 0.462818 0.716822
vt 0.404110 0.716822
vt 0.404110 0.716822
vt 0.462818 0.716822
vt 0.462818 0.708411
vt 0.404110 0.708411
vt 0.404110 0.708411
vt 0.462818 0.708411
vt 0.462818 0.700000
vt 0.404110 0.700000
vt 0.404110 0.700000
vt 0.462818 0.700000
vt 0.462818 0.691589
vt 0.404110 0.691589
vt 0.404110 0.691589
vt 0.462818 0.691589
vt 0.462818 0.683178
vt 0.404110 0.683178
vt 0.404110 0.683178
vt 0.462818 0.683178
vt 0.462818 0.674766
vt 0.404110 0.674766
vt 0.404110 0.674766
vt 0.462818 0.674766
vt 0.462818 0.666355
vt 0.404110 0.666355
vt 0.404110 0.666355
vt 0.462818 0.666355
vt 0.462818 0.657944
vt 0.404110 0.657944
vt 0.404110 0.657944
vt 0.462818 0.657944
vt 0.462818 0.649533
vt 0.404110 0.649533
vt 0.470646 0.719626
vt 0.470085 0.711386
vt 0.468617 0.706294
vt 0.466803 0.706294
vt 0.465336 0.711386
vt 0.464775 0.719626
vt 0.465336 0.727866
vt 0.466803 0.732959
vt 0.468617 0.732959
vt 0.470085 0.727866
vt 0.478474 0.719626
vt 0.477913 0.711386
vt 0.476445 0.706294
vt 0.474631 0.706294
vt 0.473163 0.711386
vt 0.472603 0.719626
vt 0.473163 0.727866
vt 0.474631 0.732959
vt 0.476445 0.732959
vt 0.477913 0.727866
vt 0.480431 0.733645
vt 0.496086 0.733645
vt 0.496086 0.717290
vt 0.480431 0.717290
vt 0.480431 0.717290
vt 0.496086 0.717290
vt 0.496086 0.700935
vt 0.480431 0.700935
vt 0.480431 0.700935
vt 0.496086 0.700935
vt 0.496086 0.684579
vt 0.480431 0.684579
vt 0.480431 0.684579
vt 0.496086 0.684579
vt 0.496086 0.668224
vt 0.480431 0.668224
vt 0.480431 0.668224
vt 0.496086 0.668224
vt 0.496086 0.651869
vt 0.480431 0.651869
vt 0.480431 0.651869
vt 0.496086 0.651869
vt 0.496086 0.635514
vt 0.480431 0.635514
vt 0.480431 0.635514
vt 0.496086 0.635514
vt 0.496086 0.619159
vt 0.480431 0.619159
vt 0.480431 0.619159
vt 0.496086 0.619159
vt 0.496086 0.602804
vt 0.480431 0.602804
vt 0.507828 0.710280
vt 0.506395 0.693759
vt 0.502935 0.686916
vt 0.499476 0.693759
vt 0.498043 0.710280
vt 0.499476 0.726802
vt 0.502935 0.733645
vt 0.506395 0.726802
vt 0.519569 0.710280
vt 0.518137 0.693759
vt 0.514677 0.686916
vt 0.511218 0.693759
vt 0.509785 0.710280
vt 0.511218 0.726802
vt 0.514677 0.733645
vt 0.518137 0.726802
vt 0.521526 0.733645
vt 0.580235 0.733645
vt 0.580235 0.726636
vt 0.521526 0.726636
vt 0.521526 0.726636
vt 0.580235 0.726636
vt 0.580235 0.719626
vt 0.521526 0.719626
vt 0.521526 0.719626
vt 0.580235 0.719626
vt 0.580235 0.712617
vt 0.521526 0.712617
vt 0.521526 0.712617
vt 0.580235 0.712617
vt 0.580235 0.705607
vt 0.521526 0.705607
vt 0.521526 0.705607
vt 0.580235 0.705607
vt 0.580235 0.698598
vt 0.521526 0.698598
vt 0.521526 0.698598
vt 0.580235 0.698598
vt 0.580235 0.691589
vt 0.521526 0.691589
vt 0.521526 0.691589
vt 0.580235 0.691589
vt 0.580235 0.684579
vt 0.521526 0.684579
vt 0.521526 0.684579
vt 0.580235 0.684579
vt 0.580235 0.677570
vt 0.521526 0.677570
vt 0.586106 0.724299
vt 0.585532 0.717691
vt 0.584149 0.714953
vt 0.582765 0.717691
vt 0.582192 0.724299
vt 0.582765 0.730908
vt 0.584149 0.733645
vt 0.585532 0.730908
vt 0.591977 0.724299
vt 0.591403 0.717691
vt 0.590020 0.714953
vt 0.588636 0.717691
vt 0.588063 0.724299
vt 0.588636 0.730908
vt 0.590020 0.733645
vt 0.591403 0.730908
vt 0.625636 0.728037
vt 0.633855 0.728037
vt 0.633855 0.705607
vt 0.625636 0.705607
vt 0.692172 0.728037
vt 0.700391 0.728037
vt 0.700391 0.705607
vt 0.692172 0.705607
vt 0.727006 0.733645
vt 0.727006 0.705607
vt 0.736791 0.705607
vt 0.736791 0.733645
vt 0.738748 0.733645
vt 0.738748 0.705607
vt 0.744618 0.705607
vt 0.744618 0.733645
vt 0.746575 0.733645
vt 0.746575 0.705607
vt 0.756360 0.705607
vt 0.756360 0.733645
vt 0.758317 0.733645
vt 0.758317 0.705607
vt 0.764188 0.705607
vt 0.764188 0.733645
vt 0.801957 0.646729
vt 0.800895 0.617961
vt 0.797836 0.592663
vt 0.793151 0.573886
vt 0.787403 0.563895
vt 0.781286 0.563895
vt 0.775538 0.573886
vt 0.770852 0.592663
vt 0.767794 0.617961
vt 0.766732 0.646729
vt 0.767794 0.675497
vt 0.770852 0.700795
vt 0.775538 0.719572
vt 0.781286 0.729563
vt 0.787403 0.729563
vt 0.793151 0.719572
vt 0.797836 0.700795
vt 0.800895 0.675497
vt 0.841096 0.646729
vt 0.840034 0.617961
vt 0.836975 0.592663
vt 0.832290 0.573886
vt 0.826542 0.563895
vt 0.820425 0.563895
vt 0.814677 0.573886
vt 0.809991 0.592663
vt 0.806933 0.617961
vt 0.805871 0.646729
vt 0.806933 0.675497
vt 0.809991 0.700795
vt 0.814677 0.719572
vt 0.820425 0.729563
vt 0.826542 0.729563
vt 0.832290 0.719572
vt 0.836975 0.700795
vt 0.840034 0.675497
vt 0.844423 0.733645
vt 0.844423 0.686916
vt 0.852250 0.686916
vt 0.852250 0.733645
vt 0.854207 0.733645
vt 0.854207 0.686916
vt 0.862035 0.686916
vt 0.862035 0.733645
vt 0.863992 0.733645
vt 0.863992 0.686916
vt 0.871820 0.686916
vt 0.871820 0.733645
vt 0.873777 0.733645
vt 0.873777 0.686916
vt 0.881605 0.686916
vt 0.881605 0.733645
vt 0.883562 0.733645
vt 0.883562 0.686916
vt 0.891389 0.686916
vt 0.891389 0.733645
vt 0.893346 0.733645
vt 0.893346 0.686916
vt 0.901174 0.686916
vt 0.901174 0.733645
vt 0.903131 0.733645
vt 0.903131 0.686916
vt 0.910959 0.686916
vt 0.910959 0.733645
vt 0.912916 0.733645
vt 0.912916 0.686916
vt 0.920744 0.686916
vt 0.920744 0.733645
vt 0.922701 0.733645
vt 0.922701 0.686916
vt 0.930528 0.686916
vt 0.930528 0.733645
vt 0.932485 0.733645
vt 0.932485 0.686916
vt 0.940313 0.686916
vt 0.940313 0.733645
vt 0.942270 0.733645
vt 0.942270 0.686916
vt 0.950098 0.686916
vt 0.950098 0.733645
vt 0.952055 0.733645
vt 0.952055 0.686916
vt 0.959883 0.686916
vt 0.959883 0.733645
vt 0.961840 0.733645
vt 0.961840 0.686916
vt 0.969667 0.686916
vt 0.969667 0.733645
vt 0.971624 0.733645
vt 0.971624 0.686916
vt 0.979452 0.686916
vt 0.979452 0.733645
vt 0.981409 0.733645
vt 0.981409 0.686916
vt 0.989237 0.686916
vt 0.989237 0.733645
vt 0.991194 0.733645
vt 0.991194 0.686916
vt 0.999022 0.686916
vt 0.999022 0.733645
vt 0.000978 0.546729
vt 0.000978 0.500000
vt 0.008806 0.500000
vt 0.008806 0.546729
vt 0.010763 0.546729
vt 0.010763 0.500000
vt 0.018591 0.500000
vt 0.018591 0.546729
vt 0.024658 0.541121
vt 0.045793 0.541121
vt 0.048728 0.524299
vt 0.048728 0.431776
vt 0.044031 0.406542
vt 0.026419 0.406542
vt 0.021722 0.431776
vt 0.021722 0.524299
vt 0.055969 0.541121
vt 0.077104 0.541121
vt 0.080039 0.524299
vt 0.080039 0.431776
vt 0.075342 0.406542
vt 0.057730 0.406542
vt 0.053033 0.431776
vt 0.053033 0.524299
vt 0.083170 0.546729
vt 0.083170 0.490654
vt 0.104697 0.490654
vt 0.104697 0.546729
vt 0.106654 0.546729
vt 0.106654 0.490654
vt 0.112524 0.490654
vt 0.112524 0.546729
vt 0.114481 0.546729
vt 0.114481 0.490654
vt 0.134051 0.490654
vt 0.134051 0.546729
vt 0.136008 0.546729
vt 0.136008 0.490654
vt 0.143836 0.490654
vt 0.143836 0.546729
vt 0.145793 0.546729
vt 0.145793 0.490654
vt 0.163405 0.490654
vt 0.163405 0.546729
vt 0.165362 0.546729
vt 0.165362 0.490654
vt 0.173190 0.490654
vt 0.173190 0.546729
vt 0.175147 0.546729
vt 0.175147 0.490654
vt 0.194716 0.490654
vt 0.194716 0.546729
vt 0.196673 0.546729
vt 0.196673 0.490654
vt 0.202544 0.490654
vt 0.202544 0.546729
vt 0.255999 0.541121
vt 0.268910 0.507791
vt 0.225301 0.084172
vt 0.205675 0.134834
vt 0.324492 0.541121
vt 0.337404 0.507791
vt 0.293794 0.084172
vt 0.274168 0.134834
vt 0.341487 0.546729
vt 0.341487 0.481308
vt 0.357143 0.481308
vt 0.357143 0.546729
vt 0.359100 0.546729
vt 0.359100 0.481308
vt 0.458904 0.481308
vt 0.458904 0.546729
vt 0.460861 0.546729
vt 0.460861 0.481308
vt 0.484344 0.481308
vt 0.484344 0.546729
vt 0.486301 0.546729
vt 0.486301 0.481308
vt 0.586106 0.481308
vt 0.586106 0.546729
vt 0.592172 0.541121
vt 0.616830 0.541121
vt 0.619765 0.524299
vt 0.619765 0.471028
vt 0.615068 0.445794
vt 0.593933 0.445794
vt 0.589237 0.471028
vt 0.589237 0.524299
vt 0.627397 0.541121
vt 0.652055 0.541121
vt 0.654990 0.524299
vt 0.654990 0.471028
vt 0.650294 0.445794
vt 0.629159 0.445794
vt 0.624462 0.471028
vt 0.624462 0.524299
vt 0.658513 0.546729
vt 0.658513 0.490654
vt 0.683953 0.490654
vt 0.683953 0.546729
vt 0.685910 0.546729
vt 0.685910 0.490654
vt 0.691781 0.490654
vt 0.691781 0.546729
vt 0.693738 0.546729
vt 0.693738 0.490654
vt 0.705479 0.490654
vt 0.705479 0.546729
vt 0.707436 0.546729
vt 0.707436 0.490654
vt 0.715264 0.490654
vt 0.715264 0.546729
vt 0.717221 0.546729
vt 0.717221 0.490654
vt 0.738748 0.490654
vt 0.738748 0.546729
vt 0.740705 0.546729
vt 0.740705 0.490654
vt 0.748532 0.490654
vt 0.748532 0.546729
vt 0.750489 0.546729
vt 0.750489 0.490654
vt 0.762231 0.490654
vt 0.762231 0.546729
vt 0.764188 0.546729
vt 0.764188 0.490654
vt 0.770059 0.490654
vt 0.770059 0.546729
vt 0.832161 0.541121
vt 0.843479 0.505951
vt 0.790905 0.086666
vt 0.773190 0.141715
vt 0.906525 0.541121
vt 0.917843 0.505951
vt 0.865269 0.086666
vt 0.847554 0.141715
vt 0.920744 0.546729
vt 0.920744 0.481308
vt 0.934442 0.481308
vt 0.934442 0.546729
vt 0.000978 0.070093
vt 0.000978 0.004673
vt 0.104697 0.004673
vt 0.104697 0.070093
vt 0.106654 0.070093
vt 0.106654 0.004673
vt 0.128180 0.004673
vt 0.128180 0.070093
vt 0.130137 0.070093
vt 0.130137 0.004673
vt 0.233855 0.004673
vt 0.233855 0.070093
f 5/5 1/1 2/2
f 5/5 2/2 3/3
f 3/3 4/4 5/5
f 7/7 6/6 10/10
f 8/8 7/7 10/10
f 10/10 9/9 8/8
f 11/11 14/12 13/13 12/14
f 15/15 18/16 17/17 16/18
f 19/19 22/20 21/21 20/22
f 23/23 26/24 25/25 24/26
f 27/27 30/28 29/29 28/30
f 34/34 31/31 32/32
f 32/32 33/33 34/34
f 36/36 35/35 38/38
f 38/38 37/37 36/36
f 39/39 42/40 41/41 40/42
f 43/43 46/44 45/45 44/46
f 47/47 50/48 49/49 48/50
f 51/51 54/52 53/53 52/54
f 55/55 62/62 61/61
f 55/55 61/61 60/60
f 55/55 60/60 59/59
f 55/55 59/59 58/58
f 55/55 58/58 57/57
f 57/57 56/56 55/55
f 69/69 70/70 63/63
f 68/68 69/69 63/63
f 67/67 68/68 63/63
f 66/66 67/67 63/63
f 65/65 66/66 63/63
f 63/63 64/64 65/65
f 71/71 74/72 73/73 72/74
f 75/75 78/76 77/77 76/78
f 79/79 82/80 81/81 80/82
f 83/83 86/84 85/85 84/86
f 87/87 90/88 89/89 88/90
f 91/91 94/92 93/93 92/94
f 95/95 98/96 97/97 96/98
f 99/99 102/100 101/101 100/102
f 107/107 103/103 104/104
f 107/107 104/104 105/105
f 105/105 106/106 107/107
f 109/109 108/108 112/112
f 110/110 109/109 112/112
f 112/112 111/111 110/110
f 113/113 116/114 115/115 114/116
f 117/117 120/118 119/119 118/120
f 121/121 124/122 123/123 122/124
f 125/125 128/126 127/127 126/128
f 129/129 132/130 131/131 130/132
f 133/133 143/134 144/135 134/136
f 134/137 144/138 145/139 135/140
f 135/141 145/142 146/143 136/144
f 136/145 146/146 147/147 137/148
f 137/149 147/150 148/151 138/152
f 138/153 148/154 149/155 139/156
f 139/157 149/158 150/159 140/160
f 140/161 150/162 151/163 141/164
f 141/165 151/166 152/167 142/168
f 142/169 152/170 143/171 133/172
f 135/175 134/174 133/173
f 136/176 135/175 133/173
f 137/177 136/176 133/173
f 138/178 137/177 133/173
f 139/179 138/178 133/173
f 140/180 139/179 133/173
f 141/181 140/180 133/173
f 142/182 141/181 133/173
f 143/183 144/184 145/185
f 143/183 145/185 146/186
f 143/183 146/186 147/187
f 143/183 147/187 148/188
f 143/183 148/188 149/189
f 143/183 149/189 150/190
f 143/183 150/190 151/191
f 143/183 151/191 152/192
f 153/193 161/194 162/195 154/196
f 154/197 162/198 163/199 155/200
f 155/201 163/202 164/203 156/204
f 156/205 164/206 165/207 157/208
f 157/209 165/210 166/211 158/212
f 158/213 166/214 167/215 159/216
f 159/217 167/218 168/219 160/220
f 160/221 168/222 161/223 153/224
f 155/227 154/226 153/225
f 156/228 155/227 153/225
f 157/229 156/228 153/225
f 158/230 157/229 153/225
f 159/231 158/230 153/225
f 160/232 159/231 153/225
f 161/233 162/234 163/235
f 161/233 163/235 164/236
f 161/233 164/236 165/237
f 161/233 165/237 166/238
f 161/233 166/238 167/239
f 161/233 167/239 168/240
f 169/241 177/242 178/243 170/244
f 170/245 178/246 179/247 171/248
f 171/249 179/250 180/251 172/252
f 172/253 180/254 181/255 173/256
f 173/257 181/258 182/259 174/260
f 174/261 182/262 183/263 175/264
f 175/265 183/266 184/267 176/268
f 176/269 184/270 177/271 169/272
f 171/275 170/274 169/273
f 172/276 171/275 169/273
f 173/277 172/276 169/273
f 174/278 173/277 169/273
f 175/279 174/278 169/273
f 176/280 175/279 169/273
f 177/281 178/282 179/283
f 177/281 179/283 180/284
f 177/281 180/284 181/285
f 177/281 181/285 182/286
f 177/281 182/286 183/287
f 177/281 183/287 184/288
f 188/292 185/289 186/290
f 186/290 187/291 188/292
f 190/294 189/293 192/296
f 192/296 191/295 190/294
f 193/297 196/298 195/299 194/300
f 197/301 200/302 199/303 198/304
f 201/305 204/306 203/307 202/308
f 205/309 208/310 207/311 206/312
f 226/330 209/313 210/314
f 226/330 210/314 211/315
f 226/330 211/315 212/316
f 226/330 212/316 213/317
f 226/330 213/317 214/318
f 226/330 214/318 215/319
f 226/330 215/319 216/320
f 226/330 216/320 217/321
f 226/330 217/321 218/322
f 226/330 218/322 219/323
f 226/330 219/323 220/324
f 226/330 220/324 221/325
f 226/330 221/325 222/326
f 226/330 222/326 223/327
f 226/330 223/327 224/328
f 224/328 225/329 226/330
f 228/332 227/331 244/348
f 229/333 228/332 244/348
f 230/334 229/333 244/348
f 231/335 230/334 244/348
f 232/336 231/335 244/348
f 233/337 232/336 244/348
f 234/338 233/337 244/348
f 235/339 234/338 244/348
f 236/340 235/339 244/348
f 237/341 236/340 244/348
f 238/342 237/341 244/348
f 239/343 238/342 244/348
f 240/344 239/343 244/348
f 241/345 240/344 244/348
f 242/346 241/345 244/348
f 244/348 243/347 242/346
f 245/349 248/350 247/351 246/352
f 249/353 252/354 251/355 250/356
f 253/357 256/358 255/359 254/360
f 257/361 260/362 259/363 258/364
f 261/365 264/366 263/367 262/368
f 265/369 268/370 267/371 266/372
f 269/373 272/374 271/375 270/376
f 273/377 276/378 275/379 274/380
f 277/381 280/382 279/383 278/384
f 281/385 284/386 283/387 282/388
f 285/389 288/390 287/391 286/392
f 289/393 292/394 291/395 290/396
f 293/397 296/398 295/399 294/400
f 297/401 300/402 299/403 298/404
f 301/405 304/406 303/407 302/408
f 305/409 308/410 307/411 306/412
f 309/413 312/414 311/415 310/416
f 313/417 316/418 315/419 314/420
f 324/428 317/421 318/422
f 324/428 318/422 319/423
f 324/428 319/423 320/424
f 324/428 320/424 321/425
f 324/428 321/425 322/426
f 322/426 323/427 324/428
f 326/430 325/429 332/436
f 327/431 326/430 332/436
f 328/432 327/431 332/436
f 329/433 328/432 332/436
f 330/434 329/433 332/436
f 332/436 331/435 330/434
f 333/437 336/438 335/439 334/440
f 337/441 340/442 339/443 338/444
f 341/445 344/446 343/447 342/448
f 345/449 348/450 347/451 346/452
f 349/453 352/454 351/455 350/456
f 353/457 356/458 355/459 354/460
f 357/461 360/462 359/463 358/464
f 361/465 364/466 363/467 362/468
f 368/472 365/469 366/470
f 366/470 367/471 368/472
f 370/474 369/473 372/476
f 372/476 371/475 370/474
f 373/477 376/478 375/479 374/480
f 377/481 380/482 379/483 378/484
f 381/485 384/486 383/487 382/488
f 385/489 388/490 387/491 386/492
f 396/500 389/493 390/494
f 396/500 390/494 391/495
f 396/500 391/495 392/496
f 396/500 392/496 393/497
f 396/500 393/497 394/498
f 394/498 395/499 396/500
f 398/502 397/501 404/508
f 399/503 398/502 404/508
f 400/504 399/503 404/508
f 401/505 400/504 404/508
f 402/506 401/505 404/508
f 404/508 403/507 402/506
f 405/509 408/510 407/511 406/512
f 409/513 412/514 411/515 410/516
f 413/517 416/518 415/519 414/520
f 417/521 420/522 419/523 418/524
f 421/525 424/526 423/527 422/528
f 425/529 428/530 427/531 426/532
f 429/533 432/534 431/535 430/536
f 433/537 436/538 435/539 434/540
f 440/544 437/541 438/542
f 438/542 439/543 440/544
f 442/546 441/545 444/548
f 444/548 443/547 442/546
f 445/549 448/550 447/551 446/552
f 449/553 452/554 451/555 450/556
f 453/557 456/558 455/559 454/560
f 457/561 460/562 459/563 458/564
