mtllib pistol_fp_model.mtl
usemtl gun
v -5.2000 3.3000 0.7200
v 5.6000 3.3000 0.7200
v 6.4000 2.9000 0.7200
v 6.4000 0.6000 0.7200
v -5.2000 0.6000 0.7200
v -5.2000 3.3000 -0.7200
v 5.6000 3.3000 -0.7200
v 6.4000 2.9000 -0.7200
v 6.4000 0.6000 -0.7200
v -5.2000 0.6000 -0.7200
v -5.2000 3.3000 0.7200
v 5.6000 3.3000 0.7200
v 5.6000 3.3000 -0.7200
v -5.2000 3.3000 -0.7200
v 5.6000 3.3000 0.7200
v 6.4000 2.9000 0.7200
v 6.4000 2.9000 -0.7200
v 5.6000 3.3000 -0.7200
v 6.4000 2.9000 0.7200
v 6.4000 0.6000 0.7200
v 6.4000 0.6000 -0.7200
v 6.4000 2.9000 -0.7200
v 6.4000 0.6000 0.7200
v -5.2000 0.6000 0.7200
v -5.2000 0.6000 -0.7200
v 6.4000 0.6000 -0.7200
v -5.2000 0.6000 0.7200
v -5.2000 3.3000 0.7200
v -5.2000 3.3000 -0.7200
v -5.2000 0.6000 -0.7200
v -5.2000 0.6000 0.6200
v 4.2000 0.6000 0.6200
v 4.2000 -0.2000 0.6200
v 3.3000 -0.5000 0.6200
v 1.6000 -0.5000 0.6200
v 1.6000 -1.8000 0.6200
v -0.2000 -1.9000 0.6200
v -0.6000 -0.8000 0.6200
v -5.2000 -0.4000 0.6200
v -5.2000 0.6000 -0.6200
v 4.2000 0.6000 -0.6200
v 4.2000 -0.2000 -0.6200
v 3.3000 -0.5000 -0.6200
v 1.6000 -0.5000 -0.6200
v 1.6000 -1.8000 -0.6200
v -0.2000 -1.9000 -0.6200
v -0.6000 -0.8000 -0.6200
v -5.2000 -0.4000 -0.6200
v -5.2000 0.6000 0.6200
v 4.2000 0.6000 0.6200
v 4.2000 0.6000 -0.6200
v -5.2000 0.6000 -0.6200
v 4.2000 0.6000 0.6200
v 4.2000 -0.2000 0.6200
v 4.2000 -0.2000 -0.6200
v 4.2000 0.6000 -0.6200
v 4.2000 -0.2000 0.6200
v 3.3000 -0.5000 0.6200
v 3.3000 -0.5000 -0.6200
v 4.2000 -0.2000 -0.6200
v 3.3000 -0.5000 0.6200
v 1.6000 -0.5000 0.6200
v 1.6000 -0.5000 -0.6200
v 3.3000 -0.5000 -0.6200
v 1.6000 -0.5000 0.6200
v 1.6000 -1.8000 0.6200
v 1.6000 -1.8000 -0.6200
v 1.6000 -0.5000 -0.6200
v 1.6000 -1.8000 0.6200
v -0.2000 -1.9000 0.6200
v -0.2000 -1.9000 -0.6200
v 1.6000 -1.8000 -0.6200
v -0.2000 -1.9000 0.6200
v -0.6000 -0.8000 0.6200
v -0.6000 -0.8000 -0.6200
v -0.2000 -1.9000 -0.6200
v -0.6000 -0.8000 0.6200
v -5.2000 -0.4000 0.6200
v -5.2000 -0.4000 -0.6200
v -0.6000 -0.8000 -0.6200
v -5.2000 -0.4000 0.6200
v -5.2000 0.6000 0.6200
v -5.2000 0.6000 -0.6200
v -5.2000 -0.4000 -0.6200
v -5.0000 0.6000 0.7000
v -1.4000 0.6000 0.7000
v -2.2000 -5.0000 0.7000
v -5.7000 -5.0000 0.7000
v -5.0000 0.6000 -0.7000
v -1.4000 0.6000 -0.7000
v -2.2000 -5.0000 -0.7000
v -5.7000 -5.0000 -0.7000
v -5.0000 0.6000 0.7000
v -1.4000 0.6000 0.7000
v -1.4000 0.6000 -0.7000
v -5.0000 0.6000 -0.7000
v -1.4000 0.6000 0.7000
v -2.2000 -5.0000 0.7000
v -2.2000 -5.0000 -0.7000
v -1.4000 0.6000 -0.7000
v -2.2000 -5.0000 0.7000
v -5.7000 -5.0000 0.7000
v -5.7000 -5.0000 -0.7000
v -2.2000 -5.0000 -0.7000
v -5.7000 -5.0000 0.7000
v -5.0000 0.6000 0.7000
v -5.0000 0.6000 -0.7000
v -5.7000 -5.0000 -0.7000
v 5.0000 1.9000 0.3200
v 5.0000 1.6737 0.2263
v 5.0000 1.5800 0.0000
v 5.0000 1.6737 -0.2263
v 5.0000 1.9000 -0.3200
v 5.0000 2.1263 -0.2263
v 5.0000 2.2200 -0.0000
v 5.0000 2.1263 0.2263
v 6.5000 1.9000 0.3200
v 6.5000 1.6737 0.2263
v 6.5000 1.5800 0.0000
v 6.5000 1.6737 -0.2263
v 6.5000 1.9000 -0.3200
v 6.5000 2.1263 -0.2263
v 6.5000 2.2200 -0.0000
v 6.5000 2.1263 0.2263
v -1.9000 0.2000 1.3000
v 1.7000 0.2000 1.3000
v 2.2000 -0.4000 1.3000
v 2.2000 -3.7000 1.3000
v 1.4000 -4.6000 1.3000
v -1.6000 -4.6000 1.3000
v -2.4000 -3.7000 1.3000
v -2.4000 -0.4000 1.3000
v -1.9000 0.2000 -1.3000
v 1.7000 0.2000 -1.3000
v 2.2000 -0.4000 -1.3000
v 2.2000 -3.7000 -1.3000
v 1.4000 -4.6000 -1.3000
v -1.6000 -4.6000 -1.3000
v -2.4000 -3.7000 -1.3000
v -2.4000 -0.4000 -1.3000
v -1.9000 0.2000 1.3000
v 1.7000 0.2000 1.3000
v 1.7000 0.2000 -1.3000
v -1.9000 0.2000 -1.3000
v 1.7000 0.2000 1.3000
v 2.2000 -0.4000 1.3000
v 2.2000 -0.4000 -1.3000
v 1.7000 0.2000 -1.3000
v 2.2000 -0.4000 1.3000
v 2.2000 -3.7000 1.3000
v 2.2000 -3.7000 -1.3000
v 2.2000 -0.4000 -1.3000
v 2.2000 -3.7000 1.3000
v 1.4000 -4.6000 1.3000
v 1.4000 -4.6000 -1.3000
v 2.2000 -3.7000 -1.3000
v 1.4000 -4.6000 1.3000
v -1.6000 -4.6000 1.3000
v -1.6000 -4.6000 -1.3000
v 1.4000 -4.6000 -1.3000
v -1.6000 -4.6000 1.3000
v -2.4000 -3.7000 1.3000
v -2.4000 -3.7000 -1.3000
v -1.6000 -4.6000 -1.3000
v -2.4000 -3.7000 1.3000
v -2.4000 -0.4000 1.3000
v -2.4000 -0.4000 -1.3000
v -2.4000 -3.7000 -1.3000
v -2.4000 -0.4000 1.3000
v -1.9000 0.2000 1.3000
v -1.9000 0.2000 -1.3000
v -2.4000 -0.4000 -1.3000
v -2.0996 -4.2056 1.0500
v 0.0996 -5.3944 1.0500
v -7.3286 -20.5035 1.0500
v -10.6714 -18.6965 1.0500
v -2.0996 -4.2056 -1.0500
v 0.0996 -5.3944 -1.0500
v -7.3286 -20.5035 -1.0500
v -10.6714 -18.6965 -1.0500
v -2.0996 -4.2056 1.0500
v 0.0996 -5.3944 1.0500
v 0.0996 -5.3944 -1.0500
v -2.0996 -4.2056 -1.0500
v 0.0996 -5.3944 1.0500
v -7.3286 -20.5035 1.0500
v -7.3286 -20.5035 -1.0500
v 0.0996 -5.3944 -1.0500
v -7.3286 -20.5035 1.0500
v -10.6714 -18.6965 1.0500
v -10.6714 -18.6965 -1.0500
v -7.3286 -20.5035 -1.0500
v -10.6714 -18.6965 1.0500
v -2.0996 -4.2056 1.0500
v -2.0996 -4.2056 -1.0500
v -10.6714 -18.6965 -1.0500
v 1.2000 -1.6000 1.3000
v 3.6000 -1.6000 1.3000
v 4.1000 -2.2000 1.3000
v 4.1000 -4.3000 1.3000
v 3.3000 -5.2000 1.3000
v 1.5000 -5.2000 1.3000
v 0.7000 -4.3000 1.3000
v 0.7000 -2.2000 1.3000
v 1.2000 -1.6000 -1.3000
v 3.6000 -1.6000 -1.3000
v 4.1000 -2.2000 -1.3000
v 4.1000 -4.3000 -1.3000
v 3.3000 -5.2000 -1.3000
v 1.5000 -5.2000 -1.3000
v 0.7000 -4.3000 -1.3000
v 0.7000 -2.2000 -1.3000
v 1.2000 -1.6000 1.3000
v 3.6000 -1.6000 1.3000
v 3.6000 -1.6000 -1.3000
v 1.2000 -1.6000 -1.3000
v 3.6000 -1.6000 1.3000
v 4.1000 -2.2000 1.3000
v 4.1000 -2.2000 -1.3000
v 3.6000 -1.6000 -1.3000
v 4.1000 -2.2000 1.3000
v 4.1000 -4.3000 1.3000
v 4.1000 -4.3000 -1.3000
v 4.1000 -2.2000 -1.3000
v 4.1000 -4.3000 1.3000
v 3.3000 -5.2000 1.3000
v 3.3000 -5.2000 -1.3000
v 4.1000 -4.3000 -1.3000
v 3.3000 -5.2000 1.3000
v 1.5000 -5.2000 1.3000
v 1.5000 -5.2000 -1.3000
v 3.3000 -5.2000 -1.3000
v 1.5000 -5.2000 1.3000
v 0.7000 -4.3000 1.3000
v 0.7000 -4.3000 -1.3000
v 1.5000 -5.2000 -1.3000
v 0.7000 -4.3000 1.3000
v 0.7000 -2.2000 1.3000
v 0.7000 -2.2000 -1.3000
v 0.7000 -4.3000 -1.3000
v 0.7000 -2.2000 1.3000
v 1.2000 -1.6000 1.3000
v 1.2000 -1.6000 -1.3000
v 0.7000 -2.2000 -1.3000
v 1.2449 -4.4542 1.0500
v 3.1551 -5.5458 1.0500
v -3.5240 -18.4434 1.0500
v -6.4760 -16.7566 1.0500
v 1.2449 -4.4542 -1.0500
v 3.1551 -5.5458 -1.0500
v -3.5240 -18.4434 -1.0500
v -6.4760 -16.7566 -1.0500
v 1.2449 -4.4542 1.0500
v 3.1551 -5.5458 1.0500
v 3.1551 -5.5458 -1.0500
v 1.2449 -4.4542 -1.0500
v 3.1551 -5.5458 1.0500
v -3.5240 -18.4434 1.0500
v -3.5240 -18.4434 -1.0500
v 3.1551 -5.5458 -1.0500
v -3.5240 -18.4434 1.0500
v -6.4760 -16.7566 1.0500
v -6.4760 -16.7566 -1.0500
v -3.5240 -18.4434 -1.0500
v -6.4760 -16.7566 1.0500
v 1.2449 -4.4542 1.0500
v 1.2449 -4.4542 -1.0500
v -6.4760 -16.7566 -1.0500
vt 0.002161 0.971831
vt 0.065815 0.971831
vt 0.070530 0.954930
vt 0.070530 0.857746
vt 0.002161 0.857746
vt 0.074853 0.971831
vt 0.138507 0.971831
vt 0.143222 0.954930
vt 0.143222 0.857746
vt 0.074853 0.857746
vt 0.146365 0.992958
vt 0.146365 0.922535
vt 0.211198 0.922535
vt 0.211198 0.992958
vt 0.213163 0.992958
vt 0.213163 0.922535
vt 0.219057 0.922535
vt 0.219057 0.992958
vt 0.221022 0.992958
vt 0.221022 0.922535
vt 0.234774 0.922535
vt 0.234774 0.992958
vt 0.236739 0.992958
vt 0.236739 0.922535
vt 0.305501 0.922535
vt 0.305501 0.992958
vt 0.307466 0.992958
vt 0.307466 0.922535
vt 0.325147 0.922535
vt 0.325147 0.992958
vt 0.328291 0.984507
vt 0.383694 0.984507
vt 0.383694 0.950704
vt 0.378389 0.938028
vt 0.368369 0.938028
vt 0.368369 0.883099
vt 0.357760 0.878873
vt 0.355403 0.925352
vt 0.328291 0.942254
vt 0.389194 0.984507
vt 0.444597 0.984507
vt 0.444597 0.950704
vt 0.439293 0.938028
vt 0.429273 0.938028
vt 0.429273 0.883099
vt 0.418664 0.878873
vt 0.416306 0.925352
vt 0.389194 0.942254
vt 0.448919 0.992958
vt 0.448919 0.936620
vt 0.505894 0.936620
vt 0.505894 0.992958
vt 0.507859 0.992958
vt 0.507859 0.936620
vt 0.513752 0.936620
vt 0.513752 0.992958
vt 0.515717 0.992958
vt 0.515717 0.936620
vt 0.521611 0.936620
vt 0.521611 0.992958
vt 0.523576 0.992958
vt 0.523576 0.936620
vt 0.535363 0.936620
vt 0.535363 0.992958
vt 0.537328 0.992958
vt 0.537328 0.936620
vt 0.545187 0.936620
vt 0.545187 0.992958
vt 0.547151 0.992958
vt 0.547151 0.936620
vt 0.558939 0.936620
vt 0.558939 0.992958
vt 0.560904 0.992958
vt 0.560904 0.936620
vt 0.568762 0.936620
vt 0.568762 0.992958
vt 0.570727 0.992958
vt 0.570727 0.936620
vt 0.598232 0.936620
vt 0.598232 0.992958
vt 0.600196 0.992958
vt 0.600196 0.936620
vt 0.606090 0.936620
vt 0.606090 0.992958
vt 0.617485 0.984507
vt 0.638703 0.984507
vt 0.633988 0.747887
vt 0.613360 0.747887
vt 0.654813 0.984507
vt 0.676031 0.984507
vt 0.671316 0.747887
vt 0.650688 0.747887
vt 0.682711 0.992958
vt 0.682711 0.922535
vt 0.704322 0.922535
vt 0.704322 0.992958
vt 0.706287 0.992958
vt 0.706287 0.922535
vt 0.739686 0.922535
vt 0.739686 0.992958
vt 0.741650 0.992958
vt 0.741650 0.922535
vt 0.763261 0.922535
vt 0.763261 0.992958
vt 0.765226 0.992958
vt 0.765226 0.922535
vt 0.798625 0.922535
vt 0.798625 0.992958
vt 0.800589 0.992958
vt 0.810413 0.992958
vt 0.810413 0.980634
vt 0.800589 0.980634
vt 0.800589 0.980634
vt 0.810413 0.980634
vt 0.810413 0.968310
vt 0.800589 0.968310
vt 0.800589 0.968310
vt 0.810413 0.968310
vt 0.810413 0.955986
vt 0.800589 0.955986
vt 0.800589 0.955986
vt 0.810413 0.955986
vt 0.810413 0.943662
vt 0.800589 0.943662
vt 0.800589 0.943662
vt 0.810413 0.943662
vt 0.810413 0.931338
vt 0.800589 0.931338
vt 0.800589 0.931338
vt 0.810413 0.931338
vt 0.810413 0.919014
vt 0.800589 0.919014
vt 0.800589 0.919014
vt 0.810413 0.919014
vt 0.810413 0.906690
vt 0.800589 0.906690
vt 0.800589 0.906690
vt 0.810413 0.906690
vt 0.810413 0.894366
vt 0.800589 0.894366
vt 0.816306 0.978873
vt 0.815731 0.968914
vt 0.814342 0.964789
vt 0.812953 0.968914
vt 0.812377 0.978873
vt 0.812953 0.988832
vt 0.814342 0.992958
vt 0.815731 0.988832
vt 0.822200 0.978873
vt 0.821625 0.968914
vt 0.820236 0.964789
vt 0.818847 0.968914
vt 0.818271 0.978873
vt 0.818847 0.988832
vt 0.820236 0.992958
vt 0.821625 0.988832
vt 0.828291 0.984507
vt 0.849509 0.984507
vt 0.852456 0.959155
vt 0.852456 0.819718
vt 0.847741 0.781690
vt 0.830059 0.781690
vt 0.825344 0.819718
vt 0.825344 0.959155
vt 0.859725 0.984507
vt 0.880943 0.984507
vt 0.883890 0.959155
vt 0.883890 0.819718
vt 0.879175 0.781690
vt 0.861493 0.781690
vt 0.856778 0.819718
vt 0.856778 0.959155
vt 0.887033 0.992958
vt 0.887033 0.880282
vt 0.908644 0.880282
vt 0.908644 0.992958
vt 0.910609 0.992958
vt 0.910609 0.880282
vt 0.916503 0.880282
vt 0.916503 0.992958
vt 0.918468 0.992958
vt 0.918468 0.880282
vt 0.938114 0.880282
vt 0.938114 0.992958
vt 0.940079 0.992958
vt 0.940079 0.880282
vt 0.947937 0.880282
vt 0.947937 0.992958
vt 0.949902 0.992958
vt 0.949902 0.880282
vt 0.967583 0.880282
vt 0.967583 0.992958
vt 0.969548 0.992958
vt 0.969548 0.880282
vt 0.977407 0.880282
vt 0.977407 0.992958
vt 0.979371 0.992958
vt 0.979371 0.880282
vt 0.999018 0.880282
vt 0.999018 0.992958
vt 0.000982 0.697183
vt 0.000982 0.584507
vt 0.006876 0.584507
vt 0.006876 0.697183
vt 0.060541 0.688732
vt 0.073503 0.638502
vt 0.029722 0.000090
vt 0.010020 0.076440
vt 0.129303 0.688732
vt 0.142266 0.638502
vt 0.098485 0.000090
vt 0.078782 0.076440
vt 0.146365 0.697183
vt 0.146365 0.598592
vt 0.162083 0.598592
vt 0.162083 0.697183
vt 0.164047 0.697183
vt 0.164047 0.598592
vt 0.264244 0.598592
vt 0.264244 0.697183
vt 0.266208 0.697183
vt 0.266208 0.598592
vt 0.289784 0.598592
vt 0.289784 0.697183
vt 0.291749 0.697183
vt 0.291749 0.598592
vt 0.391945 0.598592
vt 0.391945 0.697183
vt 0.398035 0.688732
vt 0.412181 0.688732
vt 0.415128 0.663380
vt 0.415128 0.574648
vt 0.410413 0.536620
vt 0.399804 0.536620
vt 0.395088 0.574648
vt 0.395088 0.663380
vt 0.423576 0.688732
vt 0.437721 0.688732
vt 0.440668 0.663380
vt 0.440668 0.574648
vt 0.435953 0.536620
vt 0.425344 0.536620
vt 0.420629 0.574648
vt 0.420629 0.663380
vt 0.444990 0.697183
vt 0.444990 0.584507
vt 0.460707 0.584507
vt 0.460707 0.697183
vt 0.462672 0.697183
vt 0.462672 0.584507
vt 0.468566 0.584507
vt 0.468566 0.697183
vt 0.470530 0.697183
vt 0.470530 0.584507
vt 0.484283 0.584507
vt 0.484283 0.697183
vt 0.486248 0.697183
vt 0.486248 0.584507
vt 0.494106 0.584507
vt 0.494106 0.697183
vt 0.496071 0.697183
vt 0.496071 0.584507
vt 0.507859 0.584507
vt 0.507859 0.697183
vt 0.509823 0.697183
vt 0.509823 0.584507
vt 0.517682 0.584507
vt 0.517682 0.697183
vt 0.519646 0.697183
vt 0.519646 0.584507
vt 0.533399 0.584507
vt 0.533399 0.697183
vt 0.535363 0.697183
vt 0.535363 0.584507
vt 0.541257 0.584507
vt 0.541257 0.697183
vt 0.589907 0.688732
vt 0.601166 0.642612
vt 0.561800 0.097640
vt 0.544401 0.168916
vt 0.650811 0.688732
vt 0.662069 0.642612
vt 0.622703 0.097640
vt 0.605305 0.168916
vt 0.665029 0.697183
vt 0.665029 0.598592
vt 0.678782 0.598592
vt 0.678782 0.697183
vt 0.680747 0.697183
vt 0.680747 0.598592
vt 0.767191 0.598592
vt 0.767191 0.697183
vt 0.769155 0.697183
vt 0.769155 0.598592
vt 0.790766 0.598592
vt 0.790766 0.697183
vt 0.792731 0.697183
vt 0.792731 0.598592
vt 0.879175 0.598592
vt 0.879175 0.697183
f 5/5 1/1 2/2
f 5/5 2/2 3/3
f 3/3 4/4 5/5
f 7/7 6/6 10/10
f 8/8 7/7 10/10
f 10/10 9/9 8/8
f 11/11 14/12 13/13 12/14
f 15/15 18/16 17/17 16/18
f 19/19 22/20 21/21 20/22
f 23/23 26/24 25/25 24/26
f 27/27 30/28 29/29 28/30
f 39/39 31/31 32/32
f 39/39 32/32 33/33
f 39/39 33/33 34/34
f 39/39 34/34 35/35
f 35/35 36/36 37/37
f 35/35 37/37 38/38
f 35/35 38/38 39/39
f 41/41 40/40 48/48
f 42/42 41/41 48/48
f 43/43 42/42 48/48
f 44/44 43/43 48/48
f 46/46 45/45 44/44
f 47/47 46/46 44/44
f 48/48 47/47 44/44
f 49/49 52/50 51/51 50/52
f 53/53 56/54 55/55 54/56
f 57/57 60/58 59/59 58/60
f 61/61 64/62 63/63 62/64
f 65/65 68/66 67/67 66/68
f 69/69 72/70 71/71 70/72
f 73/73 76/74 75/75 74/76
f 77/77 80/78 79/79 78/80
f 81/81 84/82 83/83 82/84
f 88/88 85/85 86/86
f 86/86 87/87 88/88
f 90/90 89/89 92/92
f 92/92 91/91 90/90
f 93/93 96/94 95/95 94/96
f 97/97 100/98 99/99 98/100
f 101/101 104/102 103/103 102/104
f 105/105 108/106 107/107 106/108
f 109/109 117/110 118/111 110/112
f 110/113 118/114 119/115 111/116
f 111/117 119/118 120/119 112/120
f 112/121 120/122 121/123 113/124
f 113/125 121/126 122/127 114/128
f 114/129 122/130 123/131 115/132
f 115/133 123/134 124/135 116/136
f 116/137 124/138 117/139 109/140
f 111/143 110/142 109/141
f 112/144 111/143 109/141
f 113/145 112/144 109/141
f 114/146 113/145 109/141
f 115/147 114/146 109/141
f 116/148 115/147 109/141
f 117/149 118/150 119/151
f 117/149 119/151 120/152
f 117/149 120/152 121/153
f 117/149 121/153 122/154
f 117/149 122/154 123/155
f 117/149 123/155 124/156
f 132/164 125/157 126/158
f 132/164 126/158 127/159
f 132/164 127/159 128/160
f 132/164 128/160 129/161
f 132/164 129/161 130/162
f 130/162 131/163 132/164
f 134/166 133/165 140/172
f 135/167 134/166 140/172
f 136/168 135/167 140/172
f 137/169 136/168 140/172
f 138/170 137/169 140/172
f 140/172 139/171 138/170
f 141/173 144/174 143/175 142/176
f 145/177 148/178 147/179 146/180
f 149/181 152/182 151/183 150/184
f 153/185 156/186 155/187 154/188
f 157/189 160/190 159/191 158/192
f 161/193 164/194 163/195 162/196
f 165/197 168/198 167/199 166/200
f 169/201 172/202 171/203 170/204
f 176/208 173/205 174/206
f 174/206 175/207 176/208
f 178/210 177/209 180/212
f 180/212 179/211 178/210
f 181/213 184/214 183/215 182/216
f 185/217 188/218 187/219 186/220
f 189/221 192/222 191/223 190/224
f 193/225 196/226 195/227 194/228
f 204/236 197/229 198/230
f 204/236 198/230 199/231
f 204/236 199/231 200/232
f 204/236 200/232 201/233
f 204/236 201/233 202/234
f 202/234 203/235 204/236
f 206/238 205/237 212/244
f 207/239 206/238 212/244
f 208/240 207/239 212/244
f 209/241 208/240 212/244
f 210/242 209/241 212/244
f 212/244 211/243 210/242
f 213/245 216/246 215/247 214/248
f 217/249 220/250 219/251 218/252
f 221/253 224/254 223/255 222/256
f 225/257 228/258 227/259 226/260
f 229/261 232/262 231/263 230/264
f 233/265 236/266 235/267 234/268
f 237/269 240/270 239/271 238/272
f 241/273 244/274 243/275 242/276
f 248/280 245/277 246/278
f 246/278 247/279 248/280
f 250/282 249/281 252/284
f 252/284 251/283 250/282
f 253/285 256/286 255/287 254/288
f 257/289 260/290 259/291 258/292
f 261/293 264/294 263/295 262/296
f 265/297 268/298 267/299 266/300
