mtllib pistol_model.mtl
usemtl gun
v -5.2000 3.3000 0.7200
v 5.6000 3.3000 0.7200
v 6.4000 2.9000 0.7200
v 6.4000 0.6000 0.7200
v -5.2000 0.6000 0.7200
v -5.2000 3.3000 -0.7200
v 5.6000 3.3000 -0.7200
v 6.4000 2.9000 -0.7200
v 6.4000 0.6000 -0.7200
v -5.2000 0.6000 -0.7200
v -5.2000 3.3000 0.7200
v 5.6000 3.3000 0.7200
v 5.6000 3.3000 -0.7200
v -5.2000 3.3000 -0.7200
v 5.6000 3.3000 0.7200
v 6.4000 2.9000 0.7200
v 6.4000 2.9000 -0.7200
v 5.6000 3.3000 -0.7200
v 6.4000 2.9000 0.7200
v 6.4000 0.6000 0.7200
v 6.4000 0.6000 -0.7200
v 6.4000 2.9000 -0.7200
v 6.4000 0.6000 0.7200
v -5.2000 0.6000 0.7200
v -5.2000 0.6000 -0.7200
v 6.4000 0.6000 -0.7200
v -5.2000 0.6000 0.7200
v -5.2000 3.3000 0.7200
v -5.2000 3.3000 -0.7200
v -5.2000 0.6000 -0.7200
v -5.2000 0.6000 0.6200
v 4.2000 0.6000 0.6200
v 4.2000 -0.2000 0.6200
v 3.3000 -0.5000 0.6200
v 1.6000 -0.5000 0.6200
v 1.6000 -1.8000 0.6200
v -0.2000 -1.9000 0.6200
v -0.6000 -0.8000 0.6200
v -5.2000 -0.4000 0.6200
v -5.2000 0.6000 -0.6200
v 4.2000 0.6000 -0.6200
v 4.2000 -0.2000 -0.6200
v 3.3000 -0.5000 -0.6200
v 1.6000 -0.5000 -0.6200
v 1.6000 -1.8000 -0.6200
v -0.2000 -1.9000 -0.6200
v -0.6000 -0.8000 -0.6200
v -5.2000 -0.4000 -0.6200
v -5.2000 0.6000 0.6200
v 4.2000 0.6000 0.6200
v 4.2000 0.6000 -0.6200
v -5.2000 0.6000 -0.6200
v 4.2000 0.6000 0.6200
v 4.2000 -0.2000 0.6200
v 4.2000 -0.2000 -0.6200
v 4.2000 0.6000 -0.6200
v 4.2000 -0.2000 0.6200
v 3.3000 -0.5000 0.6200
v 3.3000 -0.5000 -0.6200
v 4.2000 -0.2000 -0.6200
v 3.3000 -0.5000 0.6200
v 1.6000 -0.5000 0.6200
v 1.6000 -0.5000 -0.6200
v 3.3000 -0.5000 -0.6200
v 1.6000 -0.5000 0.6200
v 1.6000 -1.8000 0.6200
v 1.6000 -1.8000 -0.6200
v 1.6000 -0.5000 -0.6200
v 1.6000 -1.8000 0.6200
v -0.2000 -1.9000 0.6200
v -0.2000 -1.9000 -0.6200
v 1.6000 -1.8000 -0.6200
v -0.2000 -1.9000 0.6200
v -0.6000 -0.8000 0.6200
v -0.6000 -0.8000 -0.6200
v -0.2000 -1.9000 -0.6200
v -0.6000 -0.8000 0.6200
v -5.2000 -0.4000 0.6200
v -5.2000 -0.4000 -0.6200
v -0.6000 -0.8000 -0.6200
v -5.2000 -0.4000 0.6200
v -5.2000 0.6000 0.6200
v -5.2000 0.6000 -0.6200
v -5.2000 -0.4000 -0.6200
v -5.0000 0.6000 0.7000
v -1.4000 0.6000 0.7000
v -2.2000 -5.0000 0.7000
v -5.7000 -5.0000 0.7000
v -5.0000 0.6000 -0.7000
v -1.4000 0.6000 -0.7000
v -2.2000 -5.0000 -0.7000
v -5.7000 -5.0000 -0.7000
v -5.0000 0.6000 0.7000
v -1.4000 0.6000 0.7000
v -1.4000 0.6000 -0.7000
v -5.0000 0.6000 -0.7000
v -1.4000 0.6000 0.7000
v -2.2000 -5.0000 0.7000
v -2.2000 -5.0000 -0.7000
v -1.4000 0.6000 -0.7000
v -2.2000 -5.0000 0.7000
v -5.7000 -5.0000 0.7000
v -5.7000 -5.0000 -0.7000
v -2.2000 -5.0000 -0.7000
v -5.7000 -5.0000 0.7000
v -5.0000 0.6000 0.7000
v -5.0000 0.6000 -0.7000
v -5.7000 -5.0000 -0.7000
v 5.0000 1.9000 0.3200
v 5.0000 1.6737 0.2263
v 5.0000 1.5800 0.0000
v 5.0000 1.6737 -0.2263
v 5.0000 1.9000 -0.3200
v 5.0000 2.1263 -0.2263
v 5.0000 2.2200 -0.0000
v 5.0000 2.1263 0.2263
v 6.5000 1.9000 0.3200
v 6.5000 1.6737 0.2263
v 6.5000 1.5800 0.0000
v 6.5000 1.6737 -0.2263
v 6.5000 1.9000 -0.3200
v 6.5000 2.1263 -0.2263
v 6.5000 2.2200 -0.0000
v 6.5000 2.1263 0.2263
vt 0.002625 0.888889
vt 0.079952 0.888889
vt 0.085680 0.822222
vt 0.085680 0.438889
vt 0.002625 0.438889
vt 0.090931 0.888889
vt 0.168258 0.888889
vt 0.173986 0.822222
vt 0.173986 0.438889
vt 0.090931 0.438889
vt 0.177804 0.972222
vt 0.177804 0.694444
vt 0.256563 0.694444
vt 0.256563 0.972222
vt 0.258950 0.972222
vt 0.258950 0.694444
vt 0.266110 0.694444
vt 0.266110 0.972222
vt 0.268496 0.972222
vt 0.268496 0.694444
vt 0.285203 0.694444
vt 0.285203 0.972222
vt 0.287589 0.972222
vt 0.287589 0.694444
vt 0.371122 0.694444
vt 0.371122 0.972222
vt 0.373508 0.972222
vt 0.373508 0.694444
vt 0.394988 0.694444
vt 0.394988 0.972222
vt 0.398807 0.938889
vt 0.466110 0.938889
vt 0.466110 0.805556
vt 0.459666 0.755556
vt 0.447494 0.755556
vt 0.447494 0.538889
vt 0.434606 0.522222
vt 0.431742 0.705556
vt 0.398807 0.772222
vt 0.472792 0.938889
vt 0.540095 0.938889
vt 0.540095 0.805556
vt 0.533652 0.755556
vt 0.521480 0.755556
vt 0.521480 0.538889
vt 0.508592 0.522222
vt 0.505728 0.705556
vt 0.472792 0.772222
vt 0.545346 0.972222
vt 0.545346 0.750000
vt 0.614558 0.750000
vt 0.614558 0.972222
vt 0.616945 0.972222
vt 0.616945 0.750000
vt 0.624105 0.750000
vt 0.624105 0.972222
vt 0.626492 0.972222
vt 0.626492 0.750000
vt 0.633652 0.750000
vt 0.633652 0.972222
vt 0.636038 0.972222
vt 0.636038 0.750000
vt 0.650358 0.750000
vt 0.650358 0.972222
vt 0.652745 0.972222
vt 0.652745 0.750000
vt 0.662291 0.750000
vt 0.662291 0.972222
vt 0.664678 0.972222
vt 0.664678 0.750000
vt 0.678998 0.750000
vt 0.678998 0.972222
vt 0.681384 0.972222
vt 0.681384 0.750000
vt 0.690931 0.750000
vt 0.690931 0.972222
vt 0.693317 0.972222
vt 0.693317 0.750000
vt 0.726730 0.750000
vt 0.726730 0.972222
vt 0.729117 0.972222
vt 0.729117 0.750000
vt 0.736277 0.750000
vt 0.736277 0.972222
vt 0.750119 0.938889
vt 0.775895 0.938889
vt 0.770167 0.005556
vt 0.745107 0.005556
vt 0.795465 0.938889
vt 0.821241 0.938889
vt 0.815513 0.005556
vt 0.790453 0.005556
vt 0.829356 0.972222
vt 0.829356 0.694444
vt 0.855609 0.694444
vt 0.855609 0.972222
vt 0.857995 0.972222
vt 0.857995 0.694444
vt 0.898568 0.694444
vt 0.898568 0.972222
vt 0.900955 0.972222
vt 0.900955 0.694444
vt 0.927208 0.694444
vt 0.927208 0.972222
vt 0.929594 0.972222
vt 0.929594 0.694444
vt 0.970167 0.694444
vt 0.970167 0.972222
vt 0.972554 0.972222
vt 0.984487 0.972222
vt 0.984487 0.923611
vt 0.972554 0.923611
vt 0.972554 0.923611
vt 0.984487 0.923611
vt 0.984487 0.875000
vt 0.972554 0.875000
vt 0.972554 0.875000
vt 0.984487 0.875000
vt 0.984487 0.826389
vt 0.972554 0.826389
vt 0.972554 0.826389
vt 0.984487 0.826389
vt 0.984487 0.777778
vt 0.972554 0.777778
vt 0.972554 0.777778
vt 0.984487 0.777778
vt 0.984487 0.729167
vt 0.972554 0.729167
vt 0.972554 0.729167
vt 0.984487 0.729167
vt 0.984487 0.680556
vt 0.972554 0.680556
vt 0.972554 0.680556
vt 0.984487 0.680556
vt 0.984487 0.631944
vt 0.972554 0.631944
vt 0.972554 0.631944
vt 0.984487 0.631944
vt 0.984487 0.583333
vt 0.972554 0.583333
vt 0.991647 0.916667
vt 0.990948 0.877383
vt 0.989260 0.861111
vt 0.987573 0.877383
vt 0.986874 0.916667
vt 0.987573 0.955950
vt 0.989260 0.972222
vt 0.990948 0.955950
vt 0.998807 0.916667
vt 0.998108 0.877383
vt 0.996420 0.861111
vt 0.994732 0.877383
vt 0.994033 0.916667
vt 0.994732 0.955950
vt 0.996420 0.972222
vt 0.998108 0.955950
f 5/5 1/1 2/2
f 5/5 2/2 3/3
f 3/3 4/4 5/5
f 7/7 6/6 10/10
f 8/8 7/7 10/10
f 10/10 9/9 8/8
f 11/11 14/12 13/13 12/14
f 15/15 18/16 17/17 16/18
f 19/19 22/20 21/21 20/22
f 23/23 26/24 25/25 24/26
f 27/27 30/28 29/29 28/30
f 39/39 31/31 32/32
f 39/39 32/32 33/33
f 39/39 33/33 34/34
f 39/39 34/34 35/35
f 35/35 36/36 37/37
f 35/35 37/37 38/38
f 35/35 38/38 39/39
f 41/41 40/40 48/48
f 42/42 41/41 48/48
f 43/43 42/42 48/48
f 44/44 43/43 48/48
f 46/46 45/45 44/44
f 47/47 46/46 44/44
f 48/48 47/47 44/44
f 49/49 52/50 51/51 50/52
f 53/53 56/54 55/55 54/56
f 57/57 60/58 59/59 58/60
f 61/61 64/62 63/63 62/64
f 65/65 68/66 67/67 66/68
f 69/69 72/70 71/71 70/72
f 73/73 76/74 75/75 74/76
f 77/77 80/78 79/79 78/80
f 81/81 84/82 83/83 82/84
f 88/88 85/85 86/86
f 86/86 87/87 88/88
f 90/90 89/89 92/92
f 92/92 91/91 90/90
f 93/93 96/94 95/95 94/96
f 97/97 100/98 99/99 98/100
f 101/101 104/102 103/103 102/104
f 105/105 108/106 107/107 106/108
f 109/109 117/110 118/111 110/112
f 110/113 118/114 119/115 111/116
f 111/117 119/118 120/119 112/120
f 112/121 120/122 121/123 113/124
f 113/125 121/126 122/127 114/128
f 114/129 122/130 123/131 115/132
f 115/133 123/134 124/135 116/136
f 116/137 124/138 117/139 109/140
f 111/143 110/142 109/141
f 112/144 111/143 109/141
f 113/145 112/144 109/141
f 114/146 113/145 109/141
f 115/147 114/146 109/141
f 116/148 115/147 109/141
f 117/149 118/150 119/151
f 117/149 119/151 120/152
f 117/149 120/152 121/153
f 117/149 121/153 122/154
f 117/149 122/154 123/155
f 117/149 123/155 124/156
