mtllib revolver_fp_model.mtl
usemtl gun
v -1.2000 3.4000 0.5500
v 9.0000 3.4000 0.5500
v 9.0000 1.6000 0.5500
v 3.2000 1.6000 0.5500
v 3.2000 -1.4000 0.5500
v -1.0000 -1.4000 0.5500
v -1.2000 3.4000 -0.5500
v 9.0000 3.4000 -0.5500
v 9.0000 1.6000 -0.5500
v 3.2000 1.6000 -0.5500
v 3.2000 -1.4000 -0.5500
v -1.0000 -1.4000 -0.5500
v -1.2000 3.4000 0.5500
v 9.0000 3.4000 0.5500
v 9.0000 3.4000 -0.5500
v -1.2000 3.4000 -0.5500
v 9.0000 3.4000 0.5500
v 9.0000 1.6000 0.5500
v 9.0000 1.6000 -0.5500
v 9.0000 3.4000 -0.5500
v 9.0000 1.6000 0.5500
v 3.2000 1.6000 0.5500
v 3.2000 1.6000 -0.5500
v 9.0000 1.6000 -0.5500
v 3.2000 1.6000 0.5500
v 3.2000 -1.4000 0.5500
v 3.2000 -1.4000 -0.5500
v 3.2000 1.6000 -0.5500
v 3.2000 -1.4000 0.5500
v -1.0000 -1.4000 0.5500
v -1.0000 -1.4000 -0.5500
v 3.2000 -1.4000 -0.5500
v -1.0000 -1.4000 0.5500
v -1.2000 3.4000 0.5500
v -1.2000 3.4000 -0.5500
v -1.0000 -1.4000 -0.5500
v 0.6000 3.5000 0.9500
v 4.4000 3.5000 0.9500
v 4.4000 -0.2000 0.9500
v 0.6000 -0.2000 0.9500
v 0.6000 3.5000 -0.9500
v 4.4000 3.5000 -0.9500
v 4.4000 -0.2000 -0.9500
v 0.6000 -0.2000 -0.9500
v 0.6000 3.5000 0.9500
v 4.4000 3.5000 0.9500
v 4.4000 3.5000 -0.9500
v 0.6000 3.5000 -0.9500
v 4.4000 3.5000 0.9500
v 4.4000 -0.2000 0.9500
v 4.4000 -0.2000 -0.9500
v 4.4000 3.5000 -0.9500
v 4.4000 -0.2000 0.9500
v 0.6000 -0.2000 0.9500
v 0.6000 -0.2000 -0.9500
v 4.4000 -0.2000 -0.9500
v 0.6000 -0.2000 0.9500
v 0.6000 3.5000 0.9500
v 0.6000 3.5000 -0.9500
v 0.6000 -0.2000 -0.9500
v -1.0000 1.0000 0.6200
v -2.4000 1.1000 0.6200
v -3.6000 -0.2000 0.6200
v -4.8000 -2.0000 0.6200
v -5.0000 -4.6000 0.6200
v -4.4000 -5.0000 0.6200
v -2.4000 -4.8000 0.6200
v -1.3000 -2.2000 0.6200
v -1.0000 1.0000 -0.6200
v -2.4000 1.1000 -0.6200
v -3.6000 -0.2000 -0.6200
v -4.8000 -2.0000 -0.6200
v -5.0000 -4.6000 -0.6200
v -4.4000 -5.0000 -0.6200
v -2.4000 -4.8000 -0.6200
v -1.3000 -2.2000 -0.6200
v -1.3000 -2.2000 0.6200
v -2.4000 -4.8000 0.6200
v -2.4000 -4.8000 -0.6200
v -1.3000 -2.2000 -0.6200
v -2.4000 -4.8000 0.6200
v -4.4000 -5.0000 0.6200
v -4.4000 -5.0000 -0.6200
v -2.4000 -4.8000 -0.6200
v -4.4000 -5.0000 0.6200
v -5.0000 -4.6000 0.6200
v -5.0000 -4.6000 -0.6200
v -4.4000 -5.0000 -0.6200
v -5.0000 -4.6000 0.6200
v -4.8000 -2.0000 0.6200
v -4.8000 -2.0000 -0.6200
v -5.0000 -4.6000 -0.6200
v -4.8000 -2.0000 0.6200
v -3.6000 -0.2000 0.6200
v -3.6000 -0.2000 -0.6200
v -4.8000 -2.0000 -0.6200
v -3.6000 -0.2000 0.6200
v -2.4000 1.1000 0.6200
v -2.4000 1.1000 -0.6200
v -3.6000 -0.2000 -0.6200
v -2.4000 1.1000 0.6200
v -1.0000 1.0000 0.6200
v -1.0000 1.0000 -0.6200
v -2.4000 1.1000 -0.6200
v -1.0000 1.0000 0.6200
v -1.3000 -2.2000 0.6200
v -1.3000 -2.2000 -0.6200
v -1.0000 1.0000 -0.6200
v 3.4000 2.2000 0.5000
v 3.4000 1.9061 0.4045
v 3.4000 1.7245 0.1545
v 3.4000 1.7245 -0.1545
v 3.4000 1.9061 -0.4045
v 3.4000 2.2000 -0.5000
v 3.4000 2.4939 -0.4045
v 3.4000 2.6755 -0.1545
v 3.4000 2.6755 0.1545
v 3.4000 2.4939 0.4045
v 9.0000 2.2000 0.5000
v 9.0000 1.9061 0.4045
v 9.0000 1.7245 0.1545
v 9.0000 1.7245 -0.1545
v 9.0000 1.9061 -0.4045
v 9.0000 2.2000 -0.5000
v 9.0000 2.4939 -0.4045
v 9.0000 2.6755 -0.1545
v 9.0000 2.6755 0.1545
v 9.0000 2.4939 0.4045
v -1.9000 -0.0000 1.3000
v 1.7000 -0.0000 1.3000
v 2.2000 -0.6000 1.3000
v 2.2000 -3.9000 1.3000
v 1.4000 -4.8000 1.3000
v -1.6000 -4.8000 1.3000
v -2.4000 -3.9000 1.3000
v -2.4000 -0.6000 1.3000
v -1.9000 -0.0000 -1.3000
v 1.7000 -0.0000 -1.3000
v 2.2000 -0.6000 -1.3000
v 2.2000 -3.9000 -1.3000
v 1.4000 -4.8000 -1.3000
v -1.6000 -4.8000 -1.3000
v -2.4000 -3.9000 -1.3000
v -2.4000 -0.6000 -1.3000
v -1.9000 -0.0000 1.3000
v 1.7000 -0.0000 1.3000
v 1.7000 -0.0000 -1.3000
v -1.9000 -0.0000 -1.3000
v 1.7000 -0.0000 1.3000
v 2.2000 -0.6000 1.3000
v 2.2000 -0.6000 -1.3000
v 1.7000 -0.0000 -1.3000
v 2.2000 -0.6000 1.3000
v 2.2000 -3.9000 1.3000
v 2.2000 -3.9000 -1.3000
v 2.2000 -0.6000 -1.3000
v 2.2000 -3.9000 1.3000
v 1.4000 -4.8000 1.3000
v 1.4000 -4.8000 -1.3000
v 2.2000 -3.9000 -1.3000
v 1.4000 -4.8000 1.3000
v -1.6000 -4.8000 1.3000
v -1.6000 -4.8000 -1.3000
v 1.4000 -4.8000 -1.3000
v -1.6000 -4.8000 1.3000
v -2.4000 -3.9000 1.3000
v -2.4000 -3.9000 -1.3000
v -1.6000 -4.8000 -1.3000
v -2.4000 -3.9000 1.3000
v -2.4000 -0.6000 1.3000
v -2.4000 -0.6000 -1.3000
v -2.4000 -3.9000 -1.3000
v -2.4000 -0.6000 1.3000
v -1.9000 -0.0000 1.3000
v -1.9000 -0.0000 -1.3000
v -2.4000 -0.6000 -1.3000
v -2.0996 -4.4056 1.0500
v 0.0996 -5.5944 1.0500
v -7.3286 -20.7035 1.0500
v -10.6714 -18.8965 1.0500
v -2.0996 -4.4056 -1.0500
v 0.0996 -5.5944 -1.0500
v -7.3286 -20.7035 -1.0500
v -10.6714 -18.8965 -1.0500
v -2.0996 -4.4056 1.0500
v 0.0996 -5.5944 1.0500
v 0.0996 -5.5944 -1.0500
v -2.0996 -4.4056 -1.0500
v 0.0996 -5.5944 1.0500
v -7.3286 -20.7035 1.0500
v -7.3286 -20.7035 -1.0500
v 0.0996 -5.5944 -1.0500
v -7.3286 -20.7035 1.0500
v -10.6714 -18.8965 1.0500
v -10.6714 -18.8965 -1.0500
v -7.3286 -20.7035 -1.0500
v -10.6714 -18.8965 1.0500
v -2.0996 -4.4056 1.0500
v -2.0996 -4.4056 -1.0500
v -10.6714 -18.8965 -1.0500
v 1.2000 -1.8000 1.3000
v 3.6000 -1.8000 1.3000
v 4.1000 -2.4000 1.3000
v 4.1000 -4.5000 1.3000
v 3.3000 -5.4000 1.3000
v 1.5000 -5.4000 1.3000
v 0.7000 -4.5000 1.3000
v 0.7000 -2.4000 1.3000
v 1.2000 -1.8000 -1.3000
v 3.6000 -1.8000 -1.3000
v 4.1000 -2.4000 -1.3000
v 4.1000 -4.5000 -1.3000
v 3.3000 -5.4000 -1.3000
v 1.5000 -5.4000 -1.3000
v 0.7000 -4.5000 -1.3000
v 0.7000 -2.4000 -1.3000
v 1.2000 -1.8000 1.3000
v 3.6000 -1.8000 1.3000
v 3.6000 -1.8000 -1.3000
v 1.2000 -1.8000 -1.3000
v 3.6000 -1.8000 1.3000
v 4.1000 -2.4000 1.3000
v 4.1000 -2.4000 -1.3000
v 3.6000 -1.8000 -1.3000
v 4.1000 -2.4000 1.3000
v 4.1000 -4.5000 1.3000
v 4.1000 -4.5000 -1.3000
v 4.1000 -2.4000 -1.3000
v 4.1000 -4.5000 1.3000
v 3.3000 -5.4000 1.3000
v 3.3000 -5.4000 -1.3000
v 4.1000 -4.5000 -1.3000
v 3.3000 -5.4000 1.3000
v 1.5000 -5.4000 1.3000
v 1.5000 -5.4000 -1.3000
v 3.3000 -5.4000 -1.3000
v 1.5000 -5.4000 1.3000
v 0.7000 -4.5000 1.3000
v 0.7000 -4.5000 -1.3000
v 1.5000 -5.4000 -1.3000
v 0.7000 -4.5000 1.3000
v 0.7000 -2.4000 1.3000
v 0.7000 -2.4000 -1.3000
v 0.7000 -4.5000 -1.3000
v 0.7000 -2.4000 1.3000
v 1.2000 -1.8000 1.3000
v 1.2000 -1.8000 -1.3000
v 0.7000 -2.4000 -1.3000
v 1.2449 -4.6542 1.0500
v 3.1551 -5.7458 1.0500
v -3.5240 -18.6434 1.0500
v -6.4760 -16.9566 1.0500
v 1.2449 -4.6542 -1.0500
v 3.1551 -5.7458 -1.0500
v -3.5240 -18.6434 -1.0500
v -6.4760 -16.9566 -1.0500
v 1.2449 -4.6542 1.0500
v 3.1551 -5.7458 1.0500
v 3.1551 -5.7458 -1.0500
v 1.2449 -4.6542 -1.0500
v 3.1551 -5.7458 1.0500
v -3.5240 -18.6434 1.0500
v -3.5240 -18.6434 -1.0500
v 3.1551 -5.7458 -1.0500
v -3.5240 -18.6434 1.0500
v -6.4760 -16.9566 1.0500
v -6.4760 -16.9566 -1.0500
v -3.5240 -18.6434 -1.0500
v -6.4760 -16.9566 1.0500
v 1.2449 -4.6542 1.0500
v 1.2449 -4.6542 -1.0500
v -6.4760 -16.9566 -1.0500
vt 0.027789 0.952055
vt 0.089858 0.952055
vt 0.089858 0.878082
vt 0.054564 0.878082
vt 0.054564 0.754795
vt 0.029006 0.754795
vt 0.121095 0.952055
vt 0.183164 0.952055
vt 0.183164 0.878082
vt 0.147870 0.878082
vt 0.147870 0.754795
vt 0.122312 0.754795
vt 0.187627 0.993151
vt 0.187627 0.938356
vt 0.250507 0.938356
vt 0.250507 0.993151
vt 0.252535 0.993151
vt 0.252535 0.938356
vt 0.264706 0.938356
vt 0.264706 0.993151
vt 0.266734 0.993151
vt 0.266734 0.938356
vt 0.303245 0.938356
vt 0.303245 0.993151
vt 0.305274 0.993151
vt 0.305274 0.938356
vt 0.323529 0.938356
vt 0.323529 0.993151
vt 0.325558 0.993151
vt 0.325558 0.938356
vt 0.351927 0.938356
vt 0.351927 0.993151
vt 0.353955 0.993151
vt 0.353955 0.938356
vt 0.384381 0.938356
vt 0.384381 0.993151
vt 0.387627 0.980822
vt 0.410751 0.980822
vt 0.410751 0.828767
vt 0.387627 0.828767
vt 0.418053 0.980822
vt 0.441176 0.980822
vt 0.441176 0.828767
vt 0.418053 0.828767
vt 0.447262 0.993151
vt 0.447262 0.910959
vt 0.471602 0.910959
vt 0.471602 0.993151
vt 0.473631 0.993151
vt 0.473631 0.910959
vt 0.497972 0.910959
vt 0.497972 0.993151
vt 0.500000 0.993151
vt 0.500000 0.910959
vt 0.524341 0.910959
vt 0.524341 0.993151
vt 0.526369 0.993151
vt 0.526369 0.910959
vt 0.550710 0.910959
vt 0.550710 0.993151
vt 0.585598 0.976712
vt 0.577079 0.980822
vt 0.569777 0.927397
vt 0.562475 0.853425
vt 0.561258 0.746575
vt 0.564909 0.730137
vt 0.577079 0.738356
vt 0.583773 0.845205
vt 0.624138 0.976712
vt 0.615619 0.980822
vt 0.608316 0.927397
vt 0.601014 0.853425
vt 0.599797 0.746575
vt 0.603448 0.730137
vt 0.615619 0.738356
vt 0.622312 0.845205
vt 0.629817 0.993151
vt 0.629817 0.938356
vt 0.648073 0.938356
vt 0.648073 0.993151
vt 0.650101 0.993151
vt 0.650101 0.938356
vt 0.664300 0.938356
vt 0.664300 0.993151
vt 0.666329 0.993151
vt 0.666329 0.938356
vt 0.672414 0.938356
vt 0.672414 0.993151
vt 0.674442 0.993151
vt 0.674442 0.938356
vt 0.690669 0.938356
vt 0.690669 0.993151
vt 0.692698 0.993151
vt 0.692698 0.938356
vt 0.706897 0.938356
vt 0.706897 0.993151
vt 0.708925 0.993151
vt 0.708925 0.938356
vt 0.721095 0.938356
vt 0.721095 0.993151
vt 0.723124 0.993151
vt 0.723124 0.938356
vt 0.733266 0.938356
vt 0.733266 0.993151
vt 0.735294 0.993151
vt 0.735294 0.938356
vt 0.755578 0.938356
vt 0.755578 0.993151
vt 0.757606 0.993151
vt 0.792089 0.993151
vt 0.792089 0.979452
vt 0.757606 0.979452
vt 0.757606 0.979452
vt 0.792089 0.979452
vt 0.792089 0.965753
vt 0.757606 0.965753
vt 0.757606 0.965753
vt 0.792089 0.965753
vt 0.792089 0.952055
vt 0.757606 0.952055
vt 0.757606 0.952055
vt 0.792089 0.952055
vt 0.792089 0.938356
vt 0.757606 0.938356
vt 0.757606 0.938356
vt 0.792089 0.938356
vt 0.792089 0.924658
vt 0.757606 0.924658
vt 0.757606 0.924658
vt 0.792089 0.924658
vt 0.792089 0.910959
vt 0.757606 0.910959
vt 0.757606 0.910959
vt 0.792089 0.910959
vt 0.792089 0.897260
vt 0.757606 0.897260
vt 0.757606 0.897260
vt 0.792089 0.897260
vt 0.792089 0.883562
vt 0.757606 0.883562
vt 0.757606 0.883562
vt 0.792089 0.883562
vt 0.792089 0.869863
vt 0.757606 0.869863
vt 0.757606 0.869863
vt 0.792089 0.869863
vt 0.792089 0.856164
vt 0.757606 0.856164
vt 0.800203 0.972603
vt 0.799622 0.960525
vt 0.798100 0.953060
vt 0.796220 0.953060
vt 0.794699 0.960525
vt 0.794118 0.972603
vt 0.794699 0.984681
vt 0.796220 0.992145
vt 0.798100 0.992145
vt 0.799622 0.984681
vt 0.808316 0.972603
vt 0.807735 0.960525
vt 0.806214 0.953060
vt 0.804334 0.953060
vt 0.802812 0.960525
vt 0.802231 0.972603
vt 0.802812 0.984681
vt 0.804334 0.992145
vt 0.806214 0.992145
vt 0.807735 0.984681
vt 0.814604 0.984932
vt 0.836511 0.984932
vt 0.839554 0.960274
vt 0.839554 0.824658
vt 0.834686 0.787671
vt 0.816430 0.787671
vt 0.811562 0.824658
vt 0.811562 0.960274
vt 0.847059 0.984932
vt 0.868966 0.984932
vt 0.872008 0.960274
vt 0.872008 0.824658
vt 0.867140 0.787671
vt 0.848884 0.787671
vt 0.844016 0.824658
vt 0.844016 0.960274
vt 0.875254 0.993151
vt 0.875254 0.883562
vt 0.897566 0.883562
vt 0.897566 0.993151
vt 0.899594 0.993151
vt 0.899594 0.883562
vt 0.905680 0.883562
vt 0.905680 0.993151
vt 0.907708 0.993151
vt 0.907708 0.883562
vt 0.927992 0.883562
vt 0.927992 0.993151
vt 0.930020 0.993151
vt 0.930020 0.883562
vt 0.938134 0.883562
vt 0.938134 0.993151
vt 0.940162 0.993151
vt 0.940162 0.883562
vt 0.958418 0.883562
vt 0.958418 0.993151
vt 0.960446 0.993151
vt 0.960446 0.883562
vt 0.968560 0.883562
vt 0.968560 0.993151
vt 0.970588 0.993151
vt 0.970588 0.883562
vt 0.990872 0.883562
vt 0.990872 0.993151
vt 0.992901 0.993151
vt 0.992901 0.883562
vt 0.998986 0.883562
vt 0.998986 0.993151
vt 0.054392 0.669863
vt 0.067775 0.621009
vt 0.022573 0.000087
vt 0.002231 0.074346
vt 0.125386 0.669863
vt 0.138769 0.621009
vt 0.093567 0.000087
vt 0.073225 0.074346
vt 0.143002 0.678082
vt 0.143002 0.582192
vt 0.159229 0.582192
vt 0.159229 0.678082
vt 0.161258 0.678082
vt 0.161258 0.582192
vt 0.264706 0.582192
vt 0.264706 0.678082
vt 0.266734 0.678082
vt 0.266734 0.582192
vt 0.291075 0.582192
vt 0.291075 0.678082
vt 0.293103 0.678082
vt 0.293103 0.582192
vt 0.396552 0.582192
vt 0.396552 0.678082
vt 0.402840 0.669863
vt 0.417444 0.669863
vt 0.420487 0.645205
vt 0.420487 0.558904
vt 0.415619 0.521918
vt 0.404665 0.521918
vt 0.399797 0.558904
vt 0.399797 0.645205
vt 0.429209 0.669863
vt 0.443813 0.669863
vt 0.446856 0.645205
vt 0.446856 0.558904
vt 0.441988 0.521918
vt 0.431034 0.521918
vt 0.426166 0.558904
vt 0.426166 0.645205
vt 0.451318 0.678082
vt 0.451318 0.568493
vt 0.467546 0.568493
vt 0.467546 0.678082
vt 0.469574 0.678082
vt 0.469574 0.568493
vt 0.475659 0.568493
vt 0.475659 0.678082
vt 0.477688 0.678082
vt 0.477688 0.568493
vt 0.491886 0.568493
vt 0.491886 0.678082
vt 0.493915 0.678082
vt 0.493915 0.568493
vt 0.502028 0.568493
vt 0.502028 0.678082
vt 0.504057 0.678082
vt 0.504057 0.568493
vt 0.516227 0.568493
vt 0.516227 0.678082
vt 0.518256 0.678082
vt 0.518256 0.568493
vt 0.526369 0.568493
vt 0.526369 0.678082
vt 0.528398 0.678082
vt 0.528398 0.568493
vt 0.542596 0.568493
vt 0.542596 0.678082
vt 0.544625 0.678082
vt 0.544625 0.568493
vt 0.550710 0.568493
vt 0.550710 0.678082
vt 0.600939 0.669863
vt 0.612562 0.625007
vt 0.571919 0.094965
vt 0.553955 0.164288
vt 0.663819 0.669863
vt 0.675443 0.625007
vt 0.634799 0.094965
vt 0.616836 0.164288
vt 0.678499 0.678082
vt 0.678499 0.582192
vt 0.692698 0.582192
vt 0.692698 0.678082
vt 0.694726 0.678082
vt 0.694726 0.582192
vt 0.783976 0.582192
vt 0.783976 0.678082
vt 0.786004 0.678082
vt 0.786004 0.582192
vt 0.808316 0.582192
vt 0.808316 0.678082
vt 0.810345 0.678082
vt 0.810345 0.582192
vt 0.899594 0.582192
vt 0.899594 0.678082
f 1/1 2/2 3/3
f 1/1 3/3 4/4
f 6/6 1/1 4/4
f 4/4 5/5 6/6
f 9/9 8/8 7/7
f 10/10 9/9 7/7
f 10/10 7/7 12/12
f 12/12 11/11 10/10
f 13/13 16/14 15/15 14/16
f 17/17 20/18 19/19 18/20
f 21/21 24/22 23/23 22/24
f 25/25 28/26 27/27 26/28
f 29/29 32/30 31/31 30/32
f 33/33 36/34 35/35 34/36
f 40/40 37/37 38/38
f 38/38 39/39 40/40
f 42/42 41/41 44/44
f 44/44 43/43 42/42
f 45/45 48/46 47/47 46/48
f 49/49 52/50 51/51 50/52
f 53/53 56/54 55/55 54/56
f 57/57 60/58 59/59 58/60
f 61/61 68/68 67/67
f 61/61 67/67 66/66
f 61/61 66/66 65/65
f 61/61 65/65 64/64
f 61/61 64/64 63/63
f 63/63 62/62 61/61
f 75/75 76/76 69/69
f 74/74 75/75 69/69
f 73/73 74/74 69/69
f 72/72 73/73 69/69
f 71/71 72/72 69/69
f 69/69 70/70 71/71
f 77/77 80/78 79/79 78/80
f 81/81 84/82 83/83 82/84
f 85/85 88/86 87/87 86/88
f 89/89 92/90 91/91 90/92
f 93/93 96/94 95/95 94/96
f 97/97 100/98 99/99 98/100
f 101/101 104/102 103/103 102/104
f 105/105 108/106 107/107 106/108
f 109/109 119/110 120/111 110/112
f 110/113 120/114 121/115 111/116
f 111/117 121/118 122/119 112/120
f 112/121 122/122 123/123 113/124
f 113/125 123/126 124/127 114/128
f 114/129 124/130 125/131 115/132
f 115/133 125/134 126/135 116/136
f 116/137 126/138 127/139 117/140
f 117/141 127/142 128/143 118/144
f 118/145 128/146 119/147 109/148
f 111/151 110/150 109/149
f 112/152 111/151 109/149
f 113/153 112/152 109/149
f 114/154 113/153 109/149
f 115/155 114/154 109/149
f 116/156 115/155 109/149
f 117/157 116/156 109/149
f 118/158 117/157 109/149
f 119/159 120/160 121/161
f 119/159 121/161 122/162
f 119/159 122/162 123/163
f 119/159 123/163 124/164
f 119/159 124/164 125/165
f 119/159 125/165 126/166
f 119/159 126/166 127/167
f 119/159 127/167 128/168
f 136/176 129/169 130/170
f 136/176 130/170 131/171
f 136/176 131/171 132/172
f 136/176 132/172 133/173
f 136/176 133/173 134/174
f 134/174 135/175 136/176
f 138/178 137/177 144/184
f 139/179 138/178 144/184
f 140/180 139/179 144/184
f 141/181 140/180 144/184
f 142/182 141/181 144/184
f 144/184 143/183 142/182
f 145/185 148/186 147/187 146/188
f 149/189 152/190 151/191 150/192
f 153/193 156/194 155/195 154/196
f 157/197 160/198 159/199 158/200
f 161/201 164/202 163/203 162/204
f 165/205 168/206 167/207 166/208
f 169/209 172/210 171/211 170/212
f 173/213 176/214 175/215 174/216
f 180/220 177/217 178/218
f 178/218 179/219 180/220
f 182/222 181/221 184/224
f 184/224 183/223 182/222
f 185/225 188/226 187/227 186/228
f 189/229 192/230 191/231 190/232
f 193/233 196/234 195/235 194/236
f 197/237 200/238 199/239 198/240
f 208/248 201/241 202/242
f 208/248 202/242 203/243
f 208/248 203/243 204/244
f 208/248 204/244 205/245
f 208/248 205/245 206/246
f 206/246 207/247 208/248
f 210/250 209/249 216/256
f 211/251 210/250 216/256
f 212/252 211/251 216/256
f 213/253 212/252 216/256
f 214/254 213/253 216/256
f 216/256 215/255 214/254
f 217/257 220/258 219/259 218/260
f 221/261 224/262 223/263 222/264
f 225/265 228/266 227/267 226/268
f 229/269 232/270 231/271 230/272
f 233/273 236/274 235/275 234/276
f 237/277 240/278 239/279 238/280
f 241/281 244/282 243/283 242/284
f 245/285 248/286 247/287 246/288
f 252/292 249/289 250/290
f 250/290 251/291 252/292
f 254/294 253/293 256/296
f 256/296 255/295 254/294
f 257/297 260/298 259/299 258/300
f 261/301 264/302 263/303 262/304
f 265/305 268/306 267/307 266/308
f 269/309 272/310 271/311 270/312
