mtllib revolver_model.mtl
usemtl gun
v -1.2000 3.4000 0.5500
v 9.0000 3.4000 0.5500
v 9.0000 1.6000 0.5500
v 3.2000 1.6000 0.5500
v 3.2000 -1.4000 0.5500
v -1.0000 -1.4000 0.5500
v -1.2000 3.4000 -0.5500
v 9.0000 3.4000 -0.5500
v 9.0000 1.6000 -0.5500
v 3.2000 1.6000 -0.5500
v 3.2000 -1.4000 -0.5500
v -1.0000 -1.4000 -0.5500
v -1.2000 3.4000 0.5500
v 9.0000 3.4000 0.5500
v 9.0000 3.4000 -0.5500
v -1.2000 3.4000 -0.5500
v 9.0000 3.4000 0.5500
v 9.0000 1.6000 0.5500
v 9.0000 1.6000 -0.5500
v 9.0000 3.4000 -0.5500
v 9.0000 1.6000 0.5500
v 3.2000 1.6000 0.5500
v 3.2000 1.6000 -0.5500
v 9.0000 1.6000 -0.5500
v 3.2000 1.6000 0.5500
v 3.2000 -1.4000 0.5500
v 3.2000 -1.4000 -0.5500
v 3.2000 1.6000 -0.5500
v 3.2000 -1.4000 0.5500
v -1.0000 -1.4000 0.5500
v -1.0000 -1.4000 -0.5500
v 3.2000 -1.4000 -0.5500
v -1.0000 -1.4000 0.5500
v -1.2000 3.4000 0.5500
v -1.2000 3.4000 -0.5500
v -1.0000 -1.4000 -0.5500
v 0.6000 3.5000 0.9500
v 4.4000 3.5000 0.9500
v 4.4000 -0.2000 0.9500
v 0.6000 -0.2000 0.9500
v 0.6000 3.5000 -0.9500
v 4.4000 3.5000 -0.9500
v 4.4000 -0.2000 -0.9500
v 0.6000 -0.2000 -0.9500
v 0.6000 3.5000 0.9500
v 4.4000 3.5000 0.9500
v 4.4000 3.5000 -0.9500
v 0.6000 3.5000 -0.9500
v 4.4000 3.5000 0.9500
v 4.4000 -0.2000 0.9500
v 4.4000 -0.2000 -0.9500
v 4.4000 3.5000 -0.9500
v 4.4000 -0.2000 0.9500
v 0.6000 -0.2000 0.9500
v 0.6000 -0.2000 -0.9500
v 4.4000 -0.2000 -0.9500
v 0.6000 -0.2000 0.9500
v 0.6000 3.5000 0.9500
v 0.6000 3.5000 -0.9500
v 0.6000 -0.2000 -0.9500
v -1.0000 1.0000 0.6200
v -2.4000 1.1000 0.6200
v -3.6000 -0.2000 0.6200
v -4.8000 -2.0000 0.6200
v -5.0000 -4.6000 0.6200
v -4.4000 -5.0000 0.6200
v -2.4000 -4.8000 0.6200
v -1.3000 -2.2000 0.6200
v -1.0000 1.0000 -0.6200
v -2.4000 1.1000 -0.6200
v -3.6000 -0.2000 -0.6200
v -4.8000 -2.0000 -0.6200
v -5.0000 -4.6000 -0.6200
v -4.4000 -5.0000 -0.6200
v -2.4000 -4.8000 -0.6200
v -1.3000 -2.2000 -0.6200
v -1.3000 -2.2000 0.6200
v -2.4000 -4.8000 0.6200
v -2.4000 -4.8000 -0.6200
v -1.3000 -2.2000 -0.6200
v -2.4000 -4.8000 0.6200
v -4.4000 -5.0000 0.6200
v -4.4000 -5.0000 -0.6200
v -2.4000 -4.8000 -0.6200
v -4.4000 -5.0000 0.6200
v -5.0000 -4.6000 0.6200
v -5.0000 -4.6000 -0.6200
v -4.4000 -5.0000 -0.6200
v -5.0000 -4.6000 0.6200
v -4.8000 -2.0000 0.6200
v -4.8000 -2.0000 -0.6200
v -5.0000 -4.6000 -0.6200
v -4.8000 -2.0000 0.6200
v -3.6000 -0.2000 0.6200
v -3.6000 -0.2000 -0.6200
v -4.8000 -2.0000 -0.6200
v -3.6000 -0.2000 0.6200
v -2.4000 1.1000 0.6200
v -2.4000 1.1000 -0.6200
v -3.6000 -0.2000 -0.6200
v -2.4000 1.1000 0.6200
v -1.0000 1.0000 0.6200
v -1.0000 1.0000 -0.6200
v -2.4000 1.1000 -0.6200
v -1.0000 1.0000 0.6200
v -1.3000 -2.2000 0.6200
v -1.3000 -2.2000 -0.6200
v -1.0000 1.0000 -0.6200
v 3.4000 2.2000 0.5000
v 3.4000 1.9061 0.4045
v 3.4000 1.7245 0.1545
v 3.4000 1.7245 -0.1545
v 3.4000 1.9061 -0.4045
v 3.4000 2.2000 -0.5000
v 3.4000 2.4939 -0.4045
v 3.4000 2.6755 -0.1545
v 3.4000 2.6755 0.1545
v 3.4000 2.4939 0.4045
v 9.0000 2.2000 0.5000
v 9.0000 1.9061 0.4045
v 9.0000 1.7245 0.1545
v 9.0000 1.7245 -0.1545
v 9.0000 1.9061 -0.4045
v 9.0000 2.2000 -0.5000
v 9.0000 2.4939 -0.4045
v 9.0000 2.6755 -0.1545
v 9.0000 2.6755 0.1545
v 9.0000 2.4939 0.4045
vt 0.034336 0.840909
vt 0.111028 0.840909
vt 0.111028 0.595455
vt 0.067419 0.595455
vt 0.067419 0.186364
vt 0.035840 0.186364
vt 0.149624 0.840909
vt 0.226316 0.840909
vt 0.226316 0.595455
vt 0.182707 0.595455
vt 0.182707 0.186364
vt 0.151128 0.186364
vt 0.231830 0.977273
vt 0.231830 0.795455
vt 0.309524 0.795455
vt 0.309524 0.977273
vt 0.312030 0.977273
vt 0.312030 0.795455
vt 0.327068 0.795455
vt 0.327068 0.977273
vt 0.329574 0.977273
vt 0.329574 0.795455
vt 0.374687 0.795455
vt 0.374687 0.977273
vt 0.377193 0.977273
vt 0.377193 0.795455
vt 0.399749 0.795455
vt 0.399749 0.977273
vt 0.402256 0.977273
vt 0.402256 0.795455
vt 0.434837 0.795455
vt 0.434837 0.977273
vt 0.437343 0.977273
vt 0.437343 0.795455
vt 0.474937 0.795455
vt 0.474937 0.977273
vt 0.478947 0.936364
vt 0.507519 0.936364
vt 0.507519 0.431818
vt 0.478947 0.431818
vt 0.516541 0.936364
vt 0.545113 0.936364
vt 0.545113 0.431818
vt 0.516541 0.431818
vt 0.552632 0.977273
vt 0.552632 0.704545
vt 0.582707 0.704545
vt 0.582707 0.977273
vt 0.585213 0.977273
vt 0.585213 0.704545
vt 0.615288 0.704545
vt 0.615288 0.977273
vt 0.617794 0.977273
vt 0.617794 0.704545
vt 0.647870 0.704545
vt 0.647870 0.977273
vt 0.650376 0.977273
vt 0.650376 0.704545
vt 0.680451 0.704545
vt 0.680451 0.977273
vt 0.723559 0.922727
vt 0.713033 0.936364
vt 0.704010 0.759091
vt 0.694987 0.513636
vt 0.693484 0.159091
vt 0.697995 0.104545
vt 0.713033 0.131818
vt 0.721303 0.486364
vt 0.771178 0.922727
vt 0.760652 0.936364
vt 0.751629 0.759091
vt 0.742607 0.513636
vt 0.741103 0.159091
vt 0.745614 0.104545
vt 0.760652 0.131818
vt 0.768922 0.486364
vt 0.778195 0.977273
vt 0.778195 0.795455
vt 0.800752 0.795455
vt 0.800752 0.977273
vt 0.803258 0.977273
vt 0.803258 0.795455
vt 0.820802 0.795455
vt 0.820802 0.977273
vt 0.823308 0.977273
vt 0.823308 0.795455
vt 0.830827 0.795455
vt 0.830827 0.977273
vt 0.833333 0.977273
vt 0.833333 0.795455
vt 0.853383 0.795455
vt 0.853383 0.977273
vt 0.855890 0.977273
vt 0.855890 0.795455
vt 0.873434 0.795455
vt 0.873434 0.977273
vt 0.875940 0.977273
vt 0.875940 0.795455
vt 0.890977 0.795455
vt 0.890977 0.977273
vt 0.893484 0.977273
vt 0.893484 0.795455
vt 0.906015 0.795455
vt 0.906015 0.977273
vt 0.908521 0.977273
vt 0.908521 0.795455
vt 0.933584 0.795455
vt 0.933584 0.977273
vt 0.936090 0.977273
vt 0.978697 0.977273
vt 0.978697 0.931818
vt 0.936090 0.931818
vt 0.936090 0.931818
vt 0.978697 0.931818
vt 0.978697 0.886364
vt 0.936090 0.886364
vt 0.936090 0.886364
vt 0.978697 0.886364
vt 0.978697 0.840909
vt 0.936090 0.840909
vt 0.936090 0.840909
vt 0.978697 0.840909
vt 0.978697 0.795455
vt 0.936090 0.795455
vt 0.936090 0.795455
vt 0.978697 0.795455
vt 0.978697 0.750000
vt 0.936090 0.750000
vt 0.936090 0.750000
vt 0.978697 0.750000
vt 0.978697 0.704545
vt 0.936090 0.704545
vt 0.936090 0.704545
vt 0.978697 0.704545
vt 0.978697 0.659091
vt 0.936090 0.659091
vt 0.936090 0.659091
vt 0.978697 0.659091
vt 0.978697 0.613636
vt 0.936090 0.613636
vt 0.936090 0.613636
vt 0.978697 0.613636
vt 0.978697 0.568182
vt 0.936090 0.568182
vt 0.936090 0.568182
vt 0.978697 0.568182
vt 0.978697 0.522727
vt 0.936090 0.522727
vt 0.988722 0.909091
vt 0.988004 0.869015
vt 0.986124 0.844246
vt 0.983801 0.844246
vt 0.981921 0.869015
vt 0.981203 0.909091
vt 0.981921 0.949167
vt 0.983801 0.973936
vt 0.986124 0.973936
vt 0.988004 0.949167
vt 0.998747 0.909091
vt 0.998029 0.869015
vt 0.996149 0.844246
vt 0.993826 0.844246
vt 0.991946 0.869015
vt 0.991228 0.909091
vt 0.991946 0.949167
vt 0.993826 0.973936
vt 0.996149 0.973936
vt 0.998029 0.949167
f 1/1 2/2 3/3
f 1/1 3/3 4/4
f 6/6 1/1 4/4
f 4/4 5/5 6/6
f 9/9 8/8 7/7
f 10/10 9/9 7/7
f 10/10 7/7 12/12
f 12/12 11/11 10/10
f 13/13 16/14 15/15 14/16
f 17/17 20/18 19/19 18/20
f 21/21 24/22 23/23 22/24
f 25/25 28/26 27/27 26/28
f 29/29 32/30 31/31 30/32
f 33/33 36/34 35/35 34/36
f 40/40 37/37 38/38
f 38/38 39/39 40/40
f 42/42 41/41 44/44
f 44/44 43/43 42/42
f 45/45 48/46 47/47 46/48
f 49/49 52/50 51/51 50/52
f 53/53 56/54 55/55 54/56
f 57/57 60/58 59/59 58/60
f 61/61 68/68 67/67
f 61/61 67/67 66/66
f 61/61 66/66 65/65
f 61/61 65/65 64/64
f 61/61 64/64 63/63
f 63/63 62/62 61/61
f 75/75 76/76 69/69
f 74/74 75/75 69/69
f 73/73 74/74 69/69
f 72/72 73/73 69/69
f 71/71 72/72 69/69
f 69/69 70/70 71/71
f 77/77 80/78 79/79 78/80
f 81/81 84/82 83/83 82/84
f 85/85 88/86 87/87 86/88
f 89/89 92/90 91/91 90/92
f 93/93 96/94 95/95 94/96
f 97/97 100/98 99/99 98/100
f 101/101 104/102 103/103 102/104
f 105/105 108/106 107/107 106/108
f 109/109 119/110 120/111 110/112
f 110/113 120/114 121/115 111/116
f 111/117 121/118 122/119 112/120
f 112/121 122/122 123/123 113/124
f 113/125 123/126 124/127 114/128
f 114/129 124/130 125/131 115/132
f 115/133 125/134 126/135 116/136
f 116/137 126/138 127/139 117/140
f 117/141 127/142 128/143 118/144
f 118/145 128/146 119/147 109/148
f 111/151 110/150 109/149
f 112/152 111/151 109/149
f 113/153 112/152 109/149
f 114/154 113/153 109/149
f 115/155 114/154 109/149
f 116/156 115/155 109/149
f 117/157 116/156 109/149
f 118/158 117/157 109/149
f 119/159 120/160 121/161
f 119/159 121/161 122/162
f 119/159 122/162 123/163
f 119/159 123/163 124/164
f 119/159 124/164 125/165
f 119/159 125/165 126/166
f 119/159 126/166 127/167
f 119/159 127/167 128/168
