mtllib shotgun_model.mtl
usemtl gun
v -4.0000 3.6000 0.8500
v 5.6000 3.6000 0.8500
v 6.5000 3.0000 0.8500
v 6.5000 -0.8000 0.8500
v -4.0000 -0.8000 0.8500
v -4.0000 3.6000 -0.8500
v 5.6000 3.6000 -0.8500
v 6.5000 3.0000 -0.8500
v 6.5000 -0.8000 -0.8500
v -4.0000 -0.8000 -0.8500
v -4.0000 3.6000 0.8500
v 5.6000 3.6000 0.8500
v 5.6000 3.6000 -0.8500
v -4.0000 3.6000 -0.8500
v 5.6000 3.6000 0.8500
v 6.5000 3.0000 0.8500
v 6.5000 3.0000 -0.8500
v 5.6000 3.6000 -0.8500
v 6.5000 3.0000 0.8500
v 6.5000 -0.8000 0.8500
v 6.5000 -0.8000 -0.8500
v 6.5000 3.0000 -0.8500
v 6.5000 -0.8000 0.8500
v -4.0000 -0.8000 0.8500
v -4.0000 -0.8000 -0.8500
v 6.5000 -0.8000 -0.8500
v -4.0000 -0.8000 0.8500
v -4.0000 3.6000 0.8500
v -4.0000 3.6000 -0.8500
v -4.0000 -0.8000 -0.8500
v -3.0000 -0.6000 0.5000
v 1.0000 -0.6000 0.5000
v 1.0000 -2.6000 0.5000
v 0.4000 -3.0000 0.5000
v -2.0000 -3.0000 0.5000
v -3.0000 -1.8000 0.5000
v -3.0000 -0.6000 -0.5000
v 1.0000 -0.6000 -0.5000
v 1.0000 -2.6000 -0.5000
v 0.4000 -3.0000 -0.5000
v -2.0000 -3.0000 -0.5000
v -3.0000 -1.8000 -0.5000
v -3.0000 -0.6000 0.5000
v 1.0000 -0.6000 0.5000
v 1.0000 -0.6000 -0.5000
v -3.0000 -0.6000 -0.5000
v 1.0000 -0.6000 0.5000
v 1.0000 -2.6000 0.5000
v 1.0000 -2.6000 -0.5000
v 1.0000 -0.6000 -0.5000
v 1.0000 -2.6000 0.5000
v 0.4000 -3.0000 0.5000
v 0.4000 -3.0000 -0.5000
v 1.0000 -2.6000 -0.5000
v 0.4000 -3.0000 0.5000
v -2.0000 -3.0000 0.5000
v -2.0000 -3.0000 -0.5000
v 0.4000 -3.0000 -0.5000
v -2.0000 -3.0000 0.5000
v -3.0000 -1.8000 0.5000
v -3.0000 -1.8000 -0.5000
v -2.0000 -3.0000 -0.5000
v -3.0000 -1.8000 0.5000
v -3.0000 -0.6000 0.5000
v -3.0000 -0.6000 -0.5000
v -3.0000 -1.8000 -0.5000
v -4.0000 3.4000 0.7500
v -9.0000 3.4000 0.7500
v -13.0000 3.0000 0.7500
v -16.6000 2.6000 0.7500
v -17.0000 -4.0000 0.7500
v -14.0000 -3.2000 0.7500
v -9.5000 -0.8000 0.7500
v -4.0000 -0.9000 0.7500
v -4.0000 3.4000 -0.7500
v -9.0000 3.4000 -0.7500
v -13.0000 3.0000 -0.7500
v -16.6000 2.6000 -0.7500
v -17.0000 -4.0000 -0.7500
v -14.0000 -3.2000 -0.7500
v -9.5000 -0.8000 -0.7500
v -4.0000 -0.9000 -0.7500
v -4.0000 -0.9000 0.7500
v -9.5000 -0.8000 0.7500
v -9.5000 -0.8000 -0.7500
v -4.0000 -0.9000 -0.7500
v -9.5000 -0.8000 0.7500
v -14.0000 -3.2000 0.7500
v -14.0000 -3.2000 -0.7500
v -9.5000 -0.8000 -0.7500
v -14.0000 -3.2000 0.7500
v -17.0000 -4.0000 0.7500
v -17.0000 -4.0000 -0.7500
v -14.0000 -3.2000 -0.7500
v -17.0000 -4.0000 0.7500
v -16.6000 2.6000 0.7500
v -16.6000 2.6000 -0.7500
v -17.0000 -4.0000 -0.7500
v -16.6000 2.6000 0.7500
v -13.0000 3.0000 0.7500
v -13.0000 3.0000 -0.7500
v -16.6000 2.6000 -0.7500
v -13.0000 3.0000 0.7500
v -9.0000 3.4000 0.7500
v -9.0000 3.4000 -0.7500
v -13.0000 3.0000 -0.7500
v -9.0000 3.4000 0.7500
v -4.0000 3.4000 0.7500
v -4.0000 3.4000 -0.7500
v -9.0000 3.4000 -0.7500
v -4.0000 3.4000 0.7500
v -4.0000 -0.9000 0.7500
v -4.0000 -0.9000 -0.7500
v -4.0000 3.4000 -0.7500
v 6.6000 1.0000 0.9500
v 15.0000 1.0000 0.9500
v 15.4000 0.4000 0.9500
v 15.4000 -1.8000 0.9500
v 14.8000 -2.2000 0.9500
v 6.6000 -2.2000 0.9500
v 6.6000 1.0000 -0.9500
v 15.0000 1.0000 -0.9500
v 15.4000 0.4000 -0.9500
v 15.4000 -1.8000 -0.9500
v 14.8000 -2.2000 -0.9500
v 6.6000 -2.2000 -0.9500
v 6.6000 1.0000 0.9500
v 15.0000 1.0000 0.9500
v 15.0000 1.0000 -0.9500
v 6.6000 1.0000 -0.9500
v 15.0000 1.0000 0.9500
v 15.4000 0.4000 0.9500
v 15.4000 0.4000 -0.9500
v 15.0000 1.0000 -0.9500
v 15.4000 0.4000 0.9500
v 15.4000 -1.8000 0.9500
v 15.4000 -1.8000 -0.9500
v 15.4000 0.4000 -0.9500
v 15.4000 -1.8000 0.9500
v 14.8000 -2.2000 0.9500
v 14.8000 -2.2000 -0.9500
v 15.4000 -1.8000 -0.9500
v 14.8000 -2.2000 0.9500
v 6.6000 -2.2000 0.9500
v 6.6000 -2.2000 -0.9500
v 14.8000 -2.2000 -0.9500
v 6.6000 -2.2000 0.9500
v 6.6000 1.0000 0.9500
v 6.6000 1.0000 -0.9500
v 6.6000 -2.2000 -0.9500
v 6.5000 3.0000 0.5500
v 6.5000 2.7250 0.4763
v 6.5000 2.5237 0.2750
v 6.5000 2.4500 0.0000
v 6.5000 2.5237 -0.2750
v 6.5000 2.7250 -0.4763
v 6.5000 3.0000 -0.5500
v 6.5000 3.2750 -0.4763
v 6.5000 3.4763 -0.2750
v 6.5000 3.5500 -0.0000
v 6.5000 3.4763 0.2750
v 6.5000 3.2750 0.4763
v 30.0000 3.0000 0.5500
v 30.0000 2.7250 0.4763
v 30.0000 2.5237 0.2750
v 30.0000 2.4500 0.0000
v 30.0000 2.5237 -0.2750
v 30.0000 2.7250 -0.4763
v 30.0000 3.0000 -0.5500
v 30.0000 3.2750 -0.4763
v 30.0000 3.4763 -0.2750
v 30.0000 3.5500 -0.0000
v 30.0000 3.4763 0.2750
v 30.0000 3.2750 0.4763
v 6.5000 0.6000 0.5000
v 6.5000 0.3061 0.4045
v 6.5000 0.1245 0.1545
v 6.5000 0.1245 -0.1545
v 6.5000 0.3061 -0.4045
v 6.5000 0.6000 -0.5000
v 6.5000 0.8939 -0.4045
v 6.5000 1.0755 -0.1545
v 6.5000 1.0755 0.1545
v 6.5000 0.8939 0.4045
v 24.0000 0.6000 0.5000
v 24.0000 0.3061 0.4045
v 24.0000 0.1245 0.1545
v 24.0000 0.1245 -0.1545
v 24.0000 0.3061 -0.4045
v 24.0000 0.6000 -0.5000
v 24.0000 0.8939 -0.4045
v 24.0000 1.0755 -0.1545
v 24.0000 1.0755 0.1545
v 24.0000 0.8939 0.4045
v 6.2000 3.9000 0.2200
v 30.0000 3.9000 0.2200
v 30.0000 3.4000 0.2200
v 6.2000 3.4000 0.2200
v 6.2000 3.9000 -0.2200
v 30.0000 3.9000 -0.2200
v 30.0000 3.4000 -0.2200
v 6.2000 3.4000 -0.2200
v 6.2000 3.9000 0.2200
v 30.0000 3.9000 0.2200
v 30.0000 3.9000 -0.2200
v 6.2000 3.9000 -0.2200
v 30.0000 3.9000 0.2200
v 30.0000 3.4000 0.2200
v 30.0000 3.4000 -0.2200
v 30.0000 3.9000 -0.2200
v 30.0000 3.4000 0.2200
v 6.2000 3.4000 0.2200
v 6.2000 3.4000 -0.2200
v 30.0000 3.4000 -0.2200
v 6.2000 3.4000 0.2200
v 6.2000 3.9000 0.2200
v 6.2000 3.9000 -0.2200
v 6.2000 3.4000 -0.2200
v 23.4000 1.1000 0.5500
v 24.6000 1.1000 0.5500
v 24.6000 -0.0000 0.5500
v 23.4000 -0.0000 0.5500
v 23.4000 1.1000 -0.5500
v 24.6000 1.1000 -0.5500
v 24.6000 -0.0000 -0.5500
v 23.4000 -0.0000 -0.5500
v 23.4000 1.1000 0.5500
v 24.6000 1.1000 0.5500
v 24.6000 1.1000 -0.5500
v 23.4000 1.1000 -0.5500
v 24.6000 1.1000 0.5500
v 24.6000 -0.0000 0.5500
v 24.6000 -0.0000 -0.5500
v 24.6000 1.1000 -0.5500
v 24.6000 -0.0000 0.5500
v 23.4000 -0.0000 0.5500
v 23.4000 -0.0000 -0.5500
v 24.6000 -0.0000 -0.5500
v 23.4000 -0.0000 0.5500
v 23.4000 1.1000 0.5500
v 23.4000 1.1000 -0.5500
v 23.4000 -0.0000 -0.5500
vt 0.003333 0.948889
vt 0.059804 0.948889
vt 0.065098 0.908889
vt 0.065098 0.655556
vt 0.003333 0.655556
vt 0.071961 0.948889
vt 0.128431 0.948889
vt 0.133725 0.908889
vt 0.133725 0.655556
vt 0.071961 0.655556
vt 0.138235 0.988889
vt 0.138235 0.855556
vt 0.195098 0.855556
vt 0.195098 0.988889
vt 0.197059 0.988889
vt 0.197059 0.855556
vt 0.204902 0.855556
vt 0.204902 0.988889
vt 0.206863 0.988889
vt 0.206863 0.855556
vt 0.230392 0.855556
vt 0.230392 0.988889
vt 0.232353 0.988889
vt 0.232353 0.855556
vt 0.295098 0.855556
vt 0.295098 0.988889
vt 0.297059 0.988889
vt 0.297059 0.855556
vt 0.324510 0.855556
vt 0.324510 0.988889
vt 0.328824 0.975556
vt 0.352353 0.975556
vt 0.352353 0.842222
vt 0.348824 0.815556
vt 0.334706 0.815556
vt 0.328824 0.895556
vt 0.360196 0.975556
vt 0.383725 0.975556
vt 0.383725 0.842222
vt 0.380196 0.815556
vt 0.366078 0.815556
vt 0.360196 0.895556
vt 0.389216 0.988889
vt 0.389216 0.922222
vt 0.412745 0.922222
vt 0.412745 0.988889
vt 0.414706 0.988889
vt 0.414706 0.922222
vt 0.426471 0.922222
vt 0.426471 0.988889
vt 0.428431 0.988889
vt 0.428431 0.922222
vt 0.434314 0.922222
vt 0.434314 0.988889
vt 0.436275 0.988889
vt 0.436275 0.922222
vt 0.451961 0.922222
vt 0.451961 0.988889
vt 0.453922 0.988889
vt 0.453922 0.922222
vt 0.463725 0.922222
vt 0.463725 0.988889
vt 0.465686 0.988889
vt 0.465686 0.922222
vt 0.473529 0.922222
vt 0.473529 0.988889
vt 0.554314 0.935556
vt 0.524902 0.935556
vt 0.501373 0.908889
vt 0.480196 0.882222
vt 0.477843 0.442222
vt 0.495490 0.495556
vt 0.521961 0.655556
vt 0.554314 0.648889
vt 0.638627 0.935556
vt 0.609216 0.935556
vt 0.585686 0.908889
vt 0.564510 0.882222
vt 0.562157 0.442222
vt 0.579804 0.495556
vt 0.606275 0.655556
vt 0.638627 0.648889
vt 0.644118 0.988889
vt 0.644118 0.877778
vt 0.677451 0.877778
vt 0.677451 0.988889
vt 0.679412 0.988889
vt 0.679412 0.877778
vt 0.710784 0.877778
vt 0.710784 0.988889
vt 0.712745 0.988889
vt 0.712745 0.877778
vt 0.732353 0.877778
vt 0.732353 0.988889
vt 0.734314 0.988889
vt 0.734314 0.877778
vt 0.773529 0.877778
vt 0.773529 0.988889
vt 0.775490 0.988889
vt 0.775490 0.877778
vt 0.797059 0.877778
vt 0.797059 0.988889
vt 0.799020 0.988889
vt 0.799020 0.877778
vt 0.824510 0.877778
vt 0.824510 0.988889
vt 0.826471 0.988889
vt 0.826471 0.877778
vt 0.855882 0.877778
vt 0.855882 0.988889
vt 0.857843 0.988889
vt 0.857843 0.877778
vt 0.883333 0.877778
vt 0.883333 0.988889
vt 0.887647 0.962222
vt 0.937059 0.962222
vt 0.939412 0.922222
vt 0.939412 0.775556
vt 0.935882 0.748889
vt 0.887647 0.748889
vt 0.946471 0.962222
vt 0.995882 0.962222
vt 0.998235 0.922222
vt 0.998235 0.775556
vt 0.994706 0.748889
vt 0.946471 0.748889
vt 0.000980 0.366667
vt 0.000980 0.233333
vt 0.051961 0.233333
vt 0.051961 0.366667
vt 0.053922 0.366667
vt 0.053922 0.233333
vt 0.059804 0.233333
vt 0.059804 0.366667
vt 0.061765 0.366667
vt 0.061765 0.233333
vt 0.075490 0.233333
vt 0.075490 0.366667
vt 0.077451 0.366667
vt 0.077451 0.233333
vt 0.083333 0.233333
vt 0.083333 0.366667
vt 0.085294 0.366667
vt 0.085294 0.233333
vt 0.134314 0.233333
vt 0.134314 0.366667
vt 0.136275 0.366667
vt 0.136275 0.233333
vt 0.155882 0.233333
vt 0.155882 0.366667
vt 0.157843 0.366667
vt 0.297059 0.366667
vt 0.297059 0.346296
vt 0.157843 0.346296
vt 0.157843 0.346296
vt 0.297059 0.346296
vt 0.297059 0.325926
vt 0.157843 0.325926
vt 0.157843 0.325926
vt 0.297059 0.325926
vt 0.297059 0.305556
vt 0.157843 0.305556
vt 0.157843 0.305556
vt 0.297059 0.305556
vt 0.297059 0.285185
vt 0.157843 0.285185
vt 0.157843 0.285185
vt 0.297059 0.285185
vt 0.297059 0.264815
vt 0.157843 0.264815
vt 0.157843 0.264815
vt 0.297059 0.264815
vt 0.297059 0.244444
vt 0.157843 0.244444
vt 0.157843 0.244444
vt 0.297059 0.244444
vt 0.297059 0.224074
vt 0.157843 0.224074
vt 0.157843 0.224074
vt 0.297059 0.224074
vt 0.297059 0.203704
vt 0.157843 0.203704
vt 0.157843 0.203704
vt 0.297059 0.203704
vt 0.297059 0.183333
vt 0.157843 0.183333
vt 0.157843 0.183333
vt 0.297059 0.183333
vt 0.297059 0.162963
vt 0.157843 0.162963
vt 0.157843 0.162963
vt 0.297059 0.162963
vt 0.297059 0.142593
vt 0.157843 0.142593
vt 0.157843 0.142593
vt 0.297059 0.142593
vt 0.297059 0.122222
vt 0.157843 0.122222
vt 0.306863 0.322222
vt 0.306337 0.300000
vt 0.304902 0.283732
vt 0.302941 0.277778
vt 0.300980 0.283732
vt 0.299545 0.300000
vt 0.299020 0.322222
vt 0.299545 0.344444
vt 0.300980 0.360712
vt 0.302941 0.366667
vt 0.304902 0.360712
vt 0.306337 0.344444
vt 0.316667 0.322222
vt 0.316141 0.300000
vt 0.314706 0.283732
vt 0.312745 0.277778
vt 0.310784 0.283732
vt 0.309349 0.300000
vt 0.308824 0.322222
vt 0.309349 0.344444
vt 0.310784 0.360712
vt 0.312745 0.366667
vt 0.314706 0.360712
vt 0.316141 0.344444
vt 0.318627 0.366667
vt 0.422549 0.366667
vt 0.422549 0.344444
vt 0.318627 0.344444
vt 0.318627 0.344444
vt 0.422549 0.344444
vt 0.422549 0.322222
vt 0.318627 0.322222
vt 0.318627 0.322222
vt 0.422549 0.322222
vt 0.422549 0.300000
vt 0.318627 0.300000
vt 0.318627 0.300000
vt 0.422549 0.300000
vt 0.422549 0.277778
vt 0.318627 0.277778
vt 0.318627 0.277778
vt 0.422549 0.277778
vt 0.422549 0.255556
vt 0.318627 0.255556
vt 0.318627 0.255556
vt 0.422549 0.255556
vt 0.422549 0.233333
vt 0.318627 0.233333
vt 0.318627 0.233333
vt 0.422549 0.233333
vt 0.422549 0.211111
vt 0.318627 0.211111
vt 0.318627 0.211111
vt 0.422549 0.211111
vt 0.422549 0.188889
vt 0.318627 0.188889
vt 0.318627 0.188889
vt 0.422549 0.188889
vt 0.422549 0.166667
vt 0.318627 0.166667
vt 0.318627 0.166667
vt 0.422549 0.166667
vt 0.422549 0.144444
vt 0.318627 0.144444
vt 0.430392 0.333333
vt 0.429830 0.313740
vt 0.428360 0.301631
vt 0.426542 0.301631
vt 0.425072 0.313740
vt 0.424510 0.333333
vt 0.425072 0.352926
vt 0.426542 0.365035
vt 0.428360 0.365035
vt 0.429830 0.352926
vt 0.438235 0.333333
vt 0.437674 0.313740
vt 0.436203 0.301631
vt 0.434385 0.301631
vt 0.432915 0.313740
vt 0.432353 0.333333
vt 0.432915 0.352926
vt 0.434385 0.365035
vt 0.436203 0.365035
vt 0.437674 0.352926
vt 0.441373 0.333333
vt 0.581373 0.333333
vt 0.581373 0.300000
vt 0.441373 0.300000
vt 0.588431 0.333333
vt 0.728431 0.333333
vt 0.728431 0.300000
vt 0.588431 0.300000
vt 0.734314 0.366667
vt 0.734314 0.322222
vt 0.875490 0.322222
vt 0.875490 0.366667
vt 0.877451 0.366667
vt 0.877451 0.322222
vt 0.881373 0.322222
vt 0.881373 0.366667
vt 0.000980 0.100000
vt 0.000980 0.055556
vt 0.142157 0.055556
vt 0.142157 0.100000
vt 0.144118 0.100000
vt 0.144118 0.055556
vt 0.148039 0.055556
vt 0.148039 0.100000
vt 0.151176 0.080000
vt 0.158235 0.080000
vt 0.158235 0.006667
vt 0.151176 0.006667
vt 0.162941 0.080000
vt 0.170000 0.080000
vt 0.170000 0.006667
vt 0.162941 0.006667
vt 0.173529 0.100000
vt 0.173529 0.011111
vt 0.181373 0.011111
vt 0.181373 0.100000
vt 0.183333 0.100000
vt 0.183333 0.011111
vt 0.191176 0.011111
vt 0.191176 0.100000
vt 0.193137 0.100000
vt 0.193137 0.011111
vt 0.200980 0.011111
vt 0.200980 0.100000
vt 0.202941 0.100000
vt 0.202941 0.011111
vt 0.210784 0.011111
vt 0.210784 0.100000
f 5/5 1/1 2/2
f 5/5 2/2 3/3
f 3/3 4/4 5/5
f 7/7 6/6 10/10
f 8/8 7/7 10/10
f 10/10 9/9 8/8
f 11/11 14/12 13/13 12/14
f 15/15 18/16 17/17 16/18
f 19/19 22/20 21/21 20/22
f 23/23 26/24 25/25 24/26
f 27/27 30/28 29/29 28/30
f 36/36 31/31 32/32
f 36/36 32/32 33/33
f 36/36 33/33 34/34
f 34/34 35/35 36/36
f 38/38 37/37 42/42
f 39/39 38/38 42/42
f 40/40 39/39 42/42
f 42/42 41/41 40/40
f 43/43 46/44 45/45 44/46
f 47/47 50/48 49/49 48/50
f 51/51 54/52 53/53 52/54
f 55/55 58/56 57/57 56/58
f 59/59 62/60 61/61 60/62
f 63/63 66/64 65/65 64/66
f 67/67 74/74 73/73
f 67/67 73/73 72/72
f 67/67 72/72 71/71
f 67/67 71/71 70/70
f 67/67 70/70 69/69
f 69/69 68/68 67/67
f 81/81 82/82 75/75
f 80/80 81/81 75/75
f 79/79 80/80 75/75
f 78/78 79/79 75/75
f 77/77 78/78 75/75
f 75/75 76/76 77/77
f 83/83 86/84 85/85 84/86
f 87/87 90/88 89/89 88/90
f 91/91 94/92 93/93 92/94
f 95/95 98/96 97/97 96/98
f 99/99 102/100 101/101 100/102
f 103/103 106/104 105/105 104/106
f 107/107 110/108 109/109 108/110
f 111/111 114/112 113/113 112/114
f 120/120 115/115 116/116
f 120/120 116/116 117/117
f 120/120 117/117 118/118
f 118/118 119/119 120/120
f 122/122 121/121 126/126
f 123/123 122/122 126/126
f 124/124 123/123 126/126
f 126/126 125/125 124/124
f 127/127 130/128 129/129 128/130
f 131/131 134/132 133/133 132/134
f 135/135 138/136 137/137 136/138
f 139/139 142/140 141/141 140/142
f 143/143 146/144 145/145 144/146
f 147/147 150/148 149/149 148/150
f 151/151 163/152 164/153 152/154
f 152/155 164/156 165/157 153/158
f 153/159 165/160 166/161 154/162
f 154/163 166/164 167/165 155/166
f 155/167 167/168 168/169 156/170
f 156/171 168/172 169/173 157/174
f 157/175 169/176 170/177 158/178
f 158/179 170/180 171/181 159/182
f 159/183 171/184 172/185 160/186
f 160/187 172/188 173/189 161/190
f 161/191 173/192 174/193 162/194
f 162/195 174/196 163/197 151/198
f 153/201 152/200 151/199
f 154/202 153/201 151/199
f 155/203 154/202 151/199
f 156/204 155/203 151/199
f 157/205 156/204 151/199
f 158/206 157/205 151/199
f 159/207 158/206 151/199
f 160/208 159/207 151/199
f 161/209 160/208 151/199
f 162/210 161/209 151/199
f 163/211 164/212 165/213
f 163/211 165/213 166/214
f 163/211 166/214 167/215
f 163/211 167/215 168/216
f 163/211 168/216 169/217
f 163/211 169/217 170/218
f 163/211 170/218 171/219
f 163/211 171/219 172/220
f 163/211 172/220 173/221
f 163/211 173/221 174/222
f 175/223 185/224 186/225 176/226
f 176/227 186/228 187/229 177/230
f 177/231 187/232 188/233 178/234
f 178/235 188/236 189/237 179/238
f 179/239 189/240 190/241 180/242
f 180/243 190/244 191/245 181/246
f 181/247 191/248 192/249 182/250
f 182/251 192/252 193/253 183/254
f 183/255 193/256 194/257 184/258
f 184/259 194/260 185/261 175/262
f 177/265 176/264 175/263
f 178/266 177/265 175/263
f 179/267 178/266 175/263
f 180/268 179/267 175/263
f 181/269 180/268 175/263
f 182/270 181/269 175/263
f 183/271 182/270 175/263
f 184/272 183/271 175/263
f 185/273 186/274 187/275
f 185/273 187/275 188/276
f 185/273 188/276 189/277
f 185/273 189/277 190/278
f 185/273 190/278 191/279
f 185/273 191/279 192/280
f 185/273 192/280 193/281
f 185/273 193/281 194/282
f 198/286 195/283 196/284
f 196/284 197/285 198/286
f 200/288 199/287 202/290
f 202/290 201/289 200/288
f 203/291 206/292 205/293 204/294
f 207/295 210/296 209/297 208/298
f 211/299 214/300 213/301 212/302
f 215/303 218/304 217/305 216/306
f 222/310 219/307 220/308
f 220/308 221/309 222/310
f 224/312 223/311 226/314
f 226/314 225/313 224/312
f 227/315 230/316 229/317 228/318
f 231/319 234/320 233/321 232/322
f 235/323 238/324 237/325 236/326
f 239/327 242/328 241/329 240/330
