mtllib shotgun_fp_model.mtl
usemtl gun
v -4.0000 3.6000 0.8500
v 5.6000 3.6000 0.8500
v 6.5000 3.0000 0.8500
v 6.5000 -0.8000 0.8500
v -4.0000 -0.8000 0.8500
v -4.0000 3.6000 -0.8500
v 5.6000 3.6000 -0.8500
v 6.5000 3.0000 -0.8500
v 6.5000 -0.8000 -0.8500
v -4.0000 -0.8000 -0.8500
v -4.0000 3.6000 0.8500
v 5.6000 3.6000 0.8500
v 5.6000 3.6000 -0.8500
v -4.0000 3.6000 -0.8500
v 5.6000 3.6000 0.8500
v 6.5000 3.0000 0.8500
v 6.5000 3.0000 -0.8500
v 5.6000 3.6000 -0.8500
v 6.5000 3.0000 0.8500
v 6.5000 -0.8000 0.8500
v 6.5000 -0.8000 -0.8500
v 6.5000 3.0000 -0.8500
v 6.5000 -0.8000 0.8500
v -4.0000 -0.8000 0.8500
v -4.0000 -0.8000 -0.8500
v 6.5000 -0.8000 -0.8500
v -4.0000 -0.8000 0.8500
v -4.0000 3.6000 0.8500
v -4.0000 3.6000 -0.8500
v -4.0000 -0.8000 -0.8500
v -3.0000 -0.6000 0.5000
v 1.0000 -0.6000 0.5000
v 1.0000 -2.6000 0.5000
v 0.4000 -3.0000 0.5000
v -2.0000 -3.0000 0.5000
v -3.0000 -1.8000 0.5000
v -3.0000 -0.6000 -0.5000
v 1.0000 -0.6000 -0.5000
v 1.0000 -2.6000 -0.5000
v 0.4000 -3.0000 -0.5000
v -2.0000 -3.0000 -0.5000
v -3.0000 -1.8000 -0.5000
v -3.0000 -0.6000 0.5000
v 1.0000 -0.6000 0.5000
v 1.0000 -0.6000 -0.5000
v -3.0000 -0.6000 -0.5000
v 1.0000 -0.6000 0.5000
v 1.0000 -2.6000 0.5000
v 1.0000 -2.6000 -0.5000
v 1.0000 -0.6000 -0.5000
v 1.0000 -2.6000 0.5000
v 0.4000 -3.0000 0.5000
v 0.4000 -3.0000 -0.5000
v 1.0000 -2.6000 -0.5000
v 0.4000 -3.0000 0.5000
v -2.0000 -3.0000 0.5000
v -2.0000 -3.0000 -0.5000
v 0.4000 -3.0000 -0.5000
v -2.0000 -3.0000 0.5000
v -3.0000 -1.8000 0.5000
v -3.0000 -1.8000 -0.5000
v -2.0000 -3.0000 -0.5000
v -3.0000 -1.8000 0.5000
v -3.0000 -0.6000 0.5000
v -3.0000 -0.6000 -0.5000
v -3.0000 -1.8000 -0.5000
v -4.0000 3.4000 0.7500
v -9.0000 3.4000 0.7500
v -13.0000 3.0000 0.7500
v -16.6000 2.6000 0.7500
v -17.0000 -4.0000 0.7500
v -14.0000 -3.2000 0.7500
v -9.5000 -0.8000 0.7500
v -4.0000 -0.9000 0.7500
v -4.0000 3.4000 -0.7500
v -9.0000 3.4000 -0.7500
v -13.0000 3.0000 -0.7500
v -16.6000 2.6000 -0.7500
v -17.0000 -4.0000 -0.7500
v -14.0000 -3.2000 -0.7500
v -9.5000 -0.8000 -0.7500
v -4.0000 -0.9000 -0.7500
v -4.0000 -0.9000 0.7500
v -9.5000 -0.8000 0.7500
v -9.5000 -0.8000 -0.7500
v -4.0000 -0.9000 -0.7500
v -9.5000 -0.8000 0.7500
v -14.0000 -3.2000 0.7500
v -14.0000 -3.2000 -0.7500
v -9.5000 -0.8000 -0.7500
v -14.0000 -3.2000 0.7500
v -17.0000 -4.0000 0.7500
v -17.0000 -4.0000 -0.7500
v -14.0000 -3.2000 -0.7500
v -17.0000 -4.0000 0.7500
v -16.6000 2.6000 0.7500
v -16.6000 2.6000 -0.7500
v -17.0000 -4.0000 -0.7500
v -16.6000 2.6000 0.7500
v -13.0000 3.0000 0.7500
v -13.0000 3.0000 -0.7500
v -16.6000 2.6000 -0.7500
v -13.0000 3.0000 0.7500
v -9.0000 3.4000 0.7500
v -9.0000 3.4000 -0.7500
v -13.0000 3.0000 -0.7500
v -9.0000 3.4000 0.7500
v -4.0000 3.4000 0.7500
v -4.0000 3.4000 -0.7500
v -9.0000 3.4000 -0.7500
v -4.0000 3.4000 0.7500
v -4.0000 -0.9000 0.7500
v -4.0000 -0.9000 -0.7500
v -4.0000 3.4000 -0.7500
v 6.6000 1.0000 0.9500
v 15.0000 1.0000 0.9500
v 15.4000 0.4000 0.9500
v 15.4000 -1.8000 0.9500
v 14.8000 -2.2000 0.9500
v 6.6000 -2.2000 0.9500
v 6.6000 1.0000 -0.9500
v 15.0000 1.0000 -0.9500
v 15.4000 0.4000 -0.9500
v 15.4000 -1.8000 -0.9500
v 14.8000 -2.2000 -0.9500
v 6.6000 -2.2000 -0.9500
v 6.6000 1.0000 0.9500
v 15.0000 1.0000 0.9500
v 15.0000 1.0000 -0.9500
v 6.6000 1.0000 -0.9500
v 15.0000 1.0000 0.9500
v 15.4000 0.4000 0.9500
v 15.4000 0.4000 -0.9500
v 15.0000 1.0000 -0.9500
v 15.4000 0.4000 0.9500
v 15.4000 -1.8000 0.9500
v 15.4000 -1.8000 -0.9500
v 15.4000 0.4000 -0.9500
v 15.4000 -1.8000 0.9500
v 14.8000 -2.2000 0.9500
v 14.8000 -2.2000 -0.9500
v 15.4000 -1.8000 -0.9500
v 14.8000 -2.2000 0.9500
v 6.6000 -2.2000 0.9500
v 6.6000 -2.2000 -0.9500
v 14.8000 -2.2000 -0.9500
v 6.6000 -2.2000 0.9500
v 6.6000 1.0000 0.9500
v 6.6000 1.0000 -0.9500
v 6.6000 -2.2000 -0.9500
v 6.5000 3.0000 0.5500
v 6.5000 2.7250 0.4763
v 6.5000 2.5237 0.2750
v 6.5000 2.4500 0.0000
v 6.5000 2.5237 -0.2750
v 6.5000 2.7250 -0.4763
v 6.5000 3.0000 -0.5500
v 6.5000 3.2750 -0.4763
v 6.5000 3.4763 -0.2750
v 6.5000 3.5500 -0.0000
v 6.5000 3.4763 0.2750
v 6.5000 3.2750 0.4763
v 30.0000 3.0000 0.5500
v 30.0000 2.7250 0.4763
v 30.0000 2.5237 0.2750
v 30.0000 2.4500 0.0000
v 30.0000 2.5237 -0.2750
v 30.0000 2.7250 -0.4763
v 30.0000 3.0000 -0.5500
v 30.0000 3.2750 -0.4763
v 30.0000 3.4763 -0.2750
v 30.0000 3.5500 -0.0000
v 30.0000 3.4763 0.2750
v 30.0000 3.2750 0.4763
v 6.5000 0.6000 0.5000
v 6.5000 0.3061 0.4045
v 6.5000 0.1245 0.1545
v 6.5000 0.1245 -0.1545
v 6.5000 0.3061 -0.4045
v 6.5000 0.6000 -0.5000
v 6.5000 0.8939 -0.4045
v 6.5000 1.0755 -0.1545
v 6.5000 1.0755 0.1545
v 6.5000 0.8939 0.4045
v 24.0000 0.6000 0.5000
v 24.0000 0.3061 0.4045
v 24.0000 0.1245 0.1545
v 24.0000 0.1245 -0.1545
v 24.0000 0.3061 -0.4045
v 24.0000 0.6000 -0.5000
v 24.0000 0.8939 -0.4045
v 24.0000 1.0755 -0.1545
v 24.0000 1.0755 0.1545
v 24.0000 0.8939 0.4045
v 6.2000 3.9000 0.2200
v 30.0000 3.9000 0.2200
v 30.0000 3.4000 0.2200
v 6.2000 3.4000 0.2200
v 6.2000 3.9000 -0.2200
v 30.0000 3.9000 -0.2200
v 30.0000 3.4000 -0.2200
v 6.2000 3.4000 -0.2200
v 6.2000 3.9000 0.2200
v 30.0000 3.9000 0.2200
v 30.0000 3.9000 -0.2200
v 6.2000 3.9000 -0.2200
v 30.0000 3.9000 0.2200
v 30.0000 3.4000 0.2200
v 30.0000 3.4000 -0.2200
v 30.0000 3.9000 -0.2200
v 30.0000 3.4000 0.2200
v 6.2000 3.4000 0.2200
v 6.2000 3.4000 -0.2200
v 30.0000 3.4000 -0.2200
v 6.2000 3.4000 0.2200
v 6.2000 3.9000 0.2200
v 6.2000 3.9000 -0.2200
v 6.2000 3.4000 -0.2200
v 23.4000 1.1000 0.5500
v 24.6000 1.1000 0.5500
v 24.6000 -0.0000 0.5500
v 23.4000 -0.0000 0.5500
v 23.4000 1.1000 -0.5500
v 24.6000 1.1000 -0.5500
v 24.6000 -0.0000 -0.5500
v 23.4000 -0.0000 -0.5500
v 23.4000 1.1000 0.5500
v 24.6000 1.1000 0.5500
v 24.6000 1.1000 -0.5500
v 23.4000 1.1000 -0.5500
v 24.6000 1.1000 0.5500
v 24.6000 -0.0000 0.5500
v 24.6000 -0.0000 -0.5500
v 24.6000 1.1000 -0.5500
v 24.6000 -0.0000 0.5500
v 23.4000 -0.0000 0.5500
v 23.4000 -0.0000 -0.5500
v 24.6000 -0.0000 -0.5500
v 23.4000 -0.0000 0.5500
v 23.4000 1.1000 0.5500
v 23.4000 1.1000 -0.5500
v 23.4000 -0.0000 -0.5500
v -1.9000 -0.4000 0.9500
v 1.7000 -0.4000 0.9500
v 2.2000 -1.0000 0.9500
v 2.2000 -4.3000 0.9500
v 1.4000 -5.2000 0.9500
v -1.6000 -5.2000 0.9500
v -2.4000 -4.3000 0.9500
v -2.4000 -1.0000 0.9500
v -1.9000 -0.4000 -0.9500
v 1.7000 -0.4000 -0.9500
v 2.2000 -1.0000 -0.9500
v 2.2000 -4.3000 -0.9500
v 1.4000 -5.2000 -0.9500
v -1.6000 -5.2000 -0.9500
v -2.4000 -4.3000 -0.9500
v -2.4000 -1.0000 -0.9500
v -1.9000 -0.4000 0.9500
v 1.7000 -0.4000 0.9500
v 1.7000 -0.4000 -0.9500
v -1.9000 -0.4000 -0.9500
v 1.7000 -0.4000 0.9500
v 2.2000 -1.0000 0.9500
v 2.2000 -1.0000 -0.9500
v 1.7000 -0.4000 -0.9500
v 2.2000 -1.0000 0.9500
v 2.2000 -4.3000 0.9500
v 2.2000 -4.3000 -0.9500
v 2.2000 -1.0000 -0.9500
v 2.2000 -4.3000 0.9500
v 1.4000 -5.2000 0.9500
v 1.4000 -5.2000 -0.9500
v 2.2000 -4.3000 -0.9500
v 1.4000 -5.2000 0.9500
v -1.6000 -5.2000 0.9500
v -1.6000 -5.2000 -0.9500
v 1.4000 -5.2000 -0.9500
v -1.6000 -5.2000 0.9500
v -2.4000 -4.3000 0.9500
v -2.4000 -4.3000 -0.9500
v -1.6000 -5.2000 -0.9500
v -2.4000 -4.3000 0.9500
v -2.4000 -1.0000 0.9500
v -2.4000 -1.0000 -0.9500
v -2.4000 -4.3000 -0.9500
v -2.4000 -1.0000 0.9500
v -1.9000 -0.4000 0.9500
v -1.9000 -0.4000 -0.9500
v -2.4000 -1.0000 -0.9500
v -2.0996 -4.8056 1.0500
v 0.0996 -5.9944 1.0500
v -7.3286 -21.1035 1.0500
v -10.6714 -19.2965 1.0500
v -2.0996 -4.8056 -1.0500
v 0.0996 -5.9944 -1.0500
v -7.3286 -21.1035 -1.0500
v -10.6714 -19.2965 -1.0500
v -2.0996 -4.8056 1.0500
v 0.0996 -5.9944 1.0500
v 0.0996 -5.9944 -1.0500
v -2.0996 -4.8056 -1.0500
v 0.0996 -5.9944 1.0500
v -7.3286 -21.1035 1.0500
v -7.3286 -21.1035 -1.0500
v 0.0996 -5.9944 -1.0500
v -7.3286 -21.1035 1.0500
v -10.6714 -19.2965 1.0500
v -10.6714 -19.2965 -1.0500
v -7.3286 -21.1035 -1.0500
v -10.6714 -19.2965 1.0500
v -2.0996 -4.8056 1.0500
v -2.0996 -4.8056 -1.0500
v -10.6714 -19.2965 -1.0500
v 9.0000 -0.1000 0.9500
v 13.2000 -0.1000 0.9500
v 13.7000 -0.7000 0.9500
v 13.7000 -2.6000 0.9500
v 12.9000 -3.5000 0.9500
v 9.3000 -3.5000 0.9500
v 8.5000 -2.6000 0.9500
v 8.5000 -0.7000 0.9500
v 9.0000 -0.1000 -0.9500
v 13.2000 -0.1000 -0.9500
v 13.7000 -0.7000 -0.9500
v 13.7000 -2.6000 -0.9500
v 12.9000 -3.5000 -0.9500
v 9.3000 -3.5000 -0.9500
v 8.5000 -2.6000 -0.9500
v 8.5000 -0.7000 -0.9500
v 9.0000 -0.1000 0.9500
v 13.2000 -0.1000 0.9500
v 13.2000 -0.1000 -0.9500
v 9.0000 -0.1000 -0.9500
v 13.2000 -0.1000 0.9500
v 13.7000 -0.7000 0.9500
v 13.7000 -0.7000 -0.9500
v 13.2000 -0.1000 -0.9500
v 13.7000 -0.7000 0.9500
v 13.7000 -2.6000 0.9500
v 13.7000 -2.6000 -0.9500
v 13.7000 -0.7000 -0.9500
v 13.7000 -2.6000 0.9500
v 12.9000 -3.5000 0.9500
v 12.9000 -3.5000 -0.9500
v 13.7000 -2.6000 -0.9500
v 12.9000 -3.5000 0.9500
v 9.3000 -3.5000 0.9500
v 9.3000 -3.5000 -0.9500
v 12.9000 -3.5000 -0.9500
v 9.3000 -3.5000 0.9500
v 8.5000 -2.6000 0.9500
v 8.5000 -2.6000 -0.9500
v 9.3000 -3.5000 -0.9500
v 8.5000 -2.6000 0.9500
v 8.5000 -0.7000 0.9500
v 8.5000 -0.7000 -0.9500
v 8.5000 -2.6000 -0.9500
v 8.5000 -0.7000 0.9500
v 9.0000 -0.1000 0.9500
v 9.0000 -0.1000 -0.9500
v 8.5000 -0.7000 -0.9500
v 9.0361 -2.5728 1.0500
v 10.9639 -3.8272 1.0500
v 2.0087 -18.7817 1.0500
v -1.0087 -16.8183 1.0500
v 9.0361 -2.5728 -1.0500
v 10.9639 -3.8272 -1.0500
v 2.0087 -18.7817 -1.0500
v -1.0087 -16.8183 -1.0500
v 9.0361 -2.5728 1.0500
v 10.9639 -3.8272 1.0500
v 10.9639 -3.8272 -1.0500
v 9.0361 -2.5728 -1.0500
v 10.9639 -3.8272 1.0500
v 2.0087 -18.7817 1.0500
v 2.0087 -18.7817 -1.0500
v 10.9639 -3.8272 -1.0500
v 2.0087 -18.7817 1.0500
v -1.0087 -16.8183 1.0500
v -1.0087 -16.8183 -1.0500
v 2.0087 -18.7817 -1.0500
v -1.0087 -16.8183 1.0500
v 9.0361 -2.5728 1.0500
v 9.0361 -2.5728 -1.0500
v -1.0087 -16.8183 -1.0500
vt 0.003333 0.983688
vt 0.059804 0.983688
vt 0.065098 0.970922
vt 0.065098 0.890071
vt 0.003333 0.890071
vt 0.071961 0.983688
vt 0.128431 0.983688
vt 0.133725 0.970922
vt 0.133725 0.890071
vt 0.071961 0.890071
vt 0.138235 0.996454
vt 0.138235 0.953901
vt 0.195098 0.953901
vt 0.195098 0.996454
vt 0.197059 0.996454
vt 0.197059 0.953901
vt 0.204902 0.953901
vt 0.204902 0.996454
vt 0.206863 0.996454
vt 0.206863 0.953901
vt 0.230392 0.953901
vt 0.230392 0.996454
vt 0.232353 0.996454
vt 0.232353 0.953901
vt 0.295098 0.953901
vt 0.295098 0.996454
vt 0.297059 0.996454
vt 0.297059 0.953901
vt 0.324510 0.953901
vt 0.324510 0.996454
vt 0.328824 0.992199
vt 0.352353 0.992199
vt 0.352353 0.949645
vt 0.348824 0.941135
vt 0.334706 0.941135
vt 0.328824 0.966667
vt 0.360196 0.992199
vt 0.383725 0.992199
vt 0.383725 0.949645
vt 0.380196 0.941135
vt 0.366078 0.941135
vt 0.360196 0.966667
vt 0.389216 0.996454
vt 0.389216 0.975177
vt 0.412745 0.975177
vt 0.412745 0.996454
vt 0.414706 0.996454
vt 0.414706 0.975177
vt 0.426471 0.975177
vt 0.426471 0.996454
vt 0.428431 0.996454
vt 0.428431 0.975177
vt 0.434314 0.975177
vt 0.434314 0.996454
vt 0.436275 0.996454
vt 0.436275 0.975177
vt 0.451961 0.975177
vt 0.451961 0.996454
vt 0.453922 0.996454
vt 0.453922 0.975177
vt 0.463725 0.975177
vt 0.463725 0.996454
vt 0.465686 0.996454
vt 0.465686 0.975177
vt 0.473529 0.975177
vt 0.473529 0.996454
vt 0.554314 0.979433
vt 0.524902 0.979433
vt 0.501373 0.970922
vt 0.480196 0.962411
vt 0.477843 0.821986
vt 0.495490 0.839007
vt 0.521961 0.890071
vt 0.554314 0.887943
vt 0.638627 0.979433
vt 0.609216 0.979433
vt 0.585686 0.970922
vt 0.564510 0.962411
vt 0.562157 0.821986
vt 0.579804 0.839007
vt 0.606275 0.890071
vt 0.638627 0.887943
vt 0.644118 0.996454
vt 0.644118 0.960993
vt 0.677451 0.960993
vt 0.677451 0.996454
vt 0.679412 0.996454
vt 0.679412 0.960993
vt 0.710784 0.960993
vt 0.710784 0.996454
vt 0.712745 0.996454
vt 0.712745 0.960993
vt 0.732353 0.960993
vt 0.732353 0.996454
vt 0.734314 0.996454
vt 0.734314 0.960993
vt 0.773529 0.960993
vt 0.773529 0.996454
vt 0.775490 0.996454
vt 0.775490 0.960993
vt 0.797059 0.960993
vt 0.797059 0.996454
vt 0.799020 0.996454
vt 0.799020 0.960993
vt 0.824510 0.960993
vt 0.824510 0.996454
vt 0.826471 0.996454
vt 0.826471 0.960993
vt 0.855882 0.960993
vt 0.855882 0.996454
vt 0.857843 0.996454
vt 0.857843 0.960993
vt 0.883333 0.960993
vt 0.883333 0.996454
vt 0.887647 0.987943
vt 0.937059 0.987943
vt 0.939412 0.975177
vt 0.939412 0.928369
vt 0.935882 0.919858
vt 0.887647 0.919858
vt 0.946471 0.987943
vt 0.995882 0.987943
vt 0.998235 0.975177
vt 0.998235 0.928369
vt 0.994706 0.919858
vt 0.946471 0.919858
vt 0.000980 0.797872
vt 0.000980 0.755319
vt 0.051961 0.755319
vt 0.051961 0.797872
vt 0.053922 0.797872
vt 0.053922 0.755319
vt 0.059804 0.755319
vt 0.059804 0.797872
vt 0.061765 0.797872
vt 0.061765 0.755319
vt 0.075490 0.755319
vt 0.075490 0.797872
vt 0.077451 0.797872
vt 0.077451 0.755319
vt 0.083333 0.755319
vt 0.083333 0.797872
vt 0.085294 0.797872
vt 0.085294 0.755319
vt 0.134314 0.755319
vt 0.134314 0.797872
vt 0.136275 0.797872
vt 0.136275 0.755319
vt 0.155882 0.755319
vt 0.155882 0.797872
vt 0.157843 0.797872
vt 0.297059 0.797872
vt 0.297059 0.791371
vt 0.157843 0.791371
vt 0.157843 0.791371
vt 0.297059 0.791371
vt 0.297059 0.784870
vt 0.157843 0.784870
vt 0.157843 0.784870
vt 0.297059 0.784870
vt 0.297059 0.778369
vt 0.157843 0.778369
vt 0.157843 0.778369
vt 0.297059 0.778369
vt 0.297059 0.771868
vt 0.157843 0.771868
vt 0.157843 0.771868
vt 0.297059 0.771868
vt 0.297059 0.765366
vt 0.157843 0.765366
vt 0.157843 0.765366
vt 0.297059 0.765366
vt 0.297059 0.758865
vt 0.157843 0.758865
vt 0.157843 0.758865
vt 0.297059 0.758865
vt 0.297059 0.752364
vt 0.157843 0.752364
vt 0.157843 0.752364
vt 0.297059 0.752364
vt 0.297059 0.745863
vt 0.157843 0.745863
vt 0.157843 0.745863
vt 0.297059 0.745863
vt 0.297059 0.739362
vt 0.157843 0.739362
vt 0.157843 0.739362
vt 0.297059 0.739362
vt 0.297059 0.732861
vt 0.157843 0.732861
vt 0.157843 0.732861
vt 0.297059 0.732861
vt 0.297059 0.726359
vt 0.157843 0.726359
vt 0.157843 0.726359
vt 0.297059 0.726359
vt 0.297059 0.719858
vt 0.157843 0.719858
vt 0.306863 0.783688
vt 0.306337 0.776596
vt 0.304902 0.771404
vt 0.302941 0.769504
vt 0.300980 0.771404
vt 0.299545 0.776596
vt 0.299020 0.783688
vt 0.299545 0.790780
vt 0.300980 0.795972
vt 0.302941 0.797872
vt 0.304902 0.795972
vt 0.306337 0.790780
vt 0.316667 0.783688
vt 0.316141 0.776596
vt 0.314706 0.771404
vt 0.312745 0.769504
vt 0.310784 0.771404
vt 0.309349 0.776596
vt 0.308824 0.783688
vt 0.309349 0.790780
vt 0.310784 0.795972
vt 0.312745 0.797872
vt 0.314706 0.795972
vt 0.316141 0.790780
vt 0.318627 0.797872
vt 0.422549 0.797872
vt 0.422549 0.790780
vt 0.318627 0.790780
vt 0.318627 0.790780
vt 0.422549 0.790780
vt 0.422549 0.783688
vt 0.318627 0.783688
vt 0.318627 0.783688
vt 0.422549 0.783688
vt 0.422549 0.776596
vt 0.318627 0.776596
vt 0.318627 0.776596
vt 0.422549 0.776596
vt 0.422549 0.769504
vt 0.318627 0.769504
vt 0.318627 0.769504
vt 0.422549 0.769504
vt 0.422549 0.762411
vt 0.318627 0.762411
vt 0.318627 0.762411
vt 0.422549 0.762411
vt 0.422549 0.755319
vt 0.318627 0.755319
vt 0.318627 0.755319
vt 0.422549 0.755319
vt 0.422549 0.748227
vt 0.318627 0.748227
vt 0.318627 0.748227
vt 0.422549 0.748227
vt 0.422549 0.741135
vt 0.318627 0.741135
vt 0.318627 0.741135
vt 0.422549 0.741135
vt 0.422549 0.734043
vt 0.318627 0.734043
vt 0.318627 0.734043
vt 0.422549 0.734043
vt 0.422549 0.726950
vt 0.318627 0.726950
vt 0.430392 0.787234
vt 0.429830 0.780981
vt 0.428360 0.777116
vt 0.426542 0.777116
vt 0.425072 0.780981
vt 0.424510 0.787234
vt 0.425072 0.793487
vt 0.426542 0.797352
vt 0.428360 0.797352
vt 0.429830 0.793487
vt 0.438235 0.787234
vt 0.437674 0.780981
vt 0.436203 0.777116
vt 0.434385 0.777116
vt 0.432915 0.780981
vt 0.432353 0.787234
vt 0.432915 0.793487
vt 0.434385 0.797352
vt 0.436203 0.797352
vt 0.437674 0.793487
vt 0.441373 0.787234
vt 0.581373 0.787234
vt 0.581373 0.776596
vt 0.441373 0.776596
vt 0.588431 0.787234
vt 0.728431 0.787234
vt 0.728431 0.776596
vt 0.588431 0.776596
vt 0.734314 0.797872
vt 0.734314 0.783688
vt 0.875490 0.783688
vt 0.875490 0.797872
vt 0.877451 0.797872
vt 0.877451 0.783688
vt 0.881373 0.783688
vt 0.881373 0.797872
vt 0.000980 0.712766
vt 0.000980 0.698582
vt 0.142157 0.698582
vt 0.142157 0.712766
vt 0.144118 0.712766
vt 0.144118 0.698582
vt 0.148039 0.698582
vt 0.148039 0.712766
vt 0.151176 0.706383
vt 0.158235 0.706383
vt 0.158235 0.682979
vt 0.151176 0.682979
vt 0.162941 0.706383
vt 0.170000 0.706383
vt 0.170000 0.682979
vt 0.162941 0.682979
vt 0.173529 0.712766
vt 0.173529 0.684397
vt 0.181373 0.684397
vt 0.181373 0.712766
vt 0.183333 0.712766
vt 0.183333 0.684397
vt 0.191176 0.684397
vt 0.191176 0.712766
vt 0.193137 0.712766
vt 0.193137 0.684397
vt 0.200980 0.684397
vt 0.200980 0.712766
vt 0.202941 0.712766
vt 0.202941 0.684397
vt 0.210784 0.684397
vt 0.210784 0.712766
vt 0.216863 0.708511
vt 0.238039 0.708511
vt 0.240980 0.695745
vt 0.240980 0.625532
vt 0.236275 0.606383
vt 0.218627 0.606383
vt 0.213922 0.625532
vt 0.213922 0.695745
vt 0.248235 0.708511
vt 0.269412 0.708511
vt 0.272353 0.695745
vt 0.272353 0.625532
vt 0.267647 0.606383
vt 0.250000 0.606383
vt 0.245294 0.625532
vt 0.245294 0.695745
vt 0.275490 0.712766
vt 0.275490 0.670213
vt 0.297059 0.670213
vt 0.297059 0.712766
vt 0.299020 0.712766
vt 0.299020 0.670213
vt 0.304902 0.670213
vt 0.304902 0.712766
vt 0.306863 0.712766
vt 0.306863 0.670213
vt 0.326471 0.670213
vt 0.326471 0.712766
vt 0.328431 0.712766
vt 0.328431 0.670213
vt 0.336275 0.670213
vt 0.336275 0.712766
vt 0.338235 0.712766
vt 0.338235 0.670213
vt 0.355882 0.670213
vt 0.355882 0.712766
vt 0.357843 0.712766
vt 0.357843 0.670213
vt 0.365686 0.670213
vt 0.365686 0.712766
vt 0.367647 0.712766
vt 0.367647 0.670213
vt 0.387255 0.670213
vt 0.387255 0.712766
vt 0.389216 0.712766
vt 0.389216 0.670213
vt 0.395098 0.670213
vt 0.395098 0.712766
vt 0.448658 0.708511
vt 0.461595 0.683217
vt 0.417899 0.361747
vt 0.398235 0.400193
vt 0.517285 0.708511
vt 0.530222 0.683217
vt 0.486527 0.361747
vt 0.466863 0.400193
vt 0.534314 0.712766
vt 0.534314 0.663121
vt 0.550000 0.663121
vt 0.550000 0.712766
vt 0.551961 0.712766
vt 0.551961 0.663121
vt 0.651961 0.663121
vt 0.651961 0.712766
vt 0.653922 0.712766
vt 0.653922 0.663121
vt 0.677451 0.663121
vt 0.677451 0.712766
vt 0.679412 0.712766
vt 0.679412 0.663121
vt 0.779412 0.663121
vt 0.779412 0.712766
vt 0.785490 0.708511
vt 0.810196 0.708511
vt 0.813137 0.695745
vt 0.813137 0.655319
vt 0.808431 0.636170
vt 0.787255 0.636170
vt 0.782549 0.655319
vt 0.782549 0.695745
vt 0.820784 0.708511
vt 0.845490 0.708511
vt 0.848431 0.695745
vt 0.848431 0.655319
vt 0.843725 0.636170
vt 0.822549 0.636170
vt 0.817843 0.655319
vt 0.817843 0.695745
vt 0.851961 0.712766
vt 0.851961 0.670213
vt 0.877451 0.670213
vt 0.877451 0.712766
vt 0.879412 0.712766
vt 0.879412 0.670213
vt 0.885294 0.670213
vt 0.885294 0.712766
vt 0.887255 0.712766
vt 0.887255 0.670213
vt 0.899020 0.670213
vt 0.899020 0.712766
vt 0.900980 0.712766
vt 0.900980 0.670213
vt 0.908824 0.670213
vt 0.908824 0.712766
vt 0.910784 0.712766
vt 0.910784 0.670213
vt 0.932353 0.670213
vt 0.932353 0.712766
vt 0.934314 0.712766
vt 0.934314 0.670213
vt 0.942157 0.670213
vt 0.942157 0.712766
vt 0.944118 0.712766
vt 0.944118 0.670213
vt 0.955882 0.670213
vt 0.955882 0.712766
vt 0.957843 0.712766
vt 0.957843 0.670213
vt 0.963725 0.670213
vt 0.963725 0.712766
vt 0.061244 0.346809
vt 0.072584 0.320119
vt 0.019907 0.001938
vt 0.002157 0.043713
vt 0.135754 0.346809
vt 0.147094 0.320119
vt 0.094416 0.001938
vt 0.076667 0.043713
vt 0.150000 0.351064
vt 0.150000 0.301418
vt 0.163725 0.301418
vt 0.163725 0.351064
vt 0.165686 0.351064
vt 0.165686 0.301418
vt 0.269608 0.301418
vt 0.269608 0.351064
vt 0.271569 0.351064
vt 0.271569 0.301418
vt 0.293137 0.301418
vt 0.293137 0.351064
vt 0.295098 0.351064
vt 0.295098 0.301418
vt 0.399020 0.301418
vt 0.399020 0.351064
f 5/5 1/1 2/2
f 5/5 2/2 3/3
f 3/3 4/4 5/5
f 7/7 6/6 10/10
f 8/8 7/7 10/10
f 10/10 9/9 8/8
f 11/11 14/12 13/13 12/14
f 15/15 18/16 17/17 16/18
f 19/19 22/20 21/21 20/22
f 23/23 26/24 25/25 24/26
f 27/27 30/28 29/29 28/30
f 36/36 31/31 32/32
f 36/36 32/32 33/33
f 36/36 33/33 34/34
f 34/34 35/35 36/36
f 38/38 37/37 42/42
f 39/39 38/38 42/42
f 40/40 39/39 42/42
f 42/42 41/41 40/40
f 43/43 46/44 45/45 44/46
f 47/47 50/48 49/49 48/50
f 51/51 54/52 53/53 52/54
f 55/55 58/56 57/57 56/58
f 59/59 62/60 61/61 60/62
f 63/63 66/64 65/65 64/66
f 67/67 74/74 73/73
f 67/67 73/73 72/72
f 67/67 72/72 71/71
f 67/67 71/71 70/70
f 67/67 70/70 69/69
f 69/69 68/68 67/67
f 81/81 82/82 75/75
f 80/80 81/81 75/75
f 79/79 80/80 75/75
f 78/78 79/79 75/75
f 77/77 78/78 75/75
f 75/75 76/76 77/77
f 83/83 86/84 85/85 84/86
f 87/87 90/88 89/89 88/90
f 91/91 94/92 93/93 92/94
f 95/95 98/96 97/97 96/98
f 99/99 102/100 101/101 100/102
f 103/103 106/104 105/105 104/106
f 107/107 110/108 109/109 108/110
f 111/111 114/112 113/113 112/114
f 120/120 115/115 116/116
f 120/120 116/116 117/117
f 120/120 117/117 118/118
f 118/118 119/119 120/120
f 122/122 121/121 126/126
f 123/123 122/122 126/126
f 124/124 123/123 126/126
f 126/126 125/125 124/124
f 127/127 130/128 129/129 128/130
f 131/131 134/132 133/133 132/134
f 135/135 138/136 137/137 136/138
f 139/139 142/140 141/141 140/142
f 143/143 146/144 145/145 144/146
f 147/147 150/148 149/149 148/150
f 151/151 163/152 164/153 152/154
f 152/155 164/156 165/157 153/158
f 153/159 165/160 166/161 154/162
f 154/163 166/164 167/165 155/166
f 155/167 167/168 168/169 156/170
f 156/171 168/172 169/173 157/174
f 157/175 169/176 170/177 158/178
f 158/179 170/180 171/181 159/182
f 159/183 171/184 172/185 160/186
f 160/187 172/188 173/189 161/190
f 161/191 173/192 174/193 162/194
f 162/195 174/196 163/197 151/198
f 153/201 152/200 151/199
f 154/202 153/201 151/199
f 155/203 154/202 151/199
f 156/204 155/203 151/199
f 157/205 156/204 151/199
f 158/206 157/205 151/199
f 159/207 158/206 151/199
f 160/208 159/207 151/199
f 161/209 160/208 151/199
f 162/210 161/209 151/199
f 163/211 164/212 165/213
f 163/211 165/213 166/214
f 163/211 166/214 167/215
f 163/211 167/215 168/216
f 163/211 168/216 169/217
f 163/211 169/217 170/218
f 163/211 170/218 171/219
f 163/211 171/219 172/220
f 163/211 172/220 173/221
f 163/211 173/221 174/222
f 175/223 185/224 186/225 176/226
f 176/227 186/228 187/229 177/230
f 177/231 187/232 188/233 178/234
f 178/235 188/236 189/237 179/238
f 179/239 189/240 190/241 180/242
f 180/243 190/244 191/245 181/246
f 181/247 191/248 192/249 182/250
f 182/251 192/252 193/253 183/254
f 183/255 193/256 194/257 184/258
f 184/259 194/260 185/261 175/262
f 177/265 176/264 175/263
f 178/266 177/265 175/263
f 179/267 178/266 175/263
f 180/268 179/267 175/263
f 181/269 180/268 175/263
f 182/270 181/269 175/263
f 183/271 182/270 175/263
f 184/272 183/271 175/263
f 185/273 186/274 187/275
f 185/273 187/275 188/276
f 185/273 188/276 189/277
f 185/273 189/277 190/278
f 185/273 190/278 191/279
f 185/273 191/279 192/280
f 185/273 192/280 193/281
f 185/273 193/281 194/282
f 198/286 195/283 196/284
f 196/284 197/285 198/286
f 200/288 199/287 202/290
f 202/290 201/289 200/288
f 203/291 206/292 205/293 204/294
f 207/295 210/296 209/297 208/298
f 211/299 214/300 213/301 212/302
f 215/303 218/304 217/305 216/306
f 222/310 219/307 220/308
f 220/308 221/309 222/310
f 224/312 223/311 226/314
f 226/314 225/313 224/312
f 227/315 230/316 229/317 228/318
f 231/319 234/320 233/321 232/322
f 235/323 238/324 237/325 236/326
f 239/327 242/328 241/329 240/330
f 250/338 243/331 244/332
f 250/338 244/332 245/333
f 250/338 245/333 246/334
f 250/338 246/334 247/335
f 250/338 247/335 248/336
f 248/336 249/337 250/338
f 252/340 251/339 258/346
f 253/341 252/340 258/346
f 254/342 253/341 258/346
f 255/343 254/342 258/346
f 256/344 255/343 258/346
f 258/346 257/345 256/344
f 259/347 262/348 261/349 260/350
f 263/351 266/352 265/353 264/354
f 267/355 270/356 269/357 268/358
f 271/359 274/360 273/361 272/362
f 275/363 278/364 277/365 276/366
f 279/367 282/368 281/369 280/370
f 283/371 286/372 285/373 284/374
f 287/375 290/376 289/377 288/378
f 294/382 291/379 292/380
f 292/380 293/381 294/382
f 296/384 295/383 298/386
f 298/386 297/385 296/384
f 299/387 302/388 301/389 300/390
f 303/391 306/392 305/393 304/394
f 307/395 310/396 309/397 308/398
f 311/399 314/400 313/401 312/402
f 322/410 315/403 316/404
f 322/410 316/404 317/405
f 322/410 317/405 318/406
f 322/410 318/406 319/407
f 322/410 319/407 320/408
f 320/408 321/409 322/410
f 324/412 323/411 330/418
f 325/413 324/412 330/418
f 326/414 325/413 330/418
f 327/415 326/414 330/418
f 328/416 327/415 330/418
f 330/418 329/417 328/416
f 331/419 334/420 333/421 332/422
f 335/423 338/424 337/425 336/426
f 339/427 342/428 341/429 340/430
f 343/431 346/432 345/433 344/434
f 347/435 350/436 349/437 348/438
f 351/439 354/440 353/441 352/442
f 355/443 358/444 357/445 356/446
f 359/447 362/448 361/449 360/450
f 366/454 363/451 364/452
f 364/452 365/453 366/454
f 368/456 367/455 370/458
f 370/458 369/457 368/456
f 371/459 374/460 373/461 372/462
f 375/463 378/464 377/465 376/466
f 379/467 382/468 381/469 380/470
f 383/471 386/472 385/473 384/474
