mtllib smg_model.mtl
usemtl gun
v -5.2000 3.4000 0.9000
v 10.6000 3.4000 0.9000
v 11.2000 2.8000 0.9000
v 11.2000 -1.0000 0.9000
v -5.2000 -1.0000 0.9000
v -5.2000 3.4000 -0.9000
v 10.6000 3.4000 -0.9000
v 11.2000 2.8000 -0.9000
v 11.2000 -1.0000 -0.9000
v -5.2000 -1.0000 -0.9000
v -5.2000 3.4000 0.9000
v 10.6000 3.4000 0.9000
v 10.6000 3.4000 -0.9000
v -5.2000 3.4000 -0.9000
v 10.6000 3.4000 0.9000
v 11.2000 2.8000 0.9000
v 11.2000 2.8000 -0.9000
v 10.6000 3.4000 -0.9000
v 11.2000 2.8000 0.9000
v 11.2000 -1.0000 0.9000
v 11.2000 -1.0000 -0.9000
v 11.2000 2.8000 -0.9000
v 11.2000 -1.0000 0.9000
v -5.2000 -1.0000 0.9000
v -5.2000 -1.0000 -0.9000
v 11.2000 -1.0000 -0.9000
v -5.2000 -1.0000 0.9000
v -5.2000 3.4000 0.9000
v -5.2000 3.4000 -0.9000
v -5.2000 -1.0000 -0.9000
v -2.6000 -0.8000 0.8500
v 1.6000 -0.8000 0.8500
v 2.4000 -8.8000 0.8500
v -3.0000 -8.8000 0.8500
v -2.6000 -0.8000 -0.8500
v 1.6000 -0.8000 -0.8500
v 2.4000 -8.8000 -0.8500
v -3.0000 -8.8000 -0.8500
v -2.6000 -0.8000 0.8500
v 1.6000 -0.8000 0.8500
v 1.6000 -0.8000 -0.8500
v -2.6000 -0.8000 -0.8500
v 1.6000 -0.8000 0.8500
v 2.4000 -8.8000 0.8500
v 2.4000 -8.8000 -0.8500
v 1.6000 -0.8000 -0.8500
v 2.4000 -8.8000 0.8500
v -3.0000 -8.8000 0.8500
v -3.0000 -8.8000 -0.8500
v 2.4000 -8.8000 -0.8500
v -3.0000 -8.8000 0.8500
v -2.6000 -0.8000 0.8500
v -2.6000 -0.8000 -0.8500
v -3.0000 -8.8000 -0.8500
v 2.8000 -0.8000 0.4500
v 8.0000 -0.8000 0.4500
v 8.0000 -1.4000 0.4500
v 6.0000 -1.4000 0.4500
v 6.0000 -2.8000 0.4500
v 3.4000 -2.8000 0.4500
v 2.8000 -2.0000 0.4500
v 2.8000 -0.8000 -0.4500
v 8.0000 -0.8000 -0.4500
v 8.0000 -1.4000 -0.4500
v 6.0000 -1.4000 -0.4500
v 6.0000 -2.8000 -0.4500
v 3.4000 -2.8000 -0.4500
v 2.8000 -2.0000 -0.4500
v 2.8000 -0.8000 0.4500
v 8.0000 -0.8000 0.4500
v 8.0000 -0.8000 -0.4500
v 2.8000 -0.8000 -0.4500
v 8.0000 -0.8000 0.4500
v 8.0000 -1.4000 0.4500
v 8.0000 -1.4000 -0.4500
v 8.0000 -0.8000 -0.4500
v 8.0000 -1.4000 0.4500
v 6.0000 -1.4000 0.4500
v 6.0000 -1.4000 -0.4500
v 8.0000 -1.4000 -0.4500
v 6.0000 -1.4000 0.4500
v 6.0000 -2.8000 0.4500
v 6.0000 -2.8000 -0.4500
v 6.0000 -1.4000 -0.4500
v 6.0000 -2.8000 0.4500
v 3.4000 -2.8000 0.4500
v 3.4000 -2.8000 -0.4500
v 6.0000 -2.8000 -0.4500
v 3.4000 -2.8000 0.4500
v 2.8000 -2.0000 0.4500
v 2.8000 -2.0000 -0.4500
v 3.4000 -2.8000 -0.4500
v 2.8000 -2.0000 0.4500
v 2.8000 -0.8000 0.4500
v 2.8000 -0.8000 -0.4500
v 2.8000 -2.0000 -0.4500
v 11.0000 1.4000 0.4200
v 11.0000 1.1030 0.2970
v 11.0000 0.9800 0.0000
v 11.0000 1.1030 -0.2970
v 11.0000 1.4000 -0.4200
v 11.0000 1.6970 -0.2970
v 11.0000 1.8200 -0.0000
v 11.0000 1.6970 0.2970
v 16.0000 1.4000 0.4200
v 16.0000 1.1030 0.2970
v 16.0000 0.9800 0.0000
v 16.0000 1.1030 -0.2970
v 16.0000 1.4000 -0.4200
v 16.0000 1.6970 -0.2970
v 16.0000 1.8200 -0.0000
v 16.0000 1.6970 0.2970
v 15.2000 1.4000 0.6200
v 15.2000 0.9616 0.4384
v 15.2000 0.7800 0.0000
v 15.2000 0.9616 -0.4384
v 15.2000 1.4000 -0.6200
v 15.2000 1.8384 -0.4384
v 15.2000 2.0200 -0.0000
v 15.2000 1.8384 0.4384
v 17.0000 1.4000 0.6200
v 17.0000 0.9616 0.4384
v 17.0000 0.7800 0.0000
v 17.0000 0.9616 -0.4384
v 17.0000 1.4000 -0.6200
v 17.0000 1.8384 -0.4384
v 17.0000 2.0200 -0.0000
v 17.0000 1.8384 0.4384
v -12.2000 3.0000 0.5000
v -5.0000 3.0000 0.5000
v -5.0000 2.5000 0.5000
v -12.2000 2.5000 0.5000
v -12.2000 3.0000 -0.5000
v -5.0000 3.0000 -0.5000
v -5.0000 2.5000 -0.5000
v -12.2000 2.5000 -0.5000
v -12.2000 3.0000 0.5000
v -5.0000 3.0000 0.5000
v -5.0000 3.0000 -0.5000
v -12.2000 3.0000 -0.5000
v -5.0000 3.0000 0.5000
v -5.0000 2.5000 0.5000
v -5.0000 2.5000 -0.5000
v -5.0000 3.0000 -0.5000
v -5.0000 2.5000 0.5000
v -12.2000 2.5000 0.5000
v -12.2000 2.5000 -0.5000
v -5.0000 2.5000 -0.5000
v -12.2000 2.5000 0.5000
v -12.2000 3.0000 0.5000
v -12.2000 3.0000 -0.5000
v -12.2000 2.5000 -0.5000
vt 0.003386 0.942500
vt 0.097809 0.942500
vt 0.101394 0.897500
vt 0.101394 0.612500
vt 0.003386 0.612500
vt 0.112948 0.942500
vt 0.207371 0.942500
vt 0.210956 0.897500
vt 0.210956 0.612500
vt 0.112948 0.612500
vt 0.220120 0.987500
vt 0.220120 0.837500
vt 0.315737 0.837500
vt 0.315737 0.987500
vt 0.317729 0.987500
vt 0.317729 0.837500
vt 0.323705 0.837500
vt 0.323705 0.987500
vt 0.325697 0.987500
vt 0.325697 0.837500
vt 0.349602 0.837500
vt 0.349602 0.987500
vt 0.351594 0.987500
vt 0.351594 0.837500
vt 0.451195 0.837500
vt 0.451195 0.987500
vt 0.453187 0.987500
vt 0.453187 0.837500
vt 0.481076 0.837500
vt 0.481076 0.987500
vt 0.489044 0.972500
vt 0.514143 0.972500
vt 0.518924 0.372500
vt 0.486653 0.372500
vt 0.534861 0.972500
vt 0.559960 0.972500
vt 0.564741 0.372500
vt 0.532470 0.372500
vt 0.574701 0.987500
vt 0.574701 0.837500
vt 0.600598 0.837500
vt 0.600598 0.987500
vt 0.602590 0.987500
vt 0.602590 0.837500
vt 0.652390 0.837500
vt 0.652390 0.987500
vt 0.654382 0.987500
vt 0.654382 0.837500
vt 0.688247 0.837500
vt 0.688247 0.987500
vt 0.690239 0.987500
vt 0.690239 0.837500
vt 0.740040 0.837500
vt 0.740040 0.987500
vt 0.743227 0.972500
vt 0.774303 0.972500
vt 0.774303 0.927500
vt 0.762351 0.927500
vt 0.762351 0.822500
vt 0.746813 0.822500
vt 0.743227 0.882500
vt 0.781076 0.972500
vt 0.812151 0.972500
vt 0.812151 0.927500
vt 0.800199 0.927500
vt 0.800199 0.822500
vt 0.784661 0.822500
vt 0.781076 0.882500
vt 0.817729 0.987500
vt 0.817729 0.912500
vt 0.849602 0.912500
vt 0.849602 0.987500
vt 0.851594 0.987500
vt 0.851594 0.912500
vt 0.855578 0.912500
vt 0.855578 0.987500
vt 0.857570 0.987500
vt 0.857570 0.912500
vt 0.869522 0.912500
vt 0.869522 0.987500
vt 0.871514 0.987500
vt 0.871514 0.912500
vt 0.881474 0.912500
vt 0.881474 0.987500
vt 0.883466 0.987500
vt 0.883466 0.912500
vt 0.899402 0.912500
vt 0.899402 0.987500
vt 0.901394 0.987500
vt 0.901394 0.912500
vt 0.907371 0.912500
vt 0.907371 0.987500
vt 0.909363 0.987500
vt 0.909363 0.912500
vt 0.917331 0.912500
vt 0.917331 0.987500
vt 0.919323 0.987500
vt 0.949203 0.987500
vt 0.949203 0.962500
vt 0.919323 0.962500
vt 0.919323 0.962500
vt 0.949203 0.962500
vt 0.949203 0.937500
vt 0.919323 0.937500
vt 0.919323 0.937500
vt 0.949203 0.937500
vt 0.949203 0.912500
vt 0.919323 0.912500
vt 0.919323 0.912500
vt 0.949203 0.912500
vt 0.949203 0.887500
vt 0.919323 0.887500
vt 0.919323 0.887500
vt 0.949203 0.887500
vt 0.949203 0.862500
vt 0.919323 0.862500
vt 0.919323 0.862500
vt 0.949203 0.862500
vt 0.949203 0.837500
vt 0.919323 0.837500
vt 0.919323 0.837500
vt 0.949203 0.837500
vt 0.949203 0.812500
vt 0.919323 0.812500
vt 0.919323 0.812500
vt 0.949203 0.812500
vt 0.949203 0.787500
vt 0.919323 0.787500
vt 0.957171 0.950000
vt 0.956296 0.923483
vt 0.954183 0.912500
vt 0.952070 0.923483
vt 0.951195 0.950000
vt 0.952070 0.976517
vt 0.954183 0.987500
vt 0.956296 0.976517
vt 0.965139 0.950000
vt 0.964264 0.923483
vt 0.962151 0.912500
vt 0.960039 0.923483
vt 0.959163 0.950000
vt 0.960039 0.976517
vt 0.962151 0.987500
vt 0.964264 0.976517
vt 0.967131 0.987500
vt 0.979084 0.987500
vt 0.979084 0.950000
vt 0.967131 0.950000
vt 0.967131 0.950000
vt 0.979084 0.950000
vt 0.979084 0.912500
vt 0.967131 0.912500
vt 0.967131 0.912500
vt 0.979084 0.912500
vt 0.979084 0.875000
vt 0.967131 0.875000
vt 0.967131 0.875000
vt 0.979084 0.875000
vt 0.979084 0.837500
vt 0.967131 0.837500
vt 0.967131 0.837500
vt 0.979084 0.837500
vt 0.979084 0.800000
vt 0.967131 0.800000
vt 0.967131 0.800000
vt 0.979084 0.800000
vt 0.979084 0.762500
vt 0.967131 0.762500
vt 0.967131 0.762500
vt 0.979084 0.762500
vt 0.979084 0.725000
vt 0.967131 0.725000
vt 0.967131 0.725000
vt 0.979084 0.725000
vt 0.979084 0.687500
vt 0.967131 0.687500
vt 0.989044 0.937500
vt 0.987877 0.902145
vt 0.985060 0.887500
vt 0.982243 0.902145
vt 0.981076 0.937500
vt 0.982243 0.972855
vt 0.985060 0.987500
vt 0.987877 0.972855
vt 0.999004 0.937500
vt 0.997837 0.902145
vt 0.995020 0.887500
vt 0.992203 0.902145
vt 0.991036 0.937500
vt 0.992203 0.972855
vt 0.995020 0.987500
vt 0.997837 0.972855
vt 0.003386 0.242500
vt 0.046414 0.242500
vt 0.046414 0.205000
vt 0.003386 0.205000
vt 0.053187 0.242500
vt 0.096215 0.242500
vt 0.096215 0.205000
vt 0.053187 0.205000
vt 0.100598 0.287500
vt 0.100598 0.212500
vt 0.144422 0.212500
vt 0.144422 0.287500
vt 0.146414 0.287500
vt 0.146414 0.212500
vt 0.150398 0.212500
vt 0.150398 0.287500
vt 0.152390 0.287500
vt 0.152390 0.212500
vt 0.196215 0.212500
vt 0.196215 0.287500
vt 0.198207 0.287500
vt 0.198207 0.212500
vt 0.202191 0.212500
vt 0.202191 0.287500
f 5/5 1/1 2/2
f 5/5 2/2 3/3
f 3/3 4/4 5/5
f 7/7 6/6 10/10
f 8/8 7/7 10/10
f 10/10 9/9 8/8
f 11/11 14/12 13/13 12/14
f 15/15 18/16 17/17 16/18
f 19/19 22/20 21/21 20/22
f 23/23 26/24 25/25 24/26
f 27/27 30/28 29/29 28/30
f 34/34 31/31 32/32
f 32/32 33/33 34/34
f 36/36 35/35 38/38
f 38/38 37/37 36/36
f 39/39 42/40 41/41 40/42
f 43/43 46/44 45/45 44/46
f 47/47 50/48 49/49 48/50
f 51/51 54/52 53/53 52/54
f 61/61 55/55 56/56
f 56/56 57/57 58/58
f 61/61 56/56 58/58
f 61/61 58/58 59/59
f 59/59 60/60 61/61
f 63/63 62/62 68/68
f 65/65 64/64 63/63
f 65/65 63/63 68/68
f 66/66 65/65 68/68
f 68/68 67/67 66/66
f 69/69 72/70 71/71 70/72
f 73/73 76/74 75/75 74/76
f 77/77 80/78 79/79 78/80
f 81/81 84/82 83/83 82/84
f 85/85 88/86 87/87 86/88
f 89/89 92/90 91/91 90/92
f 93/93 96/94 95/95 94/96
f 97/97 105/98 106/99 98/100
f 98/101 106/102 107/103 99/104
f 99/105 107/106 108/107 100/108
f 100/109 108/110 109/111 101/112
f 101/113 109/114 110/115 102/116
f 102/117 110/118 111/119 103/120
f 103/121 111/122 112/123 104/124
f 104/125 112/126 105/127 97/128
f 99/131 98/130 97/129
f 100/132 99/131 97/129
f 101/133 100/132 97/129
f 102/134 101/133 97/129
f 103/135 102/134 97/129
f 104/136 103/135 97/129
f 105/137 106/138 107/139
f 105/137 107/139 108/140
f 105/137 108/140 109/141
f 105/137 109/141 110/142
f 105/137 110/142 111/143
f 105/137 111/143 112/144
f 113/145 121/146 122/147 114/148
f 114/149 122/150 123/151 115/152
f 115/153 123/154 124/155 116/156
f 116/157 124/158 125/159 117/160
f 117/161 125/162 126/163 118/164
f 118/165 126/166 127/167 119/168
f 119/169 127/170 128/171 120/172
f 120/173 128/174 121/175 113/176
f 115/179 114/178 113/177
f 116/180 115/179 113/177
f 117/181 116/180 113/177
f 118/182 117/181 113/177
f 119/183 118/182 113/177
f 120/184 119/183 113/177
f 121/185 122/186 123/187
f 121/185 123/187 124/188
f 121/185 124/188 125/189
f 121/185 125/189 126/190
f 121/185 126/190 127/191
f 121/185 127/191 128/192
f 132/196 129/193 130/194
f 130/194 131/195 132/196
f 134/198 133/197 136/200
f 136/200 135/199 134/198
f 137/201 140/202 139/203 138/204
f 141/205 144/206 143/207 142/208
f 145/209 148/210 147/211 146/212
f 149/213 152/214 151/215 150/216
