mtllib smg_fp_model.mtl
usemtl gun
v -5.2000 3.4000 0.9000
v 10.6000 3.4000 0.9000
v 11.2000 2.8000 0.9000
v 11.2000 -1.0000 0.9000
v -5.2000 -1.0000 0.9000
v -5.2000 3.4000 -0.9000
v 10.6000 3.4000 -0.9000
v 11.2000 2.8000 -0.9000
v 11.2000 -1.0000 -0.9000
v -5.2000 -1.0000 -0.9000
v -5.2000 3.4000 0.9000
v 10.6000 3.4000 0.9000
v 10.6000 3.4000 -0.9000
v -5.2000 3.4000 -0.9000
v 10.6000 3.4000 0.9000
v 11.2000 2.8000 0.9000
v 11.2000 2.8000 -0.9000
v 10.6000 3.4000 -0.9000
v 11.2000 2.8000 0.9000
v 11.2000 -1.0000 0.9000
v 11.2000 -1.0000 -0.9000
v 11.2000 2.8000 -0.9000
v 11.2000 -1.0000 0.9000
v -5.2000 -1.0000 0.9000
v -5.2000 -1.0000 -0.9000
v 11.2000 -1.0000 -0.9000
v -5.2000 -1.0000 0.9000
v -5.2000 3.4000 0.9000
v -5.2000 3.4000 -0.9000
v -5.2000 -1.0000 -0.9000
v -2.6000 -0.8000 0.8500
v 1.6000 -0.8000 0.8500
v 2.4000 -8.8000 0.8500
v -3.0000 -8.8000 0.8500
v -2.6000 -0.8000 -0.8500
v 1.6000 -0.8000 -0.8500
v 2.4000 -8.8000 -0.8500
v -3.0000 -8.8000 -0.8500
v -2.6000 -0.8000 0.8500
v 1.6000 -0.8000 0.8500
v 1.6000 -0.8000 -0.8500
v -2.6000 -0.8000 -0.8500
v 1.6000 -0.8000 0.8500
v 2.4000 -8.8000 0.8500
v 2.4000 -8.8000 -0.8500
v 1.6000 -0.8000 -0.8500
v 2.4000 -8.8000 0.8500
v -3.0000 -8.8000 0.8500
v -3.0000 -8.8000 -0.8500
v 2.4000 -8.8000 -0.8500
v -3.0000 -8.8000 0.8500
v -2.6000 -0.8000 0.8500
v -2.6000 -0.8000 -0.8500
v -3.0000 -8.8000 -0.8500
v 2.8000 -0.8000 0.4500
v 8.0000 -0.8000 0.4500
v 8.0000 -1.4000 0.4500
v 6.0000 -1.4000 0.4500
v 6.0000 -2.8000 0.4500
v 3.4000 -2.8000 0.4500
v 2.8000 -2.0000 0.4500
v 2.8000 -0.8000 -0.4500
v 8.0000 -0.8000 -0.4500
v 8.0000 -1.4000 -0.4500
v 6.0000 -1.4000 -0.4500
v 6.0000 -2.8000 -0.4500
v 3.4000 -2.8000 -0.4500
v 2.8000 -2.0000 -0.4500
v 2.8000 -0.8000 0.4500
v 8.0000 -0.8000 0.4500
v 8.0000 -0.8000 -0.4500
v 2.8000 -0.8000 -0.4500
v 8.0000 -0.8000 0.4500
v 8.0000 -1.4000 0.4500
v 8.0000 -1.4000 -0.4500
v 8.0000 -0.8000 -0.4500
v 8.0000 -1.4000 0.4500
v 6.0000 -1.4000 0.4500
v 6.0000 -1.4000 -0.4500
v 8.0000 -1.4000 -0.4500
v 6.0000 -1.4000 0.4500
v 6.0000 -2.8000 0.4500
v 6.0000 -2.8000 -0.4500
v 6.0000 -1.4000 -0.4500
v 6.0000 -2.8000 0.4500
v 3.4000 -2.8000 0.4500
v 3.4000 -2.8000 -0.4500
v 6.0000 -2.8000 -0.4500
v 3.4000 -2.8000 0.4500
v 2.8000 -2.0000 0.4500
v 2.8000 -2.0000 -0.4500
v 3.4000 -2.8000 -0.4500
v 2.8000 -2.0000 0.4500
v 2.8000 -0.8000 0.4500
v 2.8000 -0.8000 -0.4500
v 2.8000 -2.0000 -0.4500
v 11.0000 1.4000 0.4200
v 11.0000 1.1030 0.2970
v 11.0000 0.9800 0.0000
v 11.0000 1.1030 -0.2970
v 11.0000 1.4000 -0.4200
v 11.0000 1.6970 -0.2970
v 11.0000 1.8200 -0.0000
v 11.0000 1.6970 0.2970
v 16.0000 1.4000 0.4200
v 16.0000 1.1030 0.2970
v 16.0000 0.9800 0.0000
v 16.0000 1.1030 -0.2970
v 16.0000 1.4000 -0.4200
v 16.0000 1.6970 -0.2970
v 16.0000 1.8200 -0.0000
v 16.0000 1.6970 0.2970
v 15.2000 1.4000 0.6200
v 15.2000 0.9616 0.4384
v 15.2000 0.7800 0.0000
v 15.2000 0.9616 -0.4384
v 15.2000 1.4000 -0.6200
v 15.2000 1.8384 -0.4384
v 15.2000 2.0200 -0.0000
v 15.2000 1.8384 0.4384
v 17.0000 1.4000 0.6200
v 17.0000 0.9616 0.4384
v 17.0000 0.7800 0.0000
v 17.0000 0.9616 -0.4384
v 17.0000 1.4000 -0.6200
v 17.0000 1.8384 -0.4384
v 17.0000 2.0200 -0.0000
v 17.0000 1.8384 0.4384
v -12.2000 3.0000 0.5000
v -5.0000 3.0000 0.5000
v -5.0000 2.5000 0.5000
v -12.2000 2.5000 0.5000
v -12.2000 3.0000 -0.5000
v -5.0000 3.0000 -0.5000
v -5.0000 2.5000 -0.5000
v -12.2000 2.5000 -0.5000
v -12.2000 3.0000 0.5000
v -5.0000 3.0000 0.5000
v -5.0000 3.0000 -0.5000
v -12.2000 3.0000 -0.5000
v -5.0000 3.0000 0.5000
v -5.0000 2.5000 0.5000
v -5.0000 2.5000 -0.5000
v -5.0000 3.0000 -0.5000
v -5.0000 2.5000 0.5000
v -12.2000 2.5000 0.5000
v -12.2000 2.5000 -0.5000
v -5.0000 2.5000 -0.5000
v -12.2000 2.5000 0.5000
v -12.2000 3.0000 0.5000
v -12.2000 3.0000 -0.5000
v -12.2000 2.5000 -0.5000
v -1.9000 -0.2000 0.9500
v 1.7000 -0.2000 0.9500
v 2.2000 -0.8000 0.9500
v 2.2000 -4.1000 0.9500
v 1.4000 -5.0000 0.9500
v -1.6000 -5.0000 0.9500
v -2.4000 -4.1000 0.9500
v -2.4000 -0.8000 0.9500
v -1.9000 -0.2000 -0.9500
v 1.7000 -0.2000 -0.9500
v 2.2000 -0.8000 -0.9500
v 2.2000 -4.1000 -0.9500
v 1.4000 -5.0000 -0.9500
v -1.6000 -5.0000 -0.9500
v -2.4000 -4.1000 -0.9500
v -2.4000 -0.8000 -0.9500
v -1.9000 -0.2000 0.9500
v 1.7000 -0.2000 0.9500
v 1.7000 -0.2000 -0.9500
v -1.9000 -0.2000 -0.9500
v 1.7000 -0.2000 0.9500
v 2.2000 -0.8000 0.9500
v 2.2000 -0.8000 -0.9500
v 1.7000 -0.2000 -0.9500
v 2.2000 -0.8000 0.9500
v 2.2000 -4.1000 0.9500
v 2.2000 -4.1000 -0.9500
v 2.2000 -0.8000 -0.9500
v 2.2000 -4.1000 0.9500
v 1.4000 -5.0000 0.9500
v 1.4000 -5.0000 -0.9500
v 2.2000 -4.1000 -0.9500
v 1.4000 -5.0000 0.9500
v -1.6000 -5.0000 0.9500
v -1.6000 -5.0000 -0.9500
v 1.4000 -5.0000 -0.9500
v -1.6000 -5.0000 0.9500
v -2.4000 -4.1000 0.9500
v -2.4000 -4.1000 -0.9500
v -1.6000 -5.0000 -0.9500
v -2.4000 -4.1000 0.9500
v -2.4000 -0.8000 0.9500
v -2.4000 -0.8000 -0.9500
v -2.4000 -4.1000 -0.9500
v -2.4000 -0.8000 0.9500
v -1.9000 -0.2000 0.9500
v -1.9000 -0.2000 -0.9500
v -2.4000 -0.8000 -0.9500
v -2.0996 -4.6056 1.0500
v 0.0996 -5.7944 1.0500
v -7.3286 -20.9035 1.0500
v -10.6714 -19.0965 1.0500
v -2.0996 -4.6056 -1.0500
v 0.0996 -5.7944 -1.0500
v -7.3286 -20.9035 -1.0500
v -10.6714 -19.0965 -1.0500
v -2.0996 -4.6056 1.0500
v 0.0996 -5.7944 1.0500
v 0.0996 -5.7944 -1.0500
v -2.0996 -4.6056 -1.0500
v 0.0996 -5.7944 1.0500
v -7.3286 -20.9035 1.0500
v -7.3286 -20.9035 -1.0500
v 0.0996 -5.7944 -1.0500
v -7.3286 -20.9035 1.0500
v -10.6714 -19.0965 1.0500
v -10.6714 -19.0965 -1.0500
v -7.3286 -20.9035 -1.0500
v -10.6714 -19.0965 1.0500
v -2.0996 -4.6056 1.0500
v -2.0996 -4.6056 -1.0500
v -10.6714 -19.0965 -1.0500
v 5.0000 0.1000 0.9500
v 9.2000 0.1000 0.9500
v 9.7000 -0.5000 0.9500
v 9.7000 -2.4000 0.9500
v 8.9000 -3.3000 0.9500
v 5.3000 -3.3000 0.9500
v 4.5000 -2.4000 0.9500
v 4.5000 -0.5000 0.9500
v 5.0000 0.1000 -0.9500
v 9.2000 0.1000 -0.9500
v 9.7000 -0.5000 -0.9500
v 9.7000 -2.4000 -0.9500
v 8.9000 -3.3000 -0.9500
v 5.3000 -3.3000 -0.9500
v 4.5000 -2.4000 -0.9500
v 4.5000 -0.5000 -0.9500
v 5.0000 0.1000 0.9500
v 9.2000 0.1000 0.9500
v 9.2000 0.1000 -0.9500
v 5.0000 0.1000 -0.9500
v 9.2000 0.1000 0.9500
v 9.7000 -0.5000 0.9500
v 9.7000 -0.5000 -0.9500
v 9.2000 0.1000 -0.9500
v 9.7000 -0.5000 0.9500
v 9.7000 -2.4000 0.9500
v 9.7000 -2.4000 -0.9500
v 9.7000 -0.5000 -0.9500
v 9.7000 -2.4000 0.9500
v 8.9000 -3.3000 0.9500
v 8.9000 -3.3000 -0.9500
v 9.7000 -2.4000 -0.9500
v 8.9000 -3.3000 0.9500
v 5.3000 -3.3000 0.9500
v 5.3000 -3.3000 -0.9500
v 8.9000 -3.3000 -0.9500
v 5.3000 -3.3000 0.9500
v 4.5000 -2.4000 0.9500
v 4.5000 -2.4000 -0.9500
v 5.3000 -3.3000 -0.9500
v 4.5000 -2.4000 0.9500
v 4.5000 -0.5000 0.9500
v 4.5000 -0.5000 -0.9500
v 4.5000 -2.4000 -0.9500
v 4.5000 -0.5000 0.9500
v 5.0000 0.1000 0.9500
v 5.0000 0.1000 -0.9500
v 4.5000 -0.5000 -0.9500
v 5.0361 -2.3728 1.0500
v 6.9639 -3.6272 1.0500
v -1.9913 -18.5817 1.0500
v -5.0087 -16.6183 1.0500
v 5.0361 -2.3728 -1.0500
v 6.9639 -3.6272 -1.0500
v -1.9913 -18.5817 -1.0500
v -5.0087 -16.6183 -1.0500
v 5.0361 -2.3728 1.0500
v 6.9639 -3.6272 1.0500
v 6.9639 -3.6272 -1.0500
v 5.0361 -2.3728 -1.0500
v 6.9639 -3.6272 1.0500
v -1.9913 -18.5817 1.0500
v -1.9913 -18.5817 -1.0500
v 6.9639 -3.6272 -1.0500
v -1.9913 -18.5817 1.0500
v -5.0087 -16.6183 1.0500
v -5.0087 -16.6183 -1.0500
v -1.9913 -18.5817 -1.0500
v -5.0087 -16.6183 1.0500
v 5.0361 -2.3728 1.0500
v 5.0361 -2.3728 -1.0500
v -5.0087 -16.6183 -1.0500
vt 0.003386 0.982171
vt 0.097809 0.982171
vt 0.101394 0.968217
vt 0.101394 0.879845
vt 0.003386 0.879845
vt 0.112948 0.982171
vt 0.207371 0.982171
vt 0.210956 0.968217
vt 0.210956 0.879845
vt 0.112948 0.879845
vt 0.220120 0.996124
vt 0.220120 0.949612
vt 0.315737 0.949612
vt 0.315737 0.996124
vt 0.317729 0.996124
vt 0.317729 0.949612
vt 0.323705 0.949612
vt 0.323705 0.996124
vt 0.325697 0.996124
vt 0.325697 0.949612
vt 0.349602 0.949612
vt 0.349602 0.996124
vt 0.351594 0.996124
vt 0.351594 0.949612
vt 0.451195 0.949612
vt 0.451195 0.996124
vt 0.453187 0.996124
vt 0.453187 0.949612
vt 0.481076 0.949612
vt 0.481076 0.996124
vt 0.489044 0.991473
vt 0.514143 0.991473
vt 0.518924 0.805426
vt 0.486653 0.805426
vt 0.534861 0.991473
vt 0.559960 0.991473
vt 0.564741 0.805426
vt 0.532470 0.805426
vt 0.574701 0.996124
vt 0.574701 0.949612
vt 0.600598 0.949612
vt 0.600598 0.996124
vt 0.602590 0.996124
vt 0.602590 0.949612
vt 0.652390 0.949612
vt 0.652390 0.996124
vt 0.654382 0.996124
vt 0.654382 0.949612
vt 0.688247 0.949612
vt 0.688247 0.996124
vt 0.690239 0.996124
vt 0.690239 0.949612
vt 0.740040 0.949612
vt 0.740040 0.996124
vt 0.743227 0.991473
vt 0.774303 0.991473
vt 0.774303 0.977519
vt 0.762351 0.977519
vt 0.762351 0.944961
vt 0.746813 0.944961
vt 0.743227 0.963566
vt 0.781076 0.991473
vt 0.812151 0.991473
vt 0.812151 0.977519
vt 0.800199 0.977519
vt 0.800199 0.944961
vt 0.784661 0.944961
vt 0.781076 0.963566
vt 0.817729 0.996124
vt 0.817729 0.972868
vt 0.849602 0.972868
vt 0.849602 0.996124
vt 0.851594 0.996124
vt 0.851594 0.972868
vt 0.855578 0.972868
vt 0.855578 0.996124
vt 0.857570 0.996124
vt 0.857570 0.972868
vt 0.869522 0.972868
vt 0.869522 0.996124
vt 0.871514 0.996124
vt 0.871514 0.972868
vt 0.881474 0.972868
vt 0.881474 0.996124
vt 0.883466 0.996124
vt 0.883466 0.972868
vt 0.899402 0.972868
vt 0.899402 0.996124
vt 0.901394 0.996124
vt 0.901394 0.972868
vt 0.907371 0.972868
vt 0.907371 0.996124
vt 0.909363 0.996124
vt 0.909363 0.972868
vt 0.917331 0.972868
vt 0.917331 0.996124
vt 0.919323 0.996124
vt 0.949203 0.996124
vt 0.949203 0.988372
vt 0.919323 0.988372
vt 0.919323 0.988372
vt 0.949203 0.988372
vt 0.949203 0.980620
vt 0.919323 0.980620
vt 0.919323 0.980620
vt 0.949203 0.980620
vt 0.949203 0.972868
vt 0.919323 0.972868
vt 0.919323 0.972868
vt 0.949203 0.972868
vt 0.949203 0.965116
vt 0.919323 0.965116
vt 0.919323 0.965116
vt 0.949203 0.965116
vt 0.949203 0.957364
vt 0.919323 0.957364
vt 0.919323 0.957364
vt 0.949203 0.957364
vt 0.949203 0.949612
vt 0.919323 0.949612
vt 0.919323 0.949612
vt 0.949203 0.949612
vt 0.949203 0.941860
vt 0.919323 0.941860
vt 0.919323 0.941860
vt 0.949203 0.941860
vt 0.949203 0.934109
vt 0.919323 0.934109
vt 0.957171 0.984496
vt 0.956296 0.976274
vt 0.954183 0.972868
vt 0.952070 0.976274
vt 0.951195 0.984496
vt 0.952070 0.992718
vt 0.954183 0.996124
vt 0.956296 0.992718
vt 0.965139 0.984496
vt 0.964264 0.976274
vt 0.962151 0.972868
vt 0.960039 0.976274
vt 0.959163 0.984496
vt 0.960039 0.992718
vt 0.962151 0.996124
vt 0.964264 0.992718
vt 0.967131 0.996124
vt 0.979084 0.996124
vt 0.979084 0.984496
vt 0.967131 0.984496
vt 0.967131 0.984496
vt 0.979084 0.984496
vt 0.979084 0.972868
vt 0.967131 0.972868
vt 0.967131 0.972868
vt 0.979084 0.972868
vt 0.979084 0.961240
vt 0.967131 0.961240
vt 0.967131 0.961240
vt 0.979084 0.961240
vt 0.979084 0.949612
vt 0.967131 0.949612
vt 0.967131 0.949612
vt 0.979084 0.949612
vt 0.979084 0.937984
vt 0.967131 0.937984
vt 0.967131 0.937984
vt 0.979084 0.937984
vt 0.979084 0.926357
vt 0.967131 0.926357
vt 0.967131 0.926357
vt 0.979084 0.926357
vt 0.979084 0.914729
vt 0.967131 0.914729
vt 0.967131 0.914729
vt 0.979084 0.914729
vt 0.979084 0.903101
vt 0.967131 0.903101
vt 0.989044 0.980620
vt 0.987877 0.969657
vt 0.985060 0.965116
vt 0.982243 0.969657
vt 0.981076 0.980620
vt 0.982243 0.991583
vt 0.985060 0.996124
vt 0.987877 0.991583
vt 0.999004 0.980620
vt 0.997837 0.969657
vt 0.995020 0.965116
vt 0.992203 0.969657
vt 0.991036 0.980620
vt 0.992203 0.991583
vt 0.995020 0.996124
vt 0.997837 0.991583
vt 0.003386 0.765116
vt 0.046414 0.765116
vt 0.046414 0.753488
vt 0.003386 0.753488
vt 0.053187 0.765116
vt 0.096215 0.765116
vt 0.096215 0.753488
vt 0.053187 0.753488
vt 0.100598 0.779070
vt 0.100598 0.755814
vt 0.144422 0.755814
vt 0.144422 0.779070
vt 0.146414 0.779070
vt 0.146414 0.755814
vt 0.150398 0.755814
vt 0.150398 0.779070
vt 0.152390 0.779070
vt 0.152390 0.755814
vt 0.196215 0.755814
vt 0.196215 0.779070
vt 0.198207 0.779070
vt 0.198207 0.755814
vt 0.202191 0.755814
vt 0.202191 0.779070
vt 0.208367 0.774419
vt 0.229880 0.774419
vt 0.232869 0.760465
vt 0.232869 0.683721
vt 0.228088 0.662791
vt 0.210159 0.662791
vt 0.205378 0.683721
vt 0.205378 0.760465
vt 0.240239 0.774419
vt 0.261753 0.774419
vt 0.264741 0.760465
vt 0.264741 0.683721
vt 0.259960 0.662791
vt 0.242032 0.662791
vt 0.237251 0.683721
vt 0.237251 0.760465
vt 0.267928 0.779070
vt 0.267928 0.732558
vt 0.289841 0.732558
vt 0.289841 0.779070
vt 0.291833 0.779070
vt 0.291833 0.732558
vt 0.297809 0.732558
vt 0.297809 0.779070
vt 0.299801 0.779070
vt 0.299801 0.732558
vt 0.319721 0.732558
vt 0.319721 0.779070
vt 0.321713 0.779070
vt 0.321713 0.732558
vt 0.329681 0.732558
vt 0.329681 0.779070
vt 0.331673 0.779070
vt 0.331673 0.732558
vt 0.349602 0.732558
vt 0.349602 0.779070
vt 0.351594 0.779070
vt 0.351594 0.732558
vt 0.359562 0.732558
vt 0.359562 0.779070
vt 0.361554 0.779070
vt 0.361554 0.732558
vt 0.381474 0.732558
vt 0.381474 0.779070
vt 0.383466 0.779070
vt 0.383466 0.732558
vt 0.389442 0.732558
vt 0.389442 0.779070
vt 0.443855 0.774419
vt 0.456998 0.746772
vt 0.412607 0.395398
vt 0.392629 0.437421
vt 0.513577 0.774419
vt 0.526720 0.746772
vt 0.482328 0.395398
vt 0.462351 0.437421
vt 0.530876 0.779070
vt 0.530876 0.724806
vt 0.546813 0.724806
vt 0.546813 0.779070
vt 0.548805 0.779070
vt 0.548805 0.724806
vt 0.650398 0.724806
vt 0.650398 0.779070
vt 0.652390 0.779070
vt 0.652390 0.724806
vt 0.676295 0.724806
vt 0.676295 0.779070
vt 0.678287 0.779070
vt 0.678287 0.724806
vt 0.779880 0.724806
vt 0.779880 0.779070
vt 0.786056 0.774419
vt 0.811155 0.774419
vt 0.814143 0.760465
vt 0.814143 0.716279
vt 0.809363 0.695349
vt 0.787849 0.695349
vt 0.783068 0.716279
vt 0.783068 0.760465
vt 0.821912 0.774419
vt 0.847012 0.774419
vt 0.850000 0.760465
vt 0.850000 0.716279
vt 0.845219 0.695349
vt 0.823705 0.695349
vt 0.818924 0.716279
vt 0.818924 0.760465
vt 0.853586 0.779070
vt 0.853586 0.732558
vt 0.879482 0.732558
vt 0.879482 0.779070
vt 0.881474 0.779070
vt 0.881474 0.732558
vt 0.887450 0.732558
vt 0.887450 0.779070
vt 0.889442 0.779070
vt 0.889442 0.732558
vt 0.901394 0.732558
vt 0.901394 0.779070
vt 0.903386 0.779070
vt 0.903386 0.732558
vt 0.911355 0.732558
vt 0.911355 0.779070
vt 0.913347 0.779070
vt 0.913347 0.732558
vt 0.935259 0.732558
vt 0.935259 0.779070
vt 0.937251 0.779070
vt 0.937251 0.732558
vt 0.945219 0.732558
vt 0.945219 0.779070
vt 0.947211 0.779070
vt 0.947211 0.732558
vt 0.959163 0.732558
vt 0.959163 0.779070
vt 0.961155 0.779070
vt 0.961155 0.732558
vt 0.967131 0.732558
vt 0.967131 0.779070
vt 0.062220 0.379070
vt 0.073741 0.349898
vt 0.020224 0.002118
vt 0.002191 0.047779
vt 0.137917 0.379070
vt 0.149438 0.349898
vt 0.095921 0.002118
vt 0.077888 0.047779
vt 0.152390 0.383721
vt 0.152390 0.329457
vt 0.166335 0.329457
vt 0.166335 0.383721
vt 0.168327 0.383721
vt 0.168327 0.329457
vt 0.273904 0.329457
vt 0.273904 0.383721
vt 0.275896 0.383721
vt 0.275896 0.329457
vt 0.297809 0.329457
vt 0.297809 0.383721
vt 0.299801 0.383721
vt 0.299801 0.329457
vt 0.405378 0.329457
vt 0.405378 0.383721
f 5/5 1/1 2/2
f 5/5 2/2 3/3
f 3/3 4/4 5/5
f 7/7 6/6 10/10
f 8/8 7/7 10/10
f 10/10 9/9 8/8
f 11/11 14/12 13/13 12/14
f 15/15 18/16 17/17 16/18
f 19/19 22/20 21/21 20/22
f 23/23 26/24 25/25 24/26
f 27/27 30/28 29/29 28/30
f 34/34 31/31 32/32
f 32/32 33/33 34/34
f 36/36 35/35 38/38
f 38/38 37/37 36/36
f 39/39 42/40 41/41 40/42
f 43/43 46/44 45/45 44/46
f 47/47 50/48 49/49 48/50
f 51/51 54/52 53/53 52/54
f 61/61 55/55 56/56
f 56/56 57/57 58/58
f 61/61 56/56 58/58
f 61/61 58/58 59/59
f 59/59 60/60 61/61
f 63/63 62/62 68/68
f 65/65 64/64 63/63
f 65/65 63/63 68/68
f 66/66 65/65 68/68
f 68/68 67/67 66/66
f 69/69 72/70 71/71 70/72
f 73/73 76/74 75/75 74/76
f 77/77 80/78 79/79 78/80
f 81/81 84/82 83/83 82/84
f 85/85 88/86 87/87 86/88
f 89/89 92/90 91/91 90/92
f 93/93 96/94 95/95 94/96
f 97/97 105/98 106/99 98/100
f 98/101 106/102 107/103 99/104
f 99/105 107/106 108/107 100/108
f 100/109 108/110 109/111 101/112
f 101/113 109/114 110/115 102/116
f 102/117 110/118 111/119 103/120
f 103/121 111/122 112/123 104/124
f 104/125 112/126 105/127 97/128
f 99/131 98/130 97/129
f 100/132 99/131 97/129
f 101/133 100/132 97/129
f 102/134 101/133 97/129
f 103/135 102/134 97/129
f 104/136 103/135 97/129
f 105/137 106/138 107/139
f 105/137 107/139 108/140
f 105/137 108/140 109/141
f 105/137 109/141 110/142
f 105/137 110/142 111/143
f 105/137 111/143 112/144
f 113/145 121/146 122/147 114/148
f 114/149 122/150 123/151 115/152
f 115/153 123/154 124/155 116/156
f 116/157 124/158 125/159 117/160
f 117/161 125/162 126/163 118/164
f 118/165 126/166 127/167 119/168
f 119/169 127/170 128/171 120/172
f 120/173 128/174 121/175 113/176
f 115/179 114/178 113/177
f 116/180 115/179 113/177
f 117/181 116/180 113/177
f 118/182 117/181 113/177
f 119/183 118/182 113/177
f 120/184 119/183 113/177
f 121/185 122/186 123/187
f 121/185 123/187 124/188
f 121/185 124/188 125/189
f 121/185 125/189 126/190
f 121/185 126/190 127/191
f 121/185 127/191 128/192
f 132/196 129/193 130/194
f 130/194 131/195 132/196
f 134/198 133/197 136/200
f 136/200 135/199 134/198
f 137/201 140/202 139/203 138/204
f 141/205 144/206 143/207 142/208
f 145/209 148/210 147/211 146/212
f 149/213 152/214 151/215 150/216
f 160/224 153/217 154/218
f 160/224 154/218 155/219
f 160/224 155/219 156/220
f 160/224 156/220 157/221
f 160/224 157/221 158/222
f 158/222 159/223 160/224
f 162/226 161/225 168/232
f 163/227 162/226 168/232
f 164/228 163/227 168/232
f 165/229 164/228 168/232
f 166/230 165/229 168/232
f 168/232 167/231 166/230
f 169/233 172/234 171/235 170/236
f 173/237 176/238 175/239 174/240
f 177/241 180/242 179/243 178/244
f 181/245 184/246 183/247 182/248
f 185/249 188/250 187/251 186/252
f 189/253 192/254 191/255 190/256
f 193/257 196/258 195/259 194/260
f 197/261 200/262 199/263 198/264
f 204/268 201/265 202/266
f 202/266 203/267 204/268
f 206/270 205/269 208/272
f 208/272 207/271 206/270
f 209/273 212/274 211/275 210/276
f 213/277 216/278 215/279 214/280
f 217/281 220/282 219/283 218/284
f 221/285 224/286 223/287 222/288
f 232/296 225/289 226/290
f 232/296 226/290 227/291
f 232/296 227/291 228/292
f 232/296 228/292 229/293
f 232/296 229/293 230/294
f 230/294 231/295 232/296
f 234/298 233/297 240/304
f 235/299 234/298 240/304
f 236/300 235/299 240/304
f 237/301 236/300 240/304
f 238/302 237/301 240/304
f 240/304 239/303 238/302
f 241/305 244/306 243/307 242/308
f 245/309 248/310 247/311 246/312
f 249/313 252/314 251/315 250/316
f 253/317 256/318 255/319 254/320
f 257/321 260/322 259/323 258/324
f 261/325 264/326 263/327 262/328
f 265/329 268/330 267/331 266/332
f 269/333 272/334 271/335 270/336
f 276/340 273/337 274/338
f 274/338 275/339 276/340
f 278/342 277/341 280/344
f 280/344 279/343 278/342
f 281/345 284/346 283/347 282/348
f 285/349 288/350 287/351 286/352
f 289/353 292/354 291/355 290/356
f 293/357 296/358 295/359 294/360
