mtllib sniper_fp_model.mtl
usemtl gun
v -17.2000 2.2000 0.8500
v -12.0000 3.0000 0.8500
v -6.0000 3.2000 0.8500
v -2.0000 3.0000 0.8500
v 4.0000 2.6000 0.8500
v 11.0000 1.6000 0.8500
v 11.0000 -0.8000 0.8500
v 3.4000 -1.4000 0.8500
v -1.0000 -1.6000 0.8500
v -4.0000 -4.4000 0.8500
v -6.5000 -4.6000 0.8500
v -9.0000 -1.0000 0.8500
v -14.0000 -2.4000 0.8500
v -17.6000 -4.8000 0.8500
v -17.2000 2.2000 -0.8500
v -12.0000 3.0000 -0.8500
v -6.0000 3.2000 -0.8500
v -2.0000 3.0000 -0.8500
v 4.0000 2.6000 -0.8500
v 11.0000 1.6000 -0.8500
v 11.0000 -0.8000 -0.8500
v 3.4000 -1.4000 -0.8500
v -1.0000 -1.6000 -0.8500
v -4.0000 -4.4000 -0.8500
v -6.5000 -4.6000 -0.8500
v -9.0000 -1.0000 -0.8500
v -14.0000 -2.4000 -0.8500
v -17.6000 -4.8000 -0.8500
v -17.2000 2.2000 0.8500
v -12.0000 3.0000 0.8500
v -12.0000 3.0000 -0.8500
v -17.2000 2.2000 -0.8500
v -12.0000 3.0000 0.8500
v -6.0000 3.2000 0.8500
v -6.0000 3.2000 -0.8500
v -12.0000 3.0000 -0.8500
v -6.0000 3.2000 0.8500
v -2.0000 3.0000 0.8500
v -2.0000 3.0000 -0.8500
v -6.0000 3.2000 -0.8500
v -2.0000 3.0000 0.8500
v 4.0000 2.6000 0.8500
v 4.0000 2.6000 -0.8500
v -2.0000 3.0000 -0.8500
v 4.0000 2.6000 0.8500
v 11.0000 1.6000 0.8500
v 11.0000 1.6000 -0.8500
v 4.0000 2.6000 -0.8500
v 11.0000 1.6000 0.8500
v 11.0000 -0.8000 0.8500
v 11.0000 -0.8000 -0.8500
v 11.0000 1.6000 -0.8500
v 11.0000 -0.8000 0.8500
v 3.4000 -1.4000 0.8500
v 3.4000 -1.4000 -0.8500
v 11.0000 -0.8000 -0.8500
v 3.4000 -1.4000 0.8500
v -1.0000 -1.6000 0.8500
v -1.0000 -1.6000 -0.8500
v 3.4000 -1.4000 -0.8500
v -1.0000 -1.6000 0.8500
v -4.0000 -4.4000 0.8500
v -4.0000 -4.4000 -0.8500
v -1.0000 -1.6000 -0.8500
v -4.0000 -4.4000 0.8500
v -6.5000 -4.6000 0.8500
v -6.5000 -4.6000 -0.8500
v -4.0000 -4.4000 -0.8500
v -6.5000 -4.6000 0.8500
v -9.0000 -1.0000 0.8500
v -9.0000 -1.0000 -0.8500
v -6.5000 -4.6000 -0.8500
v -9.0000 -1.0000 0.8500
v -14.0000 -2.4000 0.8500
v -14.0000 -2.4000 -0.8500
v -9.0000 -1.0000 -0.8500
v -14.0000 -2.4000 0.8500
v -17.6000 -4.8000 0.8500
v -17.6000 -4.8000 -0.8500
v -14.0000 -2.4000 -0.8500
v -17.6000 -4.8000 0.8500
v -17.2000 2.2000 0.8500
v -17.2000 2.2000 -0.8500
v -17.6000 -4.8000 -0.8500
v -3.6000 3.2000 0.8000
v 5.4000 3.2000 0.8000
v 5.4000 0.4000 0.8000
v -3.6000 0.4000 0.8000
v -3.6000 3.2000 -0.8000
v 5.4000 3.2000 -0.8000
v 5.4000 0.4000 -0.8000
v -3.6000 0.4000 -0.8000
v -3.6000 3.2000 0.8000
v 5.4000 3.2000 0.8000
v 5.4000 3.2000 -0.8000
v -3.6000 3.2000 -0.8000
v 5.4000 3.2000 0.8000
v 5.4000 0.4000 0.8000
v 5.4000 0.4000 -0.8000
v 5.4000 3.2000 -0.8000
v 5.4000 0.4000 0.8000
v -3.6000 0.4000 0.8000
v -3.6000 0.4000 -0.8000
v 5.4000 0.4000 -0.8000
v -3.6000 0.4000 0.8000
v -3.6000 3.2000 0.8000
v -3.6000 3.2000 -0.8000
v -3.6000 0.4000 -0.8000
v -0.9000 3.0000 1.6000
v -0.9170 2.8706 1.6000
v -0.9670 2.7500 1.6000
v -1.0464 2.6464 1.6000
v -1.1500 2.5670 1.6000
v -1.2706 2.5170 1.6000
v -1.4000 2.5000 1.6000
v -1.5294 2.5170 1.6000
v -1.6500 2.5670 1.6000
v -1.7536 2.6464 1.6000
v -1.8330 2.7500 1.6000
v -1.8830 2.8706 1.6000
v -1.9000 3.0000 1.6000
v -1.8830 3.1294 1.6000
v -1.8330 3.2500 1.6000
v -1.7536 3.3536 1.6000
v -1.6500 3.4330 1.6000
v -1.5294 3.4830 1.6000
v -1.4000 3.5000 1.6000
v -1.2706 3.4830 1.6000
v -1.1500 3.4330 1.6000
v -1.0464 3.3536 1.6000
v -0.9670 3.2500 1.6000
v -0.9170 3.1294 1.6000
v -0.9000 3.0000 -1.6000
v -0.9170 2.8706 -1.6000
v -0.9670 2.7500 -1.6000
v -1.0464 2.6464 -1.6000
v -1.1500 2.5670 -1.6000
v -1.2706 2.5170 -1.6000
v -1.4000 2.5000 -1.6000
v -1.5294 2.5170 -1.6000
v -1.6500 2.5670 -1.6000
v -1.7536 2.6464 -1.6000
v -1.8330 2.7500 -1.6000
v -1.8830 2.8706 -1.6000
v -1.9000 3.0000 -1.6000
v -1.8830 3.1294 -1.6000
v -1.8330 3.2500 -1.6000
v -1.7536 3.3536 -1.6000
v -1.6500 3.4330 -1.6000
v -1.5294 3.4830 -1.6000
v -1.4000 3.5000 -1.6000
v -1.2706 3.4830 -1.6000
v -1.1500 3.4330 -1.6000
v -1.0464 3.3536 -1.6000
v -0.9670 3.2500 -1.6000
v -0.9170 3.1294 -1.6000
v -0.9000 3.0000 1.6000
v -0.9170 2.8706 1.6000
v -0.9170 2.8706 -1.6000
v -0.9000 3.0000 -1.6000
v -0.9170 2.8706 1.6000
v -0.9670 2.7500 1.6000
v -0.9670 2.7500 -1.6000
v -0.9170 2.8706 -1.6000
v -0.9670 2.7500 1.6000
v -1.0464 2.6464 1.6000
v -1.0464 2.6464 -1.6000
v -0.9670 2.7500 -1.6000
v -1.0464 2.6464 1.6000
v -1.1500 2.5670 1.6000
v -1.1500 2.5670 -1.6000
v -1.0464 2.6464 -1.6000
v -1.1500 2.5670 1.6000
v -1.2706 2.5170 1.6000
v -1.2706 2.5170 -1.6000
v -1.1500 2.5670 -1.6000
v -1.2706 2.5170 1.6000
v -1.4000 2.5000 1.6000
v -1.4000 2.5000 -1.6000
v -1.2706 2.5170 -1.6000
v -1.4000 2.5000 1.6000
v -1.5294 2.5170 1.6000
v -1.5294 2.5170 -1.6000
v -1.4000 2.5000 -1.6000
v -1.5294 2.5170 1.6000
v -1.6500 2.5670 1.6000
v -1.6500 2.5670 -1.6000
v -1.5294 2.5170 -1.6000
v -1.6500 2.5670 1.6000
v -1.7536 2.6464 1.6000
v -1.7536 2.6464 -1.6000
v -1.6500 2.5670 -1.6000
v -1.7536 2.6464 1.6000
v -1.8330 2.7500 1.6000
v -1.8330 2.7500 -1.6000
v -1.7536 2.6464 -1.6000
v -1.8330 2.7500 1.6000
v -1.8830 2.8706 1.6000
v -1.8830 2.8706 -1.6000
v -1.8330 2.7500 -1.6000
v -1.8830 2.8706 1.6000
v -1.9000 3.0000 1.6000
v -1.9000 3.0000 -1.6000
v -1.8830 2.8706 -1.6000
v -1.9000 3.0000 1.6000
v -1.8830 3.1294 1.6000
v -1.8830 3.1294 -1.6000
v -1.9000 3.0000 -1.6000
v -1.8830 3.1294 1.6000
v -1.8330 3.2500 1.6000
v -1.8330 3.2500 -1.6000
v -1.8830 3.1294 -1.6000
v -1.8330 3.2500 1.6000
v -1.7536 3.3536 1.6000
v -1.7536 3.3536 -1.6000
v -1.8330 3.2500 -1.6000
v -1.7536 3.3536 1.6000
v -1.6500 3.4330 1.6000
v -1.6500 3.4330 -1.6000
v -1.7536 3.3536 -1.6000
v -1.6500 3.4330 1.6000
v -1.5294 3.4830 1.6000
v -1.5294 3.4830 -1.6000
v -1.6500 3.4330 -1.6000
v -1.5294 3.4830 1.6000
v -1.4000 3.5000 1.6000
v -1.4000 3.5000 -1.6000
v -1.5294 3.4830 -1.6000
v -1.4000 3.5000 1.6000
v -1.2706 3.4830 1.6000
v -1.2706 3.4830 -1.6000
v -1.4000 3.5000 -1.6000
v -1.2706 3.4830 1.6000
v -1.1500 3.4330 1.6000
v -1.1500 3.4330 -1.6000
v -1.2706 3.4830 -1.6000
v -1.1500 3.4330 1.6000
v -1.0464 3.3536 1.6000
v -1.0464 3.3536 -1.6000
v -1.1500 3.4330 -1.6000
v -1.0464 3.3536 1.6000
v -0.9670 3.2500 1.6000
v -0.9670 3.2500 -1.6000
v -1.0464 3.3536 -1.6000
v -0.9670 3.2500 1.6000
v -0.9170 3.1294 1.6000
v -0.9170 3.1294 -1.6000
v -0.9670 3.2500 -1.6000
v -0.9170 3.1294 1.6000
v -0.9000 3.0000 1.6000
v -0.9000 3.0000 -1.6000
v -0.9170 3.1294 -1.6000
v 5.2000 1.9000 0.4200
v 5.2000 1.6531 0.3398
v 5.2000 1.5006 0.1298
v 5.2000 1.5006 -0.1298
v 5.2000 1.6531 -0.3398
v 5.2000 1.9000 -0.4200
v 5.2000 2.1469 -0.3398
v 5.2000 2.2994 -0.1298
v 5.2000 2.2994 0.1298
v 5.2000 2.1469 0.3398
v 38.0000 1.9000 0.4200
v 38.0000 1.6531 0.3398
v 38.0000 1.5006 0.1298
v 38.0000 1.5006 -0.1298
v 38.0000 1.6531 -0.3398
v 38.0000 1.9000 -0.4200
v 38.0000 2.1469 -0.3398
v 38.0000 2.2994 -0.1298
v 38.0000 2.2994 0.1298
v 38.0000 2.1469 0.3398
v 36.4000 1.9000 0.6000
v 36.4000 1.4757 0.4243
v 36.4000 1.3000 0.0000
v 36.4000 1.4757 -0.4243
v 36.4000 1.9000 -0.6000
v 36.4000 2.3243 -0.4243
v 36.4000 2.5000 -0.0000
v 36.4000 2.3243 0.4243
v 38.6000 1.9000 0.6000
v 38.6000 1.4757 0.4243
v 38.6000 1.3000 0.0000
v 38.6000 1.4757 -0.4243
v 38.6000 1.9000 -0.6000
v 38.6000 2.3243 -0.4243
v 38.6000 2.5000 -0.0000
v 38.6000 2.3243 0.4243
v -0.5000 5.6000 0.8500
v -0.5000 5.1750 0.7361
v -0.5000 4.8639 0.4250
v -0.5000 4.7500 0.0000
v -0.5000 4.8639 -0.4250
v -0.5000 5.1750 -0.7361
v -0.5000 5.6000 -0.8500
v -0.5000 6.0250 -0.7361
v -0.5000 6.3361 -0.4250
v -0.5000 6.4500 -0.0000
v -0.5000 6.3361 0.4250
v -0.5000 6.0250 0.7361
v 14.0000 5.6000 0.8500
v 14.0000 5.1750 0.7361
v 14.0000 4.8639 0.4250
v 14.0000 4.7500 0.0000
v 14.0000 4.8639 -0.4250
v 14.0000 5.1750 -0.7361
v 14.0000 5.6000 -0.8500
v 14.0000 6.0250 -0.7361
v 14.0000 6.3361 -0.4250
v 14.0000 6.4500 -0.0000
v 14.0000 6.3361 0.4250
v 14.0000 6.0250 0.7361
v 12.8000 5.6000 1.2000
v 12.8000 5.0000 1.0392
v 12.8000 4.5608 0.6000
v 12.8000 4.4000 0.0000
v 12.8000 4.5608 -0.6000
v 12.8000 5.0000 -1.0392
v 12.8000 5.6000 -1.2000
v 12.8000 6.2000 -1.0392
v 12.8000 6.6392 -0.6000
v 12.8000 6.8000 -0.0000
v 12.8000 6.6392 0.6000
v 12.8000 6.2000 1.0392
v 15.4000 5.6000 1.2000
v 15.4000 5.0000 1.0392
v 15.4000 4.5608 0.6000
v 15.4000 4.4000 0.0000
v 15.4000 4.5608 -0.6000
v 15.4000 5.0000 -1.0392
v 15.4000 5.6000 -1.2000
v 15.4000 6.2000 -1.0392
v 15.4000 6.6392 -0.6000
v 15.4000 6.8000 -0.0000
v 15.4000 6.6392 0.6000
v 15.4000 6.2000 1.0392
v -2.8000 5.6000 1.1000
v -2.8000 5.0500 0.9526
v -2.8000 4.6474 0.5500
v -2.8000 4.5000 0.0000
v -2.8000 4.6474 -0.5500
v -2.8000 5.0500 -0.9526
v -2.8000 5.6000 -1.1000
v -2.8000 6.1500 -0.9526
v -2.8000 6.5526 -0.5500
v -2.8000 6.7000 -0.0000
v -2.8000 6.5526 0.5500
v -2.8000 6.1500 0.9526
v -0.4000 5.6000 1.1000
v -0.4000 5.0500 0.9526
v -0.4000 4.6474 0.5500
v -0.4000 4.5000 0.0000
v -0.4000 4.6474 -0.5500
v -0.4000 5.0500 -0.9526
v -0.4000 5.6000 -1.1000
v -0.4000 6.1500 -0.9526
v -0.4000 6.5526 -0.5500
v -0.4000 6.7000 -0.0000
v -0.4000 6.5526 0.5500
v -0.4000 6.1500 0.9526
v 14.3000 6.9000 0.0200
v 15.7667 6.9000 0.0200
v 15.7667 4.1000 0.0200
v 14.3000 4.1000 0.0200
v 14.3000 6.9000 -0.0200
v 15.7667 6.9000 -0.0200
v 15.7667 4.1000 -0.0200
v 14.3000 4.1000 -0.0200
v 14.3000 6.9000 0.0200
v 15.7667 6.9000 0.0200
v 15.7667 6.9000 -0.0200
v 14.3000 6.9000 -0.0200
v 15.7667 6.9000 0.0200
v 15.7667 4.1000 0.0200
v 15.7667 4.1000 -0.0200
v 15.7667 6.9000 -0.0200
v 15.7667 4.1000 0.0200
v 14.3000 4.1000 0.0200
v 14.3000 4.1000 -0.0200
v 15.7667 4.1000 -0.0200
v 14.3000 4.1000 0.0200
v 14.3000 6.9000 0.0200
v 14.3000 6.9000 -0.0200
v 14.3000 4.1000 -0.0200
v 1.0000 4.4000 0.4000
v 2.2000 4.4000 0.4000
v 2.2000 3.0000 0.4000
v 1.0000 3.0000 0.4000
v 1.0000 4.4000 -0.4000
v 2.2000 4.4000 -0.4000
v 2.2000 3.0000 -0.4000
v 1.0000 3.0000 -0.4000
v 1.0000 4.4000 0.4000
v 2.2000 4.4000 0.4000
v 2.2000 4.4000 -0.4000
v 1.0000 4.4000 -0.4000
v 2.2000 4.4000 0.4000
v 2.2000 3.0000 0.4000
v 2.2000 3.0000 -0.4000
v 2.2000 4.4000 -0.4000
v 2.2000 3.0000 0.4000
v 1.0000 3.0000 0.4000
v 1.0000 3.0000 -0.4000
v 2.2000 3.0000 -0.4000
v 1.0000 3.0000 0.4000
v 1.0000 4.4000 0.4000
v 1.0000 4.4000 -0.4000
v 1.0000 3.0000 -0.4000
v -1.9000 0.4000 0.9500
v 1.7000 0.4000 0.9500
v 2.2000 -0.2000 0.9500
v 2.2000 -3.5000 0.9500
v 1.4000 -4.4000 0.9500
v -1.6000 -4.4000 0.9500
v -2.4000 -3.5000 0.9500
v -2.4000 -0.2000 0.9500
v -1.9000 0.4000 -0.9500
v 1.7000 0.4000 -0.9500
v 2.2000 -0.2000 -0.9500
v 2.2000 -3.5000 -0.9500
v 1.4000 -4.4000 -0.9500
v -1.6000 -4.4000 -0.9500
v -2.4000 -3.5000 -0.9500
v -2.4000 -0.2000 -0.9500
v -1.9000 0.4000 0.9500
v 1.7000 0.4000 0.9500
v 1.7000 0.4000 -0.9500
v -1.9000 0.4000 -0.9500
v 1.7000 0.4000 0.9500
v 2.2000 -0.2000 0.9500
v 2.2000 -0.2000 -0.9500
v 1.7000 0.4000 -0.9500
v 2.2000 -0.2000 0.9500
v 2.2000 -3.5000 0.9500
v 2.2000 -3.5000 -0.9500
v 2.2000 -0.2000 -0.9500
v 2.2000 -3.5000 0.9500
v 1.4000 -4.4000 0.9500
v 1.4000 -4.4000 -0.9500
v 2.2000 -3.5000 -0.9500
v 1.4000 -4.4000 0.9500
v -1.6000 -4.4000 0.9500
v -1.6000 -4.4000 -0.9500
v 1.4000 -4.4000 -0.9500
v -1.6000 -4.4000 0.9500
v -2.4000 -3.5000 0.9500
v -2.4000 -3.5000 -0.9500
v -1.6000 -4.4000 -0.9500
v -2.4000 -3.5000 0.9500
v -2.4000 -0.2000 0.9500
v -2.4000 -0.2000 -0.9500
v -2.4000 -3.5000 -0.9500
v -2.4000 -0.2000 0.9500
v -1.9000 0.4000 0.9500
v -1.9000 0.4000 -0.9500
v -2.4000 -0.2000 -0.9500
v -2.0996 -4.0056 1.0500
v 0.0996 -5.1944 1.0500
v -7.3286 -20.3035 1.0500
v -10.6714 -18.4965 1.0500
v -2.0996 -4.0056 -1.0500
v 0.0996 -5.1944 -1.0500
v -7.3286 -20.3035 -1.0500
v -10.6714 -18.4965 -1.0500
v -2.0996 -4.0056 1.0500
v 0.0996 -5.1944 1.0500
v 0.0996 -5.1944 -1.0500
v -2.0996 -4.0056 -1.0500
v 0.0996 -5.1944 1.0500
v -7.3286 -20.3035 1.0500
v -7.3286 -20.3035 -1.0500
v 0.0996 -5.1944 -1.0500
v -7.3286 -20.3035 1.0500
v -10.6714 -18.4965 1.0500
v -10.6714 -18.4965 -1.0500
v -7.3286 -20.3035 -1.0500
v -10.6714 -18.4965 1.0500
v -2.0996 -4.0056 1.0500
v -2.0996 -4.0056 -1.0500
v -10.6714 -18.4965 -1.0500
v 7.5000 0.1000 0.9500
v 11.7000 0.1000 0.9500
v 12.2000 -0.5000 0.9500
v 12.2000 -2.4000 0.9500
v 11.4000 -3.3000 0.9500
v 7.8000 -3.3000 0.9500
v 7.0000 -2.4000 0.9500
v 7.0000 -0.5000 0.9500
v 7.5000 0.1000 -0.9500
v 11.7000 0.1000 -0.9500
v 12.2000 -0.5000 -0.9500
v 12.2000 -2.4000 -0.9500
v 11.4000 -3.3000 -0.9500
v 7.8000 -3.3000 -0.9500
v 7.0000 -2.4000 -0.9500
v 7.0000 -0.5000 -0.9500
v 7.5000 0.1000 0.9500
v 11.7000 0.1000 0.9500
v 11.7000 0.1000 -0.9500
v 7.5000 0.1000 -0.9500
v 11.7000 0.1000 0.9500
v 12.2000 -0.5000 0.9500
v 12.2000 -0.5000 -0.9500
v 11.7000 0.1000 -0.9500
v 12.2000 -0.5000 0.9500
v 12.2000 -2.4000 0.9500
v 12.2000 -2.4000 -0.9500
v 12.2000 -0.5000 -0.9500
v 12.2000 -2.4000 0.9500
v 11.4000 -3.3000 0.9500
v 11.4000 -3.3000 -0.9500
v 12.2000 -2.4000 -0.9500
v 11.4000 -3.3000 0.9500
v 7.8000 -3.3000 0.9500
v 7.8000 -3.3000 -0.9500
v 11.4000 -3.3000 -0.9500
v 7.8000 -3.3000 0.9500
v 7.0000 -2.4000 0.9500
v 7.0000 -2.4000 -0.9500
v 7.8000 -3.3000 -0.9500
v 7.0000 -2.4000 0.9500
v 7.0000 -0.5000 0.9500
v 7.0000 -0.5000 -0.9500
v 7.0000 -2.4000 -0.9500
v 7.0000 -0.5000 0.9500
v 7.5000 0.1000 0.9500
v 7.5000 0.1000 -0.9500
v 7.0000 -0.5000 -0.9500
v 7.5361 -2.3728 1.0500
v 9.4639 -3.6272 1.0500
v 0.5087 -18.5817 1.0500
v -2.5087 -16.6183 1.0500
v 7.5361 -2.3728 -1.0500
v 9.4639 -3.6272 -1.0500
v 0.5087 -18.5817 -1.0500
v -2.5087 -16.6183 -1.0500
v 7.5361 -2.3728 1.0500
v 9.4639 -3.6272 1.0500
v 9.4639 -3.6272 -1.0500
v 7.5361 -2.3728 -1.0500
v 9.4639 -3.6272 1.0500
v 0.5087 -18.5817 1.0500
v 0.5087 -18.5817 -1.0500
v 9.4639 -3.6272 -1.0500
v 0.5087 -18.5817 1.0500
v -2.5087 -16.6183 1.0500
v -2.5087 -16.6183 -1.0500
v 0.5087 -18.5817 -1.0500
v -2.5087 -16.6183 1.0500
v 7.5361 -2.3728 1.0500
v 7.5361 -2.3728 -1.0500
v -2.5087 -16.6183 -1.0500
vt 0.004510 0.937168
vt 0.035098 0.958407
vt 0.070392 0.963717
vt 0.093922 0.958407
vt 0.129216 0.947788
vt 0.170392 0.921239
vt 0.170392 0.857522
vt 0.125686 0.841593
vt 0.099804 0.836283
vt 0.082157 0.761947
vt 0.067451 0.756637
vt 0.052745 0.852212
vt 0.023333 0.815044
vt 0.002157 0.751327
vt 0.177059 0.937168
vt 0.207647 0.958407
vt 0.242941 0.963717
vt 0.266471 0.958407
vt 0.301765 0.947788
vt 0.342941 0.921239
vt 0.342941 0.857522
vt 0.298235 0.841593
vt 0.272353 0.836283
vt 0.254706 0.761947
vt 0.240000 0.756637
vt 0.225294 0.852212
vt 0.195882 0.815044
vt 0.174706 0.751327
vt 0.346078 0.995575
vt 0.346078 0.942478
vt 0.377451 0.942478
vt 0.377451 0.995575
vt 0.379412 0.995575
vt 0.379412 0.942478
vt 0.416667 0.942478
vt 0.416667 0.995575
vt 0.418627 0.995575
vt 0.418627 0.942478
vt 0.444118 0.942478
vt 0.444118 0.995575
vt 0.446078 0.995575
vt 0.446078 0.942478
vt 0.483333 0.942478
vt 0.483333 0.995575
vt 0.485294 0.995575
vt 0.485294 0.942478
vt 0.528431 0.942478
vt 0.528431 0.995575
vt 0.530392 0.995575
vt 0.530392 0.942478
vt 0.546078 0.942478
vt 0.546078 0.995575
vt 0.548039 0.995575
vt 0.548039 0.942478
vt 0.593137 0.942478
vt 0.593137 0.995575
vt 0.595098 0.995575
vt 0.595098 0.942478
vt 0.622549 0.942478
vt 0.622549 0.995575
vt 0.624510 0.995575
vt 0.624510 0.942478
vt 0.650000 0.942478
vt 0.650000 0.995575
vt 0.651961 0.995575
vt 0.651961 0.942478
vt 0.667647 0.942478
vt 0.667647 0.995575
vt 0.669608 0.995575
vt 0.669608 0.942478
vt 0.697059 0.942478
vt 0.697059 0.995575
vt 0.699020 0.995575
vt 0.699020 0.942478
vt 0.730392 0.942478
vt 0.730392 0.995575
vt 0.732353 0.995575
vt 0.732353 0.942478
vt 0.757843 0.942478
vt 0.757843 0.995575
vt 0.759804 0.995575
vt 0.759804 0.942478
vt 0.802941 0.942478
vt 0.802941 0.995575
vt 0.807255 0.963717
vt 0.860196 0.963717
vt 0.860196 0.889381
vt 0.807255 0.889381
vt 0.868039 0.963717
vt 0.920980 0.963717
vt 0.920980 0.889381
vt 0.868039 0.889381
vt 0.926471 0.995575
vt 0.926471 0.951327
vt 0.979412 0.951327
vt 0.979412 0.995575
vt 0.981373 0.995575
vt 0.981373 0.951327
vt 0.999020 0.951327
vt 0.999020 0.995575
vt 0.000980 0.730088
vt 0.000980 0.685841
vt 0.053922 0.685841
vt 0.053922 0.730088
vt 0.055882 0.730088
vt 0.055882 0.685841
vt 0.073529 0.685841
vt 0.073529 0.730088
vt 0.090196 0.714159
vt 0.090096 0.710724
vt 0.089802 0.707522
vt 0.089335 0.704773
vt 0.088725 0.702663
vt 0.088016 0.701337
vt 0.087255 0.700885
vt 0.086494 0.701337
vt 0.085784 0.702663
vt 0.085175 0.704773
vt 0.084708 0.707522
vt 0.084414 0.710724
vt 0.084314 0.714159
vt 0.084414 0.717595
vt 0.084708 0.720796
vt 0.085175 0.723546
vt 0.085784 0.725655
vt 0.086494 0.726981
vt 0.087255 0.727434
vt 0.088016 0.726981
vt 0.088725 0.725655
vt 0.089335 0.723546
vt 0.089802 0.720796
vt 0.090096 0.717595
vt 0.113725 0.714159
vt 0.113625 0.710724
vt 0.113331 0.707522
vt 0.112864 0.704773
vt 0.112255 0.702663
vt 0.111546 0.701337
vt 0.110784 0.700885
vt 0.110023 0.701337
vt 0.109314 0.702663
vt 0.108705 0.704773
vt 0.108237 0.707522
vt 0.107943 0.710724
vt 0.107843 0.714159
vt 0.107943 0.717595
vt 0.108237 0.720796
vt 0.108705 0.723546
vt 0.109314 0.725655
vt 0.110023 0.726981
vt 0.110784 0.727434
vt 0.111546 0.726981
vt 0.112255 0.725655
vt 0.112864 0.723546
vt 0.113331 0.720796
vt 0.113625 0.717595
vt 0.122549 0.730088
vt 0.122549 0.641593
vt 0.124510 0.641593
vt 0.124510 0.730088
vt 0.126471 0.730088
vt 0.126471 0.641593
vt 0.128431 0.641593
vt 0.128431 0.730088
vt 0.130392 0.730088
vt 0.130392 0.641593
vt 0.132353 0.641593
vt 0.132353 0.730088
vt 0.134314 0.730088
vt 0.134314 0.641593
vt 0.136275 0.641593
vt 0.136275 0.730088
vt 0.138235 0.730088
vt 0.138235 0.641593
vt 0.140196 0.641593
vt 0.140196 0.730088
vt 0.142157 0.730088
vt 0.142157 0.641593
vt 0.144118 0.641593
vt 0.144118 0.730088
vt 0.146078 0.730088
vt 0.146078 0.641593
vt 0.148039 0.641593
vt 0.148039 0.730088
vt 0.150000 0.730088
vt 0.150000 0.641593
vt 0.151961 0.641593
vt 0.151961 0.730088
vt 0.153922 0.730088
vt 0.153922 0.641593
vt 0.155882 0.641593
vt 0.155882 0.730088
vt 0.157843 0.730088
vt 0.157843 0.641593
vt 0.159804 0.641593
vt 0.159804 0.730088
vt 0.161765 0.730088
vt 0.161765 0.641593
vt 0.163725 0.641593
vt 0.163725 0.730088
vt 0.165686 0.730088
vt 0.165686 0.641593
vt 0.167647 0.641593
vt 0.167647 0.730088
vt 0.169608 0.730088
vt 0.169608 0.641593
vt 0.171569 0.641593
vt 0.171569 0.730088
vt 0.173529 0.730088
vt 0.173529 0.641593
vt 0.175490 0.641593
vt 0.175490 0.730088
vt 0.177451 0.730088
vt 0.177451 0.641593
vt 0.179412 0.641593
vt 0.179412 0.730088
vt 0.181373 0.730088
vt 0.181373 0.641593
vt 0.183333 0.641593
vt 0.183333 0.730088
vt 0.185294 0.730088
vt 0.185294 0.641593
vt 0.187255 0.641593
vt 0.187255 0.730088
vt 0.189216 0.730088
vt 0.189216 0.641593
vt 0.191176 0.641593
vt 0.191176 0.730088
vt 0.193137 0.730088
vt 0.193137 0.641593
vt 0.195098 0.641593
vt 0.195098 0.730088
vt 0.197059 0.730088
vt 0.197059 0.641593
vt 0.199020 0.641593
vt 0.199020 0.730088
vt 0.200980 0.730088
vt 0.200980 0.641593
vt 0.202941 0.641593
vt 0.202941 0.730088
vt 0.204902 0.730088
vt 0.204902 0.641593
vt 0.206863 0.641593
vt 0.206863 0.730088
vt 0.208824 0.730088
vt 0.208824 0.641593
vt 0.210784 0.641593
vt 0.210784 0.730088
vt 0.212745 0.730088
vt 0.212745 0.641593
vt 0.214706 0.641593
vt 0.214706 0.730088
vt 0.216667 0.730088
vt 0.410784 0.730088
vt 0.410784 0.723009
vt 0.216667 0.723009
vt 0.216667 0.723009
vt 0.410784 0.723009
vt 0.410784 0.715929
vt 0.216667 0.715929
vt 0.216667 0.715929
vt 0.410784 0.715929
vt 0.410784 0.708850
vt 0.216667 0.708850
vt 0.216667 0.708850
vt 0.410784 0.708850
vt 0.410784 0.701770
vt 0.216667 0.701770
vt 0.216667 0.701770
vt 0.410784 0.701770
vt 0.410784 0.694690
vt 0.216667 0.694690
vt 0.216667 0.694690
vt 0.410784 0.694690
vt 0.410784 0.687611
vt 0.216667 0.687611
vt 0.216667 0.687611
vt 0.410784 0.687611
vt 0.410784 0.680531
vt 0.216667 0.680531
vt 0.216667 0.680531
vt 0.410784 0.680531
vt 0.410784 0.673451
vt 0.216667 0.673451
vt 0.216667 0.673451
vt 0.410784 0.673451
vt 0.410784 0.666372
vt 0.216667 0.666372
vt 0.216667 0.666372
vt 0.410784 0.666372
vt 0.410784 0.659292
vt 0.216667 0.659292
vt 0.418627 0.716814
vt 0.418066 0.709012
vt 0.416595 0.704190
vt 0.414777 0.704190
vt 0.413307 0.709012
vt 0.412745 0.716814
vt 0.413307 0.724617
vt 0.414777 0.729439
vt 0.416595 0.729439
vt 0.418066 0.724617
vt 0.426471 0.716814
vt 0.425909 0.709012
vt 0.424438 0.704190
vt 0.422621 0.704190
vt 0.421150 0.709012
vt 0.420588 0.716814
vt 0.421150 0.724617
vt 0.422621 0.729439
vt 0.424438 0.729439
vt 0.425909 0.724617
vt 0.428431 0.730088
vt 0.442157 0.730088
vt 0.442157 0.716814
vt 0.428431 0.716814
vt 0.428431 0.716814
vt 0.442157 0.716814
vt 0.442157 0.703540
vt 0.428431 0.703540
vt 0.428431 0.703540
vt 0.442157 0.703540
vt 0.442157 0.690265
vt 0.428431 0.690265
vt 0.428431 0.690265
vt 0.442157 0.690265
vt 0.442157 0.676991
vt 0.428431 0.676991
vt 0.428431 0.676991
vt 0.442157 0.676991
vt 0.442157 0.663717
vt 0.428431 0.663717
vt 0.428431 0.663717
vt 0.442157 0.663717
vt 0.442157 0.650442
vt 0.428431 0.650442
vt 0.428431 0.650442
vt 0.442157 0.650442
vt 0.442157 0.637168
vt 0.428431 0.637168
vt 0.428431 0.637168
vt 0.442157 0.637168
vt 0.442157 0.623894
vt 0.428431 0.623894
vt 0.451961 0.712389
vt 0.450812 0.699874
vt 0.448039 0.694690
vt 0.445266 0.699874
vt 0.444118 0.712389
vt 0.445266 0.724905
vt 0.448039 0.730088
vt 0.450812 0.724905
vt 0.461765 0.712389
vt 0.460616 0.699874
vt 0.457843 0.694690
vt 0.455070 0.699874
vt 0.453922 0.712389
vt 0.455070 0.724905
vt 0.457843 0.730088
vt 0.460616 0.724905
vt 0.463725 0.730088
vt 0.550000 0.730088
vt 0.550000 0.717552
vt 0.463725 0.717552
vt 0.463725 0.717552
vt 0.550000 0.717552
vt 0.550000 0.705015
vt 0.463725 0.705015
vt 0.463725 0.705015
vt 0.550000 0.705015
vt 0.550000 0.692478
vt 0.463725 0.692478
vt 0.463725 0.692478
vt 0.550000 0.692478
vt 0.550000 0.679941
vt 0.463725 0.679941
vt 0.463725 0.679941
vt 0.550000 0.679941
vt 0.550000 0.667404
vt 0.463725 0.667404
vt 0.463725 0.667404
vt 0.550000 0.667404
vt 0.550000 0.654867
vt 0.463725 0.654867
vt 0.463725 0.654867
vt 0.550000 0.654867
vt 0.550000 0.642330
vt 0.463725 0.642330
vt 0.463725 0.642330
vt 0.550000 0.642330
vt 0.550000 0.629794
vt 0.463725 0.629794
vt 0.463725 0.629794
vt 0.550000 0.629794
vt 0.550000 0.617257
vt 0.463725 0.617257
vt 0.463725 0.617257
vt 0.550000 0.617257
vt 0.550000 0.604720
vt 0.463725 0.604720
vt 0.463725 0.604720
vt 0.550000 0.604720
vt 0.550000 0.592183
vt 0.463725 0.592183
vt 0.463725 0.592183
vt 0.550000 0.592183
vt 0.550000 0.579646
vt 0.463725 0.579646
vt 0.563725 0.703540
vt 0.562937 0.690265
vt 0.560784 0.680548
vt 0.557843 0.676991
vt 0.554902 0.680548
vt 0.552749 0.690265
vt 0.551961 0.703540
vt 0.552749 0.716814
vt 0.554902 0.726532
vt 0.557843 0.730088
vt 0.560784 0.726532
vt 0.562937 0.716814
vt 0.577451 0.703540
vt 0.576663 0.690265
vt 0.574510 0.680548
vt 0.571569 0.676991
vt 0.568627 0.680548
vt 0.566474 0.690265
vt 0.565686 0.703540
vt 0.566474 0.716814
vt 0.568627 0.726532
vt 0.571569 0.730088
vt 0.574510 0.726532
vt 0.576663 0.716814
vt 0.579412 0.730088
vt 0.595098 0.730088
vt 0.595098 0.713127
vt 0.579412 0.713127
vt 0.579412 0.713127
vt 0.595098 0.713127
vt 0.595098 0.696165
vt 0.579412 0.696165
vt 0.579412 0.696165
vt 0.595098 0.696165
vt 0.595098 0.679204
vt 0.579412 0.679204
vt 0.579412 0.679204
vt 0.595098 0.679204
vt 0.595098 0.662242
vt 0.579412 0.662242
vt 0.579412 0.662242
vt 0.595098 0.662242
vt 0.595098 0.645280
vt 0.579412 0.645280
vt 0.579412 0.645280
vt 0.595098 0.645280
vt 0.595098 0.628319
vt 0.579412 0.628319
vt 0.579412 0.628319
vt 0.595098 0.628319
vt 0.595098 0.611357
vt 0.579412 0.611357
vt 0.579412 0.611357
vt 0.595098 0.611357
vt 0.595098 0.594395
vt 0.579412 0.594395
vt 0.579412 0.594395
vt 0.595098 0.594395
vt 0.595098 0.577434
vt 0.579412 0.577434
vt 0.579412 0.577434
vt 0.595098 0.577434
vt 0.595098 0.560472
vt 0.579412 0.560472
vt 0.579412 0.560472
vt 0.595098 0.560472
vt 0.595098 0.543510
vt 0.579412 0.543510
vt 0.579412 0.543510
vt 0.595098 0.543510
vt 0.595098 0.526549
vt 0.579412 0.526549
vt 0.612745 0.694690
vt 0.611694 0.676991
vt 0.608824 0.664034
vt 0.604902 0.659292
vt 0.600980 0.664034
vt 0.598110 0.676991
vt 0.597059 0.694690
vt 0.598110 0.712389
vt 0.600980 0.725346
vt 0.604902 0.730088
vt 0.608824 0.725346
vt 0.611694 0.712389
vt 0.630392 0.694690
vt 0.629341 0.676991
vt 0.626471 0.664034
vt 0.622549 0.659292
vt 0.618627 0.664034
vt 0.615757 0.676991
vt 0.614706 0.694690
vt 0.615757 0.712389
vt 0.618627 0.725346
vt 0.622549 0.730088
vt 0.626471 0.725346
vt 0.629341 0.712389
vt 0.632353 0.730088
vt 0.648039 0.730088
vt 0.648039 0.714602
vt 0.632353 0.714602
vt 0.632353 0.714602
vt 0.648039 0.714602
vt 0.648039 0.699115
vt 0.632353 0.699115
vt 0.632353 0.699115
vt 0.648039 0.699115
vt 0.648039 0.683628
vt 0.632353 0.683628
vt 0.632353 0.683628
vt 0.648039 0.683628
vt 0.648039 0.668142
vt 0.632353 0.668142
vt 0.632353 0.668142
vt 0.648039 0.668142
vt 0.648039 0.652655
vt 0.632353 0.652655
vt 0.632353 0.652655
vt 0.648039 0.652655
vt 0.648039 0.637168
vt 0.632353 0.637168
vt 0.632353 0.637168
vt 0.648039 0.637168
vt 0.648039 0.621681
vt 0.632353 0.621681
vt 0.632353 0.621681
vt 0.648039 0.621681
vt 0.648039 0.606195
vt 0.632353 0.606195
vt 0.632353 0.606195
vt 0.648039 0.606195
vt 0.648039 0.590708
vt 0.632353 0.590708
vt 0.632353 0.590708
vt 0.648039 0.590708
vt 0.648039 0.575221
vt 0.632353 0.575221
vt 0.632353 0.575221
vt 0.648039 0.575221
vt 0.648039 0.559735
vt 0.632353 0.559735
vt 0.632353 0.559735
vt 0.648039 0.559735
vt 0.648039 0.544248
vt 0.632353 0.544248
vt 0.663725 0.699115
vt 0.662806 0.683628
vt 0.660294 0.672291
vt 0.656863 0.668142
vt 0.653431 0.672291
vt 0.650919 0.683628
vt 0.650000 0.699115
vt 0.650919 0.714602
vt 0.653431 0.725939
vt 0.656863 0.730088
vt 0.660294 0.725939
vt 0.662806 0.714602
vt 0.679412 0.699115
vt 0.678492 0.683628
vt 0.675980 0.672291
vt 0.672549 0.668142
vt 0.669118 0.672291
vt 0.666606 0.683628
vt 0.665686 0.699115
vt 0.666606 0.714602
vt 0.669118 0.725939
vt 0.672549 0.730088
vt 0.675980 0.725939
vt 0.678492 0.714602
vt 0.681961 0.727434
vt 0.690588 0.727434
vt 0.690588 0.653097
vt 0.681961 0.653097
vt 0.693725 0.727434
vt 0.702353 0.727434
vt 0.702353 0.653097
vt 0.693725 0.653097
vt 0.704902 0.730088
vt 0.704902 0.721239
vt 0.714706 0.721239
vt 0.714706 0.730088
vt 0.716667 0.730088
vt 0.716667 0.721239
vt 0.734314 0.721239
vt 0.734314 0.730088
vt 0.736275 0.730088
vt 0.736275 0.721239
vt 0.746078 0.721239
vt 0.746078 0.730088
vt 0.748039 0.730088
vt 0.748039 0.721239
vt 0.765686 0.721239
vt 0.765686 0.730088
vt 0.773529 0.708850
vt 0.780588 0.708850
vt 0.780588 0.671681
vt 0.773529 0.671681
vt 0.846078 0.708850
vt 0.853137 0.708850
vt 0.853137 0.671681
vt 0.846078 0.671681
vt 0.912745 0.730088
vt 0.912745 0.703540
vt 0.920588 0.703540
vt 0.920588 0.730088
vt 0.922549 0.730088
vt 0.922549 0.703540
vt 0.932353 0.703540
vt 0.932353 0.730088
vt 0.934314 0.730088
vt 0.934314 0.703540
vt 0.942157 0.703540
vt 0.942157 0.730088
vt 0.944118 0.730088
vt 0.944118 0.703540
vt 0.953922 0.703540
vt 0.953922 0.730088
vt 0.960000 0.724779
vt 0.981176 0.724779
vt 0.984118 0.708850
vt 0.984118 0.621239
vt 0.979412 0.597345
vt 0.961765 0.597345
vt 0.957059 0.621239
vt 0.957059 0.708850
vt 0.005098 0.512389
vt 0.026275 0.512389
vt 0.029216 0.496460
vt 0.029216 0.408850
vt 0.024510 0.384956
vt 0.006863 0.384956
vt 0.002157 0.408850
vt 0.002157 0.496460
vt 0.032353 0.517699
vt 0.032353 0.464602
vt 0.053922 0.464602
vt 0.053922 0.517699
vt 0.055882 0.517699
vt 0.055882 0.464602
vt 0.061765 0.464602
vt 0.061765 0.517699
vt 0.063725 0.517699
vt 0.063725 0.464602
vt 0.083333 0.464602
vt 0.083333 0.517699
vt 0.085294 0.517699
vt 0.085294 0.464602
vt 0.093137 0.464602
vt 0.093137 0.517699
vt 0.095098 0.517699
vt 0.095098 0.464602
vt 0.112745 0.464602
vt 0.112745 0.517699
vt 0.114706 0.517699
vt 0.114706 0.464602
vt 0.122549 0.464602
vt 0.122549 0.517699
vt 0.124510 0.517699
vt 0.124510 0.464602
vt 0.144118 0.464602
vt 0.144118 0.517699
vt 0.146078 0.517699
vt 0.146078 0.464602
vt 0.151961 0.464602
vt 0.151961 0.517699
vt 0.205520 0.512389
vt 0.218457 0.480829
vt 0.174762 0.079702
vt 0.155098 0.127675
vt 0.274148 0.512389
vt 0.287085 0.480829
vt 0.243390 0.079702
vt 0.223725 0.127675
vt 0.291176 0.517699
vt 0.291176 0.455752
vt 0.306863 0.455752
vt 0.306863 0.517699
vt 0.308824 0.517699
vt 0.308824 0.455752
vt 0.408824 0.455752
vt 0.408824 0.517699
vt 0.410784 0.517699
vt 0.410784 0.455752
vt 0.434314 0.455752
vt 0.434314 0.517699
vt 0.436275 0.517699
vt 0.436275 0.455752
vt 0.536275 0.455752
vt 0.536275 0.517699
vt 0.542353 0.512389
vt 0.567059 0.512389
vt 0.570000 0.496460
vt 0.570000 0.446018
vt 0.565294 0.422124
vt 0.544118 0.422124
vt 0.539412 0.446018
vt 0.539412 0.496460
vt 0.577647 0.512389
vt 0.602353 0.512389
vt 0.605294 0.496460
vt 0.605294 0.446018
vt 0.600588 0.422124
vt 0.579412 0.422124
vt 0.574706 0.446018
vt 0.574706 0.496460
vt 0.608824 0.517699
vt 0.608824 0.464602
vt 0.634314 0.464602
vt 0.634314 0.517699
vt 0.636275 0.517699
vt 0.636275 0.464602
vt 0.642157 0.464602
vt 0.642157 0.517699
vt 0.644118 0.517699
vt 0.644118 0.464602
vt 0.655882 0.464602
vt 0.655882 0.517699
vt 0.657843 0.517699
vt 0.657843 0.464602
vt 0.665686 0.464602
vt 0.665686 0.517699
vt 0.667647 0.517699
vt 0.667647 0.464602
vt 0.689216 0.464602
vt 0.689216 0.517699
vt 0.691176 0.517699
vt 0.691176 0.464602
vt 0.699020 0.464602
vt 0.699020 0.517699
vt 0.700980 0.517699
vt 0.700980 0.464602
vt 0.712745 0.464602
vt 0.712745 0.517699
vt 0.714706 0.517699
vt 0.714706 0.464602
vt 0.720588 0.464602
vt 0.720588 0.517699
vt 0.782813 0.512389
vt 0.794153 0.479087
vt 0.741475 0.082064
vt 0.723725 0.134190
vt 0.857322 0.512389
vt 0.868663 0.479087
vt 0.815985 0.082064
vt 0.798235 0.134190
vt 0.871569 0.517699
vt 0.871569 0.455752
vt 0.885294 0.455752
vt 0.885294 0.517699
vt 0.887255 0.517699
vt 0.887255 0.455752
vt 0.991176 0.455752
vt 0.991176 0.517699
vt 0.000980 0.066372
vt 0.000980 0.004425
vt 0.022549 0.004425
vt 0.022549 0.066372
vt 0.024510 0.066372
vt 0.024510 0.004425
vt 0.128431 0.004425
vt 0.128431 0.066372
f 14/14 1/1 2/2
f 14/14 2/2 3/3
f 3/3 4/4 5/5
f 3/3 5/5 6/6
f 3/3 6/6 7/7
f 3/3 7/7 8/8
f 3/3 8/8 9/9
f 3/3 9/9 10/10
f 3/3 10/10 11/11
f 3/3 11/11 12/12
f 3/3 12/12 13/13
f 3/3 13/13 14/14
f 16/16 15/15 28/28
f 17/17 16/16 28/28
f 19/19 18/18 17/17
f 20/20 19/19 17/17
f 21/21 20/20 17/17
f 22/22 21/21 17/17
f 23/23 22/22 17/17
f 24/24 23/23 17/17
f 25/25 24/24 17/17
f 26/26 25/25 17/17
f 27/27 26/26 17/17
f 28/28 27/27 17/17
f 29/29 32/30 31/31 30/32
f 33/33 36/34 35/35 34/36
f 37/37 40/38 39/39 38/40
f 41/41 44/42 43/43 42/44
f 45/45 48/46 47/47 46/48
f 49/49 52/50 51/51 50/52
f 53/53 56/54 55/55 54/56
f 57/57 60/58 59/59 58/60
f 61/61 64/62 63/63 62/64
f 65/65 68/66 67/67 66/68
f 69/69 72/70 71/71 70/72
f 73/73 76/74 75/75 74/76
f 77/77 80/78 79/79 78/80
f 81/81 84/82 83/83 82/84
f 88/88 85/85 86/86
f 86/86 87/87 88/88
f 90/90 89/89 92/92
f 92/92 91/91 90/90
f 93/93 96/94 95/95 94/96
f 97/97 100/98 99/99 98/100
f 101/101 104/102 103/103 102/104
f 105/105 108/106 107/107 106/108
f 132/132 109/109 110/110
f 132/132 110/110 111/111
f 132/132 111/111 112/112
f 132/132 112/112 113/113
f 132/132 113/113 114/114
f 132/132 114/114 115/115
f 132/132 115/115 116/116
f 132/132 116/116 117/117
f 132/132 117/117 118/118
f 132/132 118/118 119/119
f 132/132 119/119 120/120
f 132/132 120/120 121/121
f 132/132 121/121 122/122
f 132/132 122/122 123/123
f 132/132 123/123 124/124
f 132/132 124/124 125/125
f 132/132 125/125 126/126
f 132/132 126/126 127/127
f 132/132 127/127 128/128
f 132/132 128/128 129/129
f 132/132 129/129 130/130
f 130/130 131/131 132/132
f 134/134 133/133 156/156
f 135/135 134/134 156/156
f 136/136 135/135 156/156
f 137/137 136/136 156/156
f 138/138 137/137 156/156
f 139/139 138/138 156/156
f 140/140 139/139 156/156
f 141/141 140/140 156/156
f 142/142 141/141 156/156
f 143/143 142/142 156/156
f 144/144 143/143 156/156
f 145/145 144/144 156/156
f 146/146 145/145 156/156
f 147/147 146/146 156/156
f 148/148 147/147 156/156
f 149/149 148/148 156/156
f 150/150 149/149 156/156
f 151/151 150/150 156/156
f 152/152 151/151 156/156
f 153/153 152/152 156/156
f 154/154 153/153 156/156
f 156/156 155/155 154/154
f 157/157 160/158 159/159 158/160
f 161/161 164/162 163/163 162/164
f 165/165 168/166 167/167 166/168
f 169/169 172/170 171/171 170/172
f 173/173 176/174 175/175 174/176
f 177/177 180/178 179/179 178/180
f 181/181 184/182 183/183 182/184
f 185/185 188/186 187/187 186/188
f 189/189 192/190 191/191 190/192
f 193/193 196/194 195/195 194/196
f 197/197 200/198 199/199 198/200
f 201/201 204/202 203/203 202/204
f 205/205 208/206 207/207 206/208
f 209/209 212/210 211/211 210/212
f 213/213 216/214 215/215 214/216
f 217/217 220/218 219/219 218/220
f 221/221 224/222 223/223 222/224
f 225/225 228/226 227/227 226/228
f 229/229 232/230 231/231 230/232
f 233/233 236/234 235/235 234/236
f 237/237 240/238 239/239 238/240
f 241/241 244/242 243/243 242/244
f 245/245 248/246 247/247 246/248
f 249/249 252/250 251/251 250/252
f 253/253 263/254 264/255 254/256
f 254/257 264/258 265/259 255/260
f 255/261 265/262 266/263 256/264
f 256/265 266/266 267/267 257/268
f 257/269 267/270 268/271 258/272
f 258/273 268/274 269/275 259/276
f 259/277 269/278 270/279 260/280
f 260/281 270/282 271/283 261/284
f 261/285 271/286 272/287 262/288
f 262/289 272/290 263/291 253/292
f 255/295 254/294 253/293
f 256/296 255/295 253/293
f 257/297 256/296 253/293
f 258/298 257/297 253/293
f 259/299 258/298 253/293
f 260/300 259/299 253/293
f 261/301 260/300 253/293
f 262/302 261/301 253/293
f 263/303 264/304 265/305
f 263/303 265/305 266/306
f 263/303 266/306 267/307
f 263/303 267/307 268/308
f 263/303 268/308 269/309
f 263/303 269/309 270/310
f 263/303 270/310 271/311
f 263/303 271/311 272/312
f 273/313 281/314 282/315 274/316
f 274/317 282/318 283/319 275/320
f 275/321 283/322 284/323 276/324
f 276/325 284/326 285/327 277/328
f 277/329 285/330 286/331 278/332
f 278/333 286/334 287/335 279/336
f 279/337 287/338 288/339 280/340
f 280/341 288/342 281/343 273/344
f 275/347 274/346 273/345
f 276/348 275/347 273/345
f 277/349 276/348 273/345
f 278/350 277/349 273/345
f 279/351 278/350 273/345
f 280/352 279/351 273/345
f 281/353 282/354 283/355
f 281/353 283/355 284/356
f 281/353 284/356 285/357
f 281/353 285/357 286/358
f 281/353 286/358 287/359
f 281/353 287/359 288/360
f 289/361 301/362 302/363 290/364
f 290/365 302/366 303/367 291/368
f 291/369 303/370 304/371 292/372
f 292/373 304/374 305/375 293/376
f 293/377 305/378 306/379 294/380
f 294/381 306/382 307/383 295/384
f 295/385 307/386 308/387 296/388
f 296/389 308/390 309/391 297/392
f 297/393 309/394 310/395 298/396
f 298/397 310/398 311/399 299/400
f 299/401 311/402 312/403 300/404
f 300/405 312/406 301/407 289/408
f 291/411 290/410 289/409
f 292/412 291/411 289/409
f 293/413 292/412 289/409
f 294/414 293/413 289/409
f 295/415 294/414 289/409
f 296/416 295/415 289/409
f 297/417 296/416 289/409
f 298/418 297/417 289/409
f 299/419 298/418 289/409
f 300/420 299/419 289/409
f 301/421 302/422 303/423
f 301/421 303/423 304/424
f 301/421 304/424 305/425
f 301/421 305/425 306/426
f 301/421 306/426 307/427
f 301/421 307/427 308/428
f 301/421 308/428 309/429
f 301/421 309/429 310/430
f 301/421 310/430 311/431
f 301/421 311/431 312/432
f 313/433 325/434 326/435 314/436
f 314/437 326/438 327/439 315/440
f 315/441 327/442 328/443 316/444
f 316/445 328/446 329/447 317/448
f 317/449 329/450 330/451 318/452
f 318/453 330/454 331/455 319/456
f 319/457 331/458 332/459 320/460
f 320/461 332/462 333/463 321/464
f 321/465 333/466 334/467 322/468
f 322/469 334/470 335/471 323/472
f 323/473 335/474 336/475 324/476
f 324/477 336/478 325/479 313/480
f 315/483 314/482 313/481
f 316/484 315/483 313/481
f 317/485 316/484 313/481
f 318/486 317/485 313/481
f 319/487 318/486 313/481
f 320/488 319/487 313/481
f 321/489 320/488 313/481
f 322/490 321/489 313/481
f 323/491 322/490 313/481
f 324/492 323/491 313/481
f 325/493 326/494 327/495
f 325/493 327/495 328/496
f 325/493 328/496 329/497
f 325/493 329/497 330/498
f 325/493 330/498 331/499
f 325/493 331/499 332/500
f 325/493 332/500 333/501
f 325/493 333/501 334/502
f 325/493 334/502 335/503
f 325/493 335/503 336/504
f 337/505 349/506 350/507 338/508
f 338/509 350/510 351/511 339/512
f 339/513 351/514 352/515 340/516
f 340/517 352/518 353/519 341/520
f 341/521 353/522 354/523 342/524
f 342/525 354/526 355/527 343/528
f 343/529 355/530 356/531 344/532
f 344/533 356/534 357/535 345/536
f 345/537 357/538 358/539 346/540
f 346/541 358/542 359/543 347/544
f 347/545 359/546 360/547 348/548
f 348/549 360/550 349/551 337/552
f 339/555 338/554 337/553
f 340/556 339/555 337/553
f 341/557 340/556 337/553
f 342/558 341/557 337/553
f 343/559 342/558 337/553
f 344/560 343/559 337/553
f 345/561 344/560 337/553
f 346/562 345/561 337/553
f 347/563 346/562 337/553
f 348/564 347/563 337/553
f 349/565 350/566 351/567
f 349/565 351/567 352/568
f 349/565 352/568 353/569
f 349/565 353/569 354/570
f 349/565 354/570 355/571
f 349/565 355/571 356/572
f 349/565 356/572 357/573
f 349/565 357/573 358/574
f 349/565 358/574 359/575
f 349/565 359/575 360/576
f 364/580 361/577 362/578
f 362/578 363/579 364/580
f 366/582 365/581 368/584
f 368/584 367/583 366/582
f 369/585 372/586 371/587 370/588
f 373/589 376/590 375/591 374/592
f 377/593 380/594 379/595 378/596
f 381/597 384/598 383/599 382/600
f 388/604 385/601 386/602
f 386/602 387/603 388/604
f 390/606 389/605 392/608
f 392/608 391/607 390/606
f 393/609 396/610 395/611 394/612
f 397/613 400/614 399/615 398/616
f 401/617 404/618 403/619 402/620
f 405/621 408/622 407/623 406/624
f 416/632 409/625 410/626
f 416/632 410/626 411/627
f 416/632 411/627 412/628
f 416/632 412/628 413/629
f 416/632 413/629 414/630
f 414/630 415/631 416/632
f 418/634 417/633 424/640
f 419/635 418/634 424/640
f 420/636 419/635 424/640
f 421/637 420/636 424/640
f 422/638 421/637 424/640
f 424/640 423/639 422/638
f 425/641 428/642 427/643 426/644
f 429/645 432/646 431/647 430/648
f 433/649 436/650 435/651 434/652
f 437/653 440/654 439/655 438/656
f 441/657 444/658 443/659 442/660
f 445/661 448/662 447/663 446/664
f 449/665 452/666 451/667 450/668
f 453/669 456/670 455/671 454/672
f 460/676 457/673 458/674
f 458/674 459/675 460/676
f 462/678 461/677 464/680
f 464/680 463/679 462/678
f 465/681 468/682 467/683 466/684
f 469/685 472/686 471/687 470/688
f 473/689 476/690 475/691 474/692
f 477/693 480/694 479/695 478/696
f 488/704 481/697 482/698
f 488/704 482/698 483/699
f 488/704 483/699 484/700
f 488/704 484/700 485/701
f 488/704 485/701 486/702
f 486/702 487/703 488/704
f 490/706 489/705 496/712
f 491/707 490/706 496/712
f 492/708 491/707 496/712
f 493/709 492/708 496/712
f 494/710 493/709 496/712
f 496/712 495/711 494/710
f 497/713 500/714 499/715 498/716
f 501/717 504/718 503/719 502/720
f 505/721 508/722 507/723 506/724
f 509/725 512/726 511/727 510/728
f 513/729 516/730 515/731 514/732
f 517/733 520/734 519/735 518/736
f 521/737 524/738 523/739 522/740
f 525/741 528/742 527/743 526/744
f 532/748 529/745 530/746
f 530/746 531/747 532/748
f 534/750 533/749 536/752
f 536/752 535/751 534/750
f 537/753 540/754 539/755 538/756
f 541/757 544/758 543/759 542/760
f 545/761 548/762 547/763 546/764
f 549/765 552/766 551/767 550/768
